<?xml version="1.0" standalone="no"?>
<!DOCTYPE svg PUBLIC "-//W3C//DTD SVG 1.1//EN" "http://www.w3.org/Graphics/SVG/1.1/DTD/svg11.dtd" >
<svg xmlns="http://www.w3.org/2000/svg" width="100%" height="100%">
<metadata>
Created by FontXChange 20110222 at Wed Apr  4 12:41:46 2012
 By Richard Rutter
Copyright (c) 2011 by Fontsmith Ltd. All rights reserved.
</metadata>
<defs>
<font id="" horiz-adv-x="570" >
  <font-face 
    font-family=""
    font-weight="400"
    font-stretch="normal"
    units-per-em="1000"
    panose-1="2 0 5 6 4 0 0 2 0 4"
    ascent="750"
    descent="-250"
    x-height="528"
    cap-height="720"
    bbox="-84 -299.545 1231 1040"
    underline-thickness="50"
    underline-position="-50"
    unicode-range="U+0020-FB02"
  />
<missing-glyph horiz-adv-x="694" 
d="M90 720h514v-720h-514v720zM522 669h-350l176 -263zM553 98v524l-175 -262zM522 52l-174 262l-176 -262h350zM142 98l174 262l-174 262v-524z" />
    <glyph glyph-name="uniFB01" unicode="fi" horiz-adv-x="572" 
d="M102 528v19q0 110 49.5 166.5t158.5 56.5q38 0 77 -9t77 -29q5 -2 5 -11t-4 -21l-3 -9q-5 -13 -10 -21.5t-13 -5.5q-36 16 -65 23.5t-64 7.5q-36 0 -59 -10.5t-36 -29.5t-18 -45.5t-5 -58.5v-23h116q5 0 7 -6t2 -26v-8q0 -20 -2 -25.5t-7 -5.5h-116v-445q0 -5 -5.5 -8.5
t-35.5 -3.5h-6q-30 0 -36.5 3t-6.5 9v445h-73q-5 0 -7 5.5t-2 25.5v8q0 20 2 26t7 6h73zM456 528q30 0 35.5 -3.5t5.5 -8.5v-504q0 -5 -5.5 -8.5t-35.5 -3.5h-6q-30 0 -36.5 3t-6.5 9v504q0 6 6.5 9t36.5 3h6z" />
    <glyph glyph-name="uniFB02" unicode="fl" horiz-adv-x="589" 
d="M102 528v21q0 109 52.5 165t164.5 56q32 0 70.5 -7t73.5 -23q18 -8 21 -17t4 -17q4 -45 5.5 -111t1.5 -147v-329q0 -28 6.5 -39t31.5 -11h10q4 0 5 -5t1 -22v-3q0 -20 -0.5 -25t-5.5 -7q-22 -8 -47 -8q-21 0 -40.5 7t-33.5 27q-10 14 -13.5 39.5t-3.5 65.5v332
q0 53 -1.5 110t-4.5 101q-39 15 -81 15q-38 0 -62 -11t-38.5 -30.5t-20 -46t-5.5 -58.5v-22h116q5 0 7 -6t2 -26v-8q0 -20 -2 -25.5t-7 -5.5h-116v-445q0 -5 -5.5 -8.5t-35.5 -3.5h-6q-30 0 -36.5 3t-6.5 9v445h-73q-5 0 -7 5.5t-2 25.5v8q0 20 2 26t7 6h73z" />
    <glyph glyph-name=".notdef" horiz-adv-x="694" 
d="M90 720h514v-720h-514v720zM522 669h-350l176 -263zM553 98v524l-175 -262zM522 52l-174 262l-176 -262h350zM142 98l174 262l-174 262v-524z" />
    <glyph glyph-name=".null" horiz-adv-x="0" 
 />
    <glyph glyph-name="nonmarkingreturn" horiz-adv-x="250" 
 />
    <glyph glyph-name="space" unicode=" " horiz-adv-x="250" 
 />
    <glyph glyph-name="exclam" unicode="!" horiz-adv-x="303" 
d="M156 720q26 0 37.5 -3t11.5 -10l-16 -500q0 -9 -32 -9h-11q-34 0 -34 9l-18 500q0 13 48 13h14zM151 117q26 0 45 -19t19 -45t-19 -44.5t-45 -18.5t-44.5 18.5t-18.5 44.5t18.5 45t44.5 19z" />
    <glyph glyph-name="quotedbl" unicode="&#x22;" horiz-adv-x="424" 
d="M313 720q41 0 41 -12l-10 -257q0 -10 -32 -10h-11q-34 0 -34 10l-9 257q0 12 38 12h17zM125 720q41 0 41 -12l-10 -257q0 -10 -32 -10h-11q-34 0 -34 10l-9 257q0 12 38 12h17z" />
    <glyph glyph-name="numbersign" unicode="#" horiz-adv-x="588" 
d="M250 720q33 0 31 -10l-37 -186h154l39 186q2 6 8 8t25 2h7q33 0 31 -10l-36 -186h91q9 0 9 -29v-9q0 -17 -2 -23.5t-7 -6.5h-105l-38 -187h95q9 0 9 -29v-9q0 -17 -2 -23.5t-7 -6.5h-109l-38 -191q-2 -6 -8.5 -8t-25.5 -2h-8q-35 0 -32 10l38 191h-153l-38 -191
q-2 -6 -8.5 -8t-25.5 -2h-8q-35 0 -32 10l39 191h-77q-5 0 -7 6.5t-2 23.5v9q0 29 9 29h90l39 187h-83q-5 0 -7 6.5t-2 23.5v9q0 29 9 29h96l39 186q2 6 8 8t25 2h7zM193 269h153l39 187h-154z" />
    <glyph glyph-name="dollar" unicode="$" 
d="M317 789q19 0 26 -2.5t7 -8.5v-77q62 -9 112 -45q6 -5 -8 -32l-5 -9q-17 -28 -27 -21q-22 15 -48.5 24t-58.5 9q-30 0 -52 -8.5t-35.5 -22.5t-20 -31t-6.5 -35q0 -34 21 -56t52.5 -40.5t68 -36t68 -41.5t52.5 -58t21 -85q0 -78 -43.5 -129t-129.5 -62v-87q0 -11 -32 -11
h-13q-19 0 -26 2.5t-7 8.5v87q-48 5 -87 19.5t-63 37.5q-5 4 -4.5 12t11.5 25l7 12q11 14 17 18t11 2q30 -23 68.5 -36t67.5 -13q27 0 51 6.5t42 19.5t28 32.5t10 44.5q0 38 -21 63t-52.5 43.5t-68 35t-68 39t-52.5 54.5t-21 81q0 40 12 71.5t34 55t52 37.5t65 19v77
q0 11 32 11h13z" />
    <glyph glyph-name="percent" unicode="%" horiz-adv-x="881" 
d="M616 737q34 0 29 -11l-336 -734q-2 -5 -9.5 -7t-23.5 -2h-18q-34 0 -29 11l337 734q4 9 33 9h17zM675 330q-37 0 -58.5 -35t-21.5 -104q0 -63 18.5 -96.5t56.5 -33.5q39 0 60 36t21 105q0 128 -76 128zM678 401q74 0 118.5 -48t44.5 -149q0 -103 -46 -158.5t-127 -55.5
q-75 0 -119 48.5t-44 148.5q0 105 46 159.5t127 54.5zM210 659q-37 0 -58.5 -35t-21.5 -104q0 -63 18.5 -96.5t56.5 -33.5q39 0 60 36t21 105q0 128 -76 128zM213 730q74 0 118.5 -48t44.5 -149q0 -103 -46 -158.5t-127 -55.5q-75 0 -119 48.5t-44 148.5q0 105 46 159.5
t127 54.5z" />
    <glyph glyph-name="ampersand" unicode="&#x26;" horiz-adv-x="697" 
d="M458 656q-5 -14 -10.5 -23t-10.5 -7q-53 27 -106 27q-62 0 -86.5 -28.5t-24.5 -72.5q0 -39 17.5 -69.5t51.5 -70.5q44 -52 94 -103t105 -100q40 76 57 186q1 7 8 10t28 3h11q21 0 29 -4t7 -11q-9 -70 -29 -129t-49 -109l58 -47l59 -45q9 -6 -12 -35l-8 -11
q-21 -29 -29 -24q-33 23 -62 45.5t-55 45.5q-39 -44 -94.5 -69t-133.5 -25q-56 0 -98.5 15t-71.5 42t-44 64t-15 81q0 73 39.5 124t104.5 83q-34 35 -48.5 72.5t-14.5 72.5q0 36 12 69.5t37 59.5t64 41.5t93 15.5q36 0 68 -8.5t61 -24.5q9 -5 1 -32zM439 137
q-59 51 -109 101t-96 103q-18 -11 -35 -25t-30.5 -31.5t-21.5 -39t-8 -47.5q0 -61 41 -96t104 -35q56 0 93 20.5t62 49.5z" />
    <glyph glyph-name="quotesingle" unicode="'" horiz-adv-x="236" 
d="M125 720q41 0 41 -13l-10 -256q0 -10 -32 -10h-11q-34 0 -34 10l-9 256q0 13 38 13h17z" />
    <glyph glyph-name="parenleft" unicode="(" horiz-adv-x="326" 
d="M266 751q18 -9 22 -14.5t1 -10.5q-50 -77 -82.5 -177t-32.5 -231q0 -68 8.5 -126.5t24.5 -110t37.5 -96.5t47.5 -86q3 -5 -1 -11t-23 -15l-8 -4q-29 -14 -35 -7q-26 34 -51.5 79.5t-45.5 101t-32 122.5t-12 145q0 79 12.5 147t32.5 125t45 102t50 78q3 5 12 2.5t22 -9.5z
" />
    <glyph glyph-name="parenright" unicode=")" horiz-adv-x="326" 
d="M71 755q13 7 22 9.5t12 -2.5q25 -32 50 -75t45 -97t32.5 -119t12.5 -141q0 -81 -12 -151t-32 -128.5t-45.5 -106t-51.5 -82.5q-4 -5 -13 -2t-22 9l-8 4q-30 16 -24 26q26 42 47.5 86.5t37.5 95.5t24.5 109.5t8.5 127.5q0 129 -32.5 231t-82.5 177q-3 5 1 10.5t22 14.5z
" />
    <glyph glyph-name="asterisk" unicode="*" horiz-adv-x="397" 
d="M168 609l-9 110q0 6 6.5 8.5t25.5 2.5h14q19 0 24.5 -3t5.5 -8l-9 -110l105 43q12 4 21 -27l5 -14q9 -31 0 -34l-114 -26l78 -85q8 -10 -19 -28l-12 -9q-26 -17 -31 -9l-63 96l-59 -96q-6 -11 -33 9l-11 9q-25 19 -18 26l75 87l-109 25q-5 2 -5.5 9.5t4.5 25.5l5 15
q5 18 9.5 23t10.5 3z" />
    <glyph glyph-name="plus" unicode="+" 
d="M247 398v220q0 5 7 7.5t24 2.5h15q17 0 23.5 -2.5t6.5 -7.5v-220h209q9 0 9 -29v-9q0 -17 -2 -23.5t-7 -6.5h-209v-222q0 -5 -6.5 -7.5t-23.5 -2.5h-15q-17 0 -24 2.5t-7 7.5v222h-209q-5 0 -7 6.5t-2 23.5v9q0 29 9 29h209z" />
    <glyph glyph-name="comma" unicode="," horiz-adv-x="241" 
d="M44 -150q-5 5 -7.5 12t5.5 15q22 21 40 47.5t18 52.5q0 15 -7 23t-15 16t-15 19t-7 32q0 26 18.5 42t44.5 15q35 0 54 -22.5t19 -54.5q0 -59 -30 -116t-78 -95q-6 -5 -13.5 -5.5t-15.5 7.5z" />
    <glyph glyph-name="hyphen" unicode="-" horiz-adv-x="378" 
d="M326 339q9 0 9 -31v-9q0 -32 -9 -32h-274q-9 0 -9 32v9q0 31 9 31h274z" />
    <glyph glyph-name="period" unicode="." horiz-adv-x="241" 
d="M124 125q29 0 48.5 -19.5t19.5 -48.5q0 -28 -19.5 -47.5t-48.5 -19.5q-28 0 -47.5 19.5t-19.5 47.5q0 29 19.5 48.5t47.5 19.5z" />
    <glyph glyph-name="slash" unicode="/" horiz-adv-x="330" 
d="M286 738q35 0 32 -12l-219 -733q-3 -10 -36 -10h-20q-34 0 -31 12l220 733q2 7 10 8.5t25 1.5h19z" />
    <glyph glyph-name="zero" unicode="0" 
d="M290 651q-72 0 -111.5 -75.5t-39.5 -223.5q0 -139 35.5 -211t106.5 -72q74 0 113 78t39 224q0 139 -36.5 209.5t-106.5 70.5zM294 730q108 0 171 -86t63 -268q0 -186 -65 -286t-186 -100q-109 0 -171.5 87.5t-62.5 267.5q0 189 66 287t185 98z" />
    <glyph glyph-name="one" unicode="1" 
d="M267 710q8 5 17.5 7.5t23.5 2.5h18q20 0 27.5 -2.5t7.5 -8.5v-635h104q8 0 8 -28v-17q0 -29 -8 -29h-311q-5 0 -6.5 5t-1.5 24v16q0 19 1.5 24t6.5 5h112v537l-141 -84q-12 -7 -28 22l-7 12q-16 28 -6 35z" />
    <glyph glyph-name="two" unicode="2" 
d="M85 638q-5 11 -6.5 21t3.5 13q38 27 86 42.5t99 15.5q42 0 79 -12.5t64.5 -37t43.5 -60.5t16 -83q0 -42 -12 -79t-35 -74.5t-55 -77.5l-74 -87l-121 -139h306q9 0 9 -33v-13q0 -34 -9 -34h-397q-7 0 -9.5 7.5t-2.5 27.5v18q0 34 14 49l140 162l72 85q30 36 47.5 65.5
t25.5 56t8 56.5q0 61 -36 91.5t-92 30.5q-33 0 -67 -11.5t-69 -32.5q-4 -2 -10.5 4.5t-12.5 18.5z" />
    <glyph glyph-name="three" unicode="3" 
d="M84 659q-7 14 -6.5 21.5t4.5 9.5q34 18 74.5 29t84.5 11q41 0 79.5 -11t68.5 -34t48 -57.5t18 -80.5q0 -60 -30 -104.5t-77 -59.5q24 -5 48 -18t43 -34.5t31 -52.5t12 -71q0 -54 -20.5 -95t-55 -68t-79 -40.5t-92.5 -13.5q-42 0 -85.5 9.5t-81.5 26.5q-4 2 -4.5 9t6.5 25
l7 17q6 15 11 20t9 3q30 -15 67 -23t69 -8t60 8.5t48.5 25.5t32.5 42.5t12 58.5q0 36 -15 62t-40 42.5t-57.5 24.5t-67.5 8h-39q-5 0 -6.5 5t-1.5 24v17q0 19 1.5 24t6.5 5h38q32 0 60.5 7t49.5 22t33.5 38.5t12.5 56.5q0 31 -10.5 52.5t-28 35t-40.5 20t-48 6.5
q-29 0 -61.5 -7.5t-61.5 -23.5q-4 -2 -8.5 2t-11.5 19z" />
    <glyph glyph-name="four" unicode="4" 
d="M312 720q19 0 30 -3.5t8 -10.5l-213 -443h203v159q0 11 41 11h11q43 0 43 -11v-159h81q9 0 9 -33v-13q0 -34 -9 -34h-81v-172q0 -11 -41 -11h-11q-43 0 -43 11v172h-266q-20 0 -27.5 3t-7.5 11v44q0 14 3.5 28t8.5 26l200 413q3 7 15 9.5t30 2.5h16z" />
    <glyph glyph-name="five" unicode="5" 
d="M464 720q9 0 9 -33v-13q0 -34 -9 -34h-264v-195q16 3 32 5t32 2q47 0 88.5 -12.5t73 -39t49.5 -68t18 -98.5q0 -61 -20.5 -107t-56 -76.5t-84 -45.5t-103.5 -15q-34 0 -76 8t-74 21q-10 4 0 35l4 13q10 33 20 29q33 -14 67.5 -19.5t66.5 -5.5q71 0 116 40t45 117
q0 44 -13 72t-34 44.5t-48 23t-55 6.5q-40 0 -73.5 -4t-67.5 -12v362h357z" />
    <glyph glyph-name="six" unicode="6" 
d="M479 658q-5 -15 -9.5 -24t-9.5 -7q-23 12 -51 18t-53 6q-48 0 -82 -21.5t-56.5 -57t-35 -79.5t-17.5 -89q29 23 66 34t78 11q54 0 93.5 -16t66 -45.5t39.5 -70t13 -89.5q0 -51 -14.5 -94.5t-43 -75.5t-69.5 -50t-95 -18q-71 0 -117 25.5t-72.5 68.5t-36.5 99.5t-10 118.5
q0 77 15 153.5t49.5 137.5t90.5 99t138 38q39 0 69 -7.5t57 -21.5q5 -3 5 -10t-5 -24zM159 302q0 -39 4.5 -80t19 -75t43 -56t76.5 -22q35 0 58.5 13.5t38 35t20.5 48.5t6 53q0 29 -5.5 56.5t-19.5 48.5t-38.5 34t-61.5 13q-40 0 -77 -12.5t-64 -30.5v-26z" />
    <glyph glyph-name="seven" unicode="7" 
d="M466 720q20 0 27.5 -3t7.5 -11v-49q0 -11 -3 -22t-6 -19l-249 -606q-2 -5 -14 -7.5t-30 -2.5h-16q-19 0 -30 3t-9 9l265 628h-324q-9 0 -9 34v13q0 33 9 33h381z" />
    <glyph glyph-name="eight" unicode="8" 
d="M196 380q-50 18 -83.5 60t-33.5 107q0 46 18 80.5t47.5 57t67.5 34t78 11.5q39 0 75 -10.5t64.5 -32t45.5 -53.5t17 -75q0 -32 -10 -59t-26.5 -48t-38 -37t-44.5 -26q28 -11 54.5 -28t46.5 -40.5t32 -53.5t12 -67q0 -49 -19.5 -88t-52.5 -66t-77 -41.5t-93 -14.5
q-44 0 -84.5 11.5t-71.5 35.5t-49.5 61t-18.5 88q0 36 11.5 67t31 55.5t45.5 42.5t56 29zM289 430q22 10 42 21.5t35 26.5t23.5 33.5t8.5 41.5q0 45 -31 72.5t-81 27.5q-49 0 -81 -28t-32 -73q0 -24 9.5 -42.5t26 -33t37 -26t43.5 -20.5zM281 339q-27 -10 -51.5 -24
t-42.5 -32t-29 -41.5t-11 -51.5q0 -58 38 -90t96 -32q29 0 54.5 9t45 25.5t31 39.5t11.5 51q0 31 -13 53.5t-33 40t-45.5 30t-50.5 22.5z" />
    <glyph glyph-name="nine" unicode="9" 
d="M75 71q5 12 13 20t13 5q23 -13 55 -20t60 -7q56 0 92.5 26t58 67t31.5 91.5t13 99.5q-30 -26 -72.5 -41t-84.5 -15q-53 0 -91 15.5t-63 43t-37 66t-12 84.5q0 48 15 89t43.5 71t71 47t98.5 17q69 0 114 -25.5t70.5 -68.5t35.5 -99.5t10 -118.5q0 -80 -13.5 -156.5
t-47.5 -137t-90.5 -97.5t-141.5 -37q-45 0 -80 9t-66 25q-5 3 -4.5 14.5t5.5 23.5zM415 437q0 36 -4.5 74t-19 69.5t-42 51.5t-73.5 20q-37 0 -62 -12.5t-40 -32.5t-21.5 -44t-6.5 -48q0 -26 5.5 -51t19 -44.5t37 -31.5t59.5 -12q45 0 82.5 16t65.5 33v12z" />
    <glyph glyph-name="colon" unicode=":" horiz-adv-x="241" 
d="M57 57q0 28 19.5 47.5t47.5 19.5t47.5 -19.5t19.5 -47.5t-19.5 -47.5t-47.5 -19.5t-47.5 19.5t-19.5 47.5zM57 430q0 28 19.5 47.5t47.5 19.5t47.5 -19.5t19.5 -47.5t-19.5 -47.5t-47.5 -19.5t-47.5 19.5t-19.5 47.5z" />
    <glyph glyph-name="semicolon" unicode=";" horiz-adv-x="241" 
d="M53 430q0 28 19.5 47.5t47.5 19.5t47.5 -19.5t19.5 -47.5t-19.5 -47.5t-47.5 -19.5t-47.5 19.5t-19.5 47.5zM41 -150q-5 5 -7.5 12t5.5 15q22 21 40 47.5t18 52.5q0 15 -7 23t-15 16t-15 19t-7 32q0 27 19 42.5t47 15.5q34 0 52 -23t18 -55q0 -59 -30 -116t-78 -95
q-6 -5 -13.5 -5.5t-15.5 7.5z" />
    <glyph glyph-name="less" unicode="&#x3c;" 
d="M485 646q7 4 22 -23l5 -9q16 -29 6 -34l-390 -213l392 -218q5 -2 2.5 -11.5t-7.5 -18.5l-7 -12q-5 -10 -12 -16.5t-12 -4.5l-433 240q-4 2 -6 9.5t-2 23.5v11q0 15 2 22.5t6 9.5z" />
    <glyph glyph-name="equal" unicode="=" 
d="M527 500q9 0 9 -29v-9q0 -17 -2 -23.5t-7 -6.5h-484q-5 0 -7 6.5t-2 23.5v9q0 29 9 29h484zM527 296q9 0 9 -29v-9q0 -17 -2 -23.5t-7 -6.5h-484q-5 0 -7 6.5t-2 23.5v9q0 29 9 29h484z" />
    <glyph glyph-name="greater" unicode="&#x3e;" 
d="M519 408q4 -2 6 -9.5t2 -23.5v-11q0 -15 -2 -22.5t-6 -9.5l-434 -244q-7 -4 -22 23l-5 9q-16 29 -6 34l390 213l-392 218q-5 2 -2.5 11.5t7.5 18.5l7 12q5 10 12 16.5t12 4.5z" />
    <glyph glyph-name="question" unicode="?" horiz-adv-x="412" 
d="M149 117q26 0 45 -19t19 -45t-19 -44.5t-45 -18.5t-44.5 18.5t-18.5 44.5t18.5 45t44.5 19zM42 660q-5 11 -4.5 21t4.5 12q31 18 71.5 27.5t75.5 9.5q42 0 79 -9.5t64 -29.5t42.5 -52.5t15.5 -78.5q0 -72 -35 -121t-91 -78q-41 -21 -55.5 -39t-14.5 -47v-68
q0 -5 -10.5 -7.5t-28.5 -2.5h-13q-41 0 -41 10v64q0 29 5.5 51.5t18 41t32.5 34t50 30.5q45 23 66 49t21 71q0 29 -9 48t-24.5 30t-36.5 15.5t-45 4.5q-54 0 -104 -25q-4 -2 -11 2t-13 17z" />
    <glyph glyph-name="at" unicode="@" horiz-adv-x="818" 
d="M520 524q3 12 30 12h25q17 0 22.5 -4.5t4.5 -8.5l-12 -46q-6 -27 -13 -61l-19 -97q-2 -12 -3.5 -23t-1.5 -20q0 -20 10 -37.5t40 -17.5q32 0 53.5 20.5t35 50.5t19 64.5t5.5 63.5q0 59 -20.5 105t-57.5 77.5t-87 48t-108 16.5q-72 0 -132.5 -24t-104.5 -68t-68.5 -105
t-24.5 -134q0 -69 21 -122t59 -89t90.5 -54t115.5 -18q40 0 82 6.5t77 17.5q10 3 16 -19l2 -7q3 -11 4 -19t-5 -10q-41 -16 -92 -24t-96 -8q-75 0 -138 22.5t-108.5 65.5t-71.5 106t-26 143q0 88 31 162t85 127.5t127.5 83.5t158.5 30q71 0 133.5 -20.5t108.5 -60
t72.5 -96.5t26.5 -130q0 -47 -12 -93.5t-36.5 -84.5t-62.5 -61.5t-89 -23.5q-21 0 -35.5 4t-25 11.5t-18.5 17.5t-16 22q-23 -24 -52 -39.5t-70 -15.5q-37 0 -63.5 11t-43 30.5t-24.5 45.5t-8 56q0 41 13.5 84t39.5 77.5t64.5 56.5t89.5 22q27 0 47 -7t34 -20zM499 447
q-12 14 -29 21.5t-38 7.5q-29 0 -50 -15t-35 -39t-21 -53t-7 -57q0 -39 14 -61t49 -22q23 0 38.5 9.5t26.5 25.5t18 37t12 45z" />
    <glyph glyph-name="A" unicode="A" horiz-adv-x="648" 
d="M332 720q23 0 33 -2.5t12 -8.5l248 -698q2 -6 -10 -8.5t-33 -2.5h-15q-20 0 -32 2.5t-14 8.5l-59 176h-282l-59 -176q-4 -11 -44 -11h-13q-21 0 -32 2.5t-9 8.5l244 698q2 6 11.5 8.5t34.5 2.5h19zM203 266h235l-118 354z" />
    <glyph glyph-name="B" unicode="B" horiz-adv-x="574" 
d="M254 720q49 0 93.5 -9.5t77.5 -31.5t52.5 -58t19.5 -88q0 -57 -26 -95t-59 -56q62 -26 92.5 -67.5t30.5 -105.5q0 -59 -20.5 -99t-56 -64.5t-83 -35t-100.5 -10.5h-195v720h174zM175 78h92q26 0 56 3.5t55.5 16.5t42.5 37t17 66q0 57 -37 94.5t-116 37.5h-110v-255z
M175 408h78q78 0 113 33t35 85q0 38 -14.5 61t-36 35t-46.5 16t-47 4h-82v-234z" />
    <glyph glyph-name="C" unicode="C" horiz-adv-x="573" 
d="M522 634q-6 -12 -12.5 -18.5t-11.5 -4.5q-35 19 -68.5 28.5t-68.5 9.5q-45 0 -84.5 -17.5t-68.5 -53.5t-45.5 -91t-16.5 -131q0 -52 10 -103t34 -91t64.5 -64.5t101.5 -24.5q71 0 137 33q5 2 11.5 -3t12.5 -19l6 -13q5 -11 6.5 -21t-3.5 -13q-82 -47 -188 -47
q-75 0 -129.5 26.5t-90.5 74.5t-53 114t-17 145q0 74 15.5 143t51 121.5t93.5 84t143 31.5q51 0 97 -12.5t83 -37.5q4 -2 4 -9q0 -10 -7 -25z" />
    <glyph glyph-name="D" unicode="D" horiz-adv-x="654" 
d="M248 720q99 0 163 -20t110 -68q42 -43 65 -108.5t23 -159.5q0 -93 -25 -166.5t-77 -123.5q-45 -43 -108 -58.5t-146 -15.5h-173v720h168zM175 78h80q52 0 99 12t81 44q38 35 57 93t19 134q0 69 -15 120.5t-42 84.5q-29 36 -75 56t-118 20h-86v-564z" />
    <glyph glyph-name="E" unicode="E" horiz-adv-x="544" 
d="M480 720q9 0 9 -33v-12q0 -34 -9 -34h-305v-237h259q9 0 9 -33v-12q0 -34 -9 -34h-259v-245h309q9 0 9 -33v-13q0 -34 -9 -34h-404v720h400z" />
    <glyph glyph-name="F" unicode="F" horiz-adv-x="490" 
d="M455 720q9 0 9 -33v-12q0 -34 -9 -34h-280v-237h234q9 0 9 -33v-12q0 -34 -9 -34h-234v-314q0 -11 -41 -11h-11q-43 0 -43 11v709h375z" />
    <glyph glyph-name="G" unicode="G" horiz-adv-x="635" 
d="M543 623q-8 -14 -15.5 -18.5t-12.5 -1.5q-38 24 -78.5 35.5t-82.5 11.5q-55 0 -95.5 -20.5t-67 -59t-39.5 -92t-13 -119.5q0 -64 12.5 -117t39.5 -91.5t69.5 -59.5t102.5 -21q32 0 64.5 5.5t56.5 15.5v216h-157q-9 0 -9 32v14q0 33 9 33h251v-346q-21 -9 -47.5 -18
t-56.5 -16t-62 -11.5t-64 -4.5q-77 0 -134.5 25t-95.5 72t-57.5 114t-19.5 152q0 86 19.5 155.5t58.5 119t97 76t134 26.5q64 0 114.5 -16t87.5 -44q5 -3 5.5 -12t-7.5 -23z" />
    <glyph glyph-name="H" unicode="H" horiz-adv-x="664" 
d="M132 720q43 0 43 -11v-305h314v305q0 11 41 11h11q43 0 43 -11v-698q0 -11 -41 -11h-11q-43 0 -43 11v314h-314v-314q0 -11 -41 -11h-11q-43 0 -43 11v698q0 11 41 11h11z" />
    <glyph glyph-name="I" unicode="I" horiz-adv-x="381" 
d="M311 720q8 0 8 -28v-12q0 -29 -8 -29h-73v-582h73q8 0 8 -29v-12q0 -28 -8 -28h-241q-5 0 -6.5 5t-1.5 24v11q0 19 1.5 24t6.5 5h73v582h-73q-5 0 -6.5 5t-1.5 24v11q0 19 1.5 24t6.5 5h241z" />
    <glyph glyph-name="J" unicode="J" horiz-adv-x="442" 
d="M330 720q43 0 43 -11v-493q0 -109 -45.5 -167.5t-151.5 -58.5q-45 0 -84 12t-67 38q-2 2 -2 7q0 3 1 7q3 11 12 24l7 10q8 11 16.5 15.5t13.5 0.5q23 -15 46 -24t52 -9q31 0 51.5 11t33 29.5t17.5 43t5 52.5v502q0 11 41 11h11z" />
    <glyph glyph-name="K" unicode="K" horiz-adv-x="588" 
d="M132 720q43 0 43 -11v-342l77 86q70 78 117.5 142t74.5 115q3 6 10.5 8t31.5 2h9q27 0 35 -2t5 -9q-9 -22 -28 -54.5t-46.5 -71t-62.5 -81.5t-75 -86l244 -405q1 -1 1 -2q0 -4 -10 -6q-13 -3 -34 -3h-19q-20 0 -32.5 3t-15.5 8l-200 342l-82 -91v-251q0 -11 -41 -11h-11
q-43 0 -43 11v698q0 11 41 11h11z" />
    <glyph glyph-name="L" unicode="L" horiz-adv-x="506" 
d="M132 720q43 0 43 -11v-629h286q9 0 9 -33v-13q0 -34 -9 -34h-346q-20 0 -27.5 3t-7.5 11v695q0 11 41 11h11z" />
    <glyph glyph-name="M" unicode="M" horiz-adv-x="779" 
d="M153 720q29 0 40.5 -3.5t14.5 -11.5l186 -466l181 466q3 8 13 11.5t39 3.5h7q32 0 42 -3.5t10 -11.5l28 -694q0 -11 -39 -11h-11q-41 0 -41 11l-18 555l-165 -431q-2 -5 -11.5 -7.5t-33.5 -2.5h-8q-25 0 -34 2.5t-11 8.5l-167 416l-20 -541q0 -11 -41 -11h-10
q-39 0 -39 11l33 694q1 10 9.5 12.5t40.5 2.5h5z" />
    <glyph glyph-name="N" unicode="N" horiz-adv-x="678" 
d="M128 720q32 0 41 -2.5t14 -10.5l333 -554v556q0 11 38 11h8q40 0 40 -11v-698q0 -7 -9.5 -9t-37.5 -2h-3q-32 0 -41 2.5t-14 10.5l-335 553v-555q0 -11 -38 -11h-8q-40 0 -40 11v698q0 7 9.5 9t37.5 2h5z" />
    <glyph glyph-name="O" unicode="O" horiz-adv-x="697" 
d="M356 649q-99 0 -156 -76.5t-57 -218.5q0 -137 52 -210t146 -73q99 0 156 77.5t57 218.5q0 137 -52 209.5t-146 72.5zM360 730q64 0 118 -22.5t92.5 -67.5t60 -112.5t21.5 -156.5q0 -88 -22.5 -158.5t-63.5 -120t-99 -76t-130 -26.5q-65 0 -118.5 23t-92 68t-60 112.5
t-21.5 156.5q0 88 22.5 158t63.5 119.5t99 76t130 26.5z" />
    <glyph glyph-name="P" unicode="P" horiz-adv-x="537" 
d="M249 720q57 0 106 -10t85.5 -35t57 -66.5t20.5 -105.5q0 -39 -11 -80.5t-38.5 -75t-73.5 -55.5t-116 -22q-26 0 -52.5 1.5t-51.5 4.5v-265q0 -11 -41 -11h-11q-43 0 -43 11v709h169zM175 353q23 -3 48 -4.5t49 -1.5q77 0 112.5 42.5t35.5 110.5q0 49 -15.5 77t-39 42.5
t-51.5 18.5t-53 4h-86v-289z" />
    <glyph glyph-name="Q" unicode="Q" horiz-adv-x="695" 
d="M577 -87q-14 -15 -23 -17h-3q-6 0 -10 4q-22 20 -47 48t-49 60q-50 -18 -108 -18q-65 0 -118.5 23t-92 68t-60 112.5t-21.5 156.5q0 88 22.5 158t63.5 119.5t99 76t130 26.5q64 0 118 -22.5t92.5 -67.5t60 -112.5t21.5 -156.5q0 -112 -35.5 -194.5t-99.5 -130.5
q44 -60 82 -90q5 -5 2 -12t-15 -21zM391 205q13 5 22 5.5t13 -7.5l20 -39q10 -20 25 -44q40 37 61.5 99t21.5 148q0 137 -52 209.5t-146 72.5q-99 0 -156 -76.5t-57 -218.5q0 -137 52 -210t146 -73q17 0 33 2.5t30 7.5q-12 19 -26.5 45.5t-23.5 50.5q-1 1 -1 3q0 9 24 19z
" />
    <glyph glyph-name="R" unicode="R" horiz-adv-x="574" 
d="M249 720q57 0 106.5 -9t86 -32t57.5 -62.5t21 -100.5q0 -78 -37.5 -129.5t-109.5 -78.5l48 -93q27 -54 55 -101t65 -98q1 -2 1 -3q0 -4 -8 -8q-11 -5 -33 -5h-19q-23 0 -35.5 6t-17.5 13q-29 41 -48 77l-42 80l-61 119h-103v-284q0 -11 -41 -11h-11q-43 0 -43 11v709h169
zM175 371h91q42 0 71.5 10.5t48.5 29.5t27.5 45t8.5 57q0 45 -15.5 70.5t-39 39t-51.5 17t-52 3.5h-89v-272z" />
    <glyph glyph-name="S" unicode="S" horiz-adv-x="519" 
d="M436 635q-8 -15 -15.5 -19t-12.5 -1q-24 16 -55.5 25.5t-69.5 9.5q-32 0 -55 -9t-38 -24t-22 -34t-7 -39q0 -36 23.5 -60.5t59.5 -44.5t77 -39.5t77 -46t59.5 -64t23.5 -93.5q0 -46 -14.5 -84t-43.5 -65t-72 -42t-100 -15q-63 0 -116 15.5t-86 41.5q-5 4 -5 11
q0 11 11 30l7 12q8 12 15.5 17t12.5 2q34 -23 76 -36t74 -13q31 0 57.5 7.5t46.5 22t31.5 35.5t11.5 49q0 43 -23.5 70.5t-59 48.5t-77 39t-77 42.5t-59 59t-23.5 87.5q0 47 16.5 84t45 62.5t66.5 39t80 13.5q22 0 45.5 -3.5t46.5 -10t43.5 -16t35.5 -21.5q5 -4 2.5 -14
t-8.5 -21z" />
    <glyph glyph-name="T" unicode="T" horiz-adv-x="512" 
d="M489 720q9 0 9 -33v-12q0 -34 -9 -34h-186v-630q0 -11 -43 -11h-11q-41 0 -41 11v630h-185q-9 0 -9 34v12q0 33 9 33h466z" />
    <glyph glyph-name="U" unicode="U" horiz-adv-x="678" 
d="M125 720q43 0 43 -11v-440q0 -106 43.5 -152.5t127.5 -46.5q82 0 126.5 49.5t44.5 148.5v441q0 11 41 11h11q43 0 43 -11v-429q0 -149 -67 -219.5t-203 -70.5q-130 0 -196 64.5t-66 207.5v447q0 11 41 11h11z" />
    <glyph glyph-name="V" unicode="V" horiz-adv-x="607" 
d="M77 720q20 0 32.5 -3.5t14.5 -8.5l186 -613l183 613q3 12 43 12h13q44 0 40 -12l-223 -697q-2 -6 -14.5 -8.5t-32.5 -2.5h-24q-42 0 -46 11l-231 697q-2 6 10.5 9t33.5 3h15z" />
    <glyph glyph-name="W" unicode="W" horiz-adv-x="953" 
d="M86 720q20 0 32.5 -3t14.5 -9l148 -613l146 614q3 11 45 11h23q42 0 45 -11l150 -614l144 613q3 12 42 12h11q43 0 40 -12l-179 -698q-2 -6 -14.5 -8.5t-32.5 -2.5h-30q-43 0 -46 11l-144 590l-139 -588q-2 -6 -14.5 -9.5t-32.5 -3.5h-31q-43 0 -46 13l-190 696
q-2 6 10.5 9t33.5 3h14z" />
    <glyph glyph-name="X" unicode="X" horiz-adv-x="576" 
d="M106 720q20 0 32.5 -2.5t15.5 -8.5l149 -265l149 265q7 11 48 11h10q21 0 34.5 -3t9.5 -9l-206 -339l210 -356q1 -1 1 -3q0 -4 -11 -6q-13 -4 -34 -4h-15q-20 0 -33 3t-16 8l-162 290l-166 -290q-3 -5 -15.5 -8t-32.5 -3h-12q-21 0 -34 4q-10 2 -10 6q0 2 1 3l221 365
l-190 330q-3 6 10 9t34 3h12z" />
    <glyph glyph-name="Y" unicode="Y" horiz-adv-x="543" 
d="M69 720q20 0 32.5 -2.5t15.5 -8.5l159 -338l156 338q3 6 15 8.5t31 2.5h11q20 0 33 -3q10 -2 10 -7q0 -1 -1 -2l-214 -429v-268q0 -11 -43 -11h-11q-41 0 -41 11v268l-212 429q-1 1 -1 2q0 5 11 7q13 3 34 3h15z" />
    <glyph glyph-name="Z" unicode="Z" horiz-adv-x="547" 
d="M468 720q20 0 27.5 -3t7.5 -11v-43q0 -12 -6.5 -25t-14.5 -25l-333 -533h353q9 0 9 -33v-12q0 -35 -9 -35h-426q-20 0 -27.5 3t-7.5 11v43q0 14 4.5 25.5t13.5 25.5l334 533h-323q-5 0 -7 7.5t-2 29.5v7q0 35 9 35h398z" />
    <glyph glyph-name="bracketleft" unicode="[" horiz-adv-x="326" 
d="M289 753q9 0 9 -32v-6q0 -35 -9 -35h-114v-739h117q9 0 9 -32v-6q0 -35 -9 -35h-206v885h203z" />
    <glyph glyph-name="backslash" unicode="\" horiz-adv-x="336" 
d="M68 738q17 0 25 -1.5t10 -8.5l220 -733q3 -12 -31 -12h-24q-33 0 -36 10l-219 733q-3 12 32 12h23z" />
    <glyph glyph-name="bracketright" unicode="]" horiz-adv-x="326" 
d="M240 753v-885h-206q-9 0 -9 35v6q0 32 9 32h117v739h-114q-9 0 -9 35v6q0 32 9 32h203z" />
    <glyph glyph-name="asciicircum" unicode="^" 
d="M298 730q20 0 29 -3.5t12 -9.5l177 -377q5 -12 -39 -12h-15q-22 0 -32 3t-13 10l-133 294l-134 -294q-3 -7 -11.5 -10t-30.5 -3h-13q-46 0 -40 12l181 377q3 6 12 9.5t27 3.5h23z" />
    <glyph glyph-name="underscore" unicode="_" horiz-adv-x="500" 
d="M502 -133q5 0 7 -6t2 -22v-9q0 -17 -2 -23t-7 -6h-504q-5 0 -7 6t-2 23v9q0 16 2 22t7 6h504z" />
    <glyph glyph-name="grave" unicode="`" horiz-adv-x="350" 
d="M128 732q40 0 46 -11l73 -128q2 -5 -3 -8.5t-29 -3.5h-9q-18 0 -26 2.5t-11 6.5l-94 128q-4 5 4 9.5t36 4.5h13z" />
    <glyph glyph-name="a" unicode="a" horiz-adv-x="567" 
d="M453 528q28 0 33.5 -3t5.5 -9q0 -18 -1 -61t-1 -91v-140q0 -69 2 -120l5 -92q0 -6 -6.5 -9t-29.5 -3h-4q-23 0 -30 2.5t-8 9.5l-6 46q-24 -29 -64.5 -48.5t-89.5 -19.5q-55 0 -95 21t-66.5 57.5t-39.5 84.5t-13 102q0 64 17.5 116.5t48 89.5t72.5 57t92 20
q45 0 79.5 -18.5t55.5 -45.5l5 42q1 9 7 10.5t29 1.5h2zM400 389q-17 27 -48.5 47.5t-66.5 20.5q-69 0 -107.5 -53t-38.5 -144q0 -35 7 -69t22.5 -61t41.5 -43.5t65 -16.5q25 0 52.5 8.5t47.5 30.5q8 9 13 19t7.5 26t3.5 38t1 55v142z" />
    <glyph glyph-name="b" unicode="b" horiz-adv-x="560" 
d="M164 85q19 -8 42 -12.5t45 -4.5q43 0 75 15t53 41.5t31.5 64t10.5 82.5q0 182 -128 182q-28 0 -55 -10t-44 -27q-9 -9 -16.5 -24.5t-10.5 -47.5q-2 -21 -2.5 -56t-0.5 -79v-124zM123 760q30 0 35.5 -3.5t5.5 -8.5v-269q22 26 63 42.5t86 16.5q60 0 104 -29.5t68 -80.5
q14 -31 22 -69t8 -81q0 -66 -16 -119.5t-48.5 -91t-80.5 -57.5t-111 -20q-58 0 -102.5 9.5t-79.5 25.5q-2 1 -2.5 4t-0.5 6v713q0 6 6.5 9t36.5 3h6z" />
    <glyph glyph-name="c" unicode="c" horiz-adv-x="487" 
d="M444 70q8 -18 6.5 -25t-6.5 -10q-38 -21 -80.5 -33t-89.5 -12q-57 0 -100 20.5t-71.5 56.5t-43 84.5t-14.5 104.5q0 69 19 121.5t52 88t78 54t97 18.5q48 0 88.5 -14.5t72.5 -37.5q6 -5 6 -12q0 -8 -12 -34q-6 -13 -10.5 -19t-8.5 -8.5t-7 -1.5t-6 3q-28 19 -58 30.5
t-60 11.5q-70 0 -113.5 -50t-43.5 -144q0 -36 8 -70t25 -61t45 -43t69 -16q32 0 65 8.5t62 22.5q6 3 13 -0.5t13 -19.5z" />
    <glyph glyph-name="d" unicode="d" horiz-adv-x="580" 
d="M450 760q24 0 32.5 -2.5t8.5 -10.5v-622q0 -19 1.5 -29.5t5.5 -16t11 -7t17 -1.5q5 0 7 -5.5t2 -21.5v-7q0 -18 -2 -24.5t-7 -8.5q-11 -4 -21 -5t-23 -1q-23 0 -41.5 14.5t-27.5 43.5h-1q-19 -26 -59 -46t-94 -20q-100 0 -157 69.5t-57 193.5q0 56 15 107.5t45 91
t75.5 63t107.5 23.5q31 0 62.5 -10t50.5 -23v242q0 8 8.5 10.5t34.5 2.5h6zM401 419q-19 16 -48.5 26.5t-59.5 10.5q-71 0 -112.5 -54.5t-41.5 -145.5q0 -46 10.5 -81t29 -58t44 -35t54.5 -12q26 0 52 8.5t43 25.5t23 47t6 93v175z" />
    <glyph glyph-name="e" unicode="e" horiz-adv-x="544" 
d="M139 232q2 -42 14.5 -73t35.5 -51q40 -36 118 -36q62 0 132 32q7 3 12 1.5t13 -20.5l5 -12q8 -20 8 -26.5t-6 -10.5q-78 -46 -181 -46q-122 0 -183.5 70.5t-61.5 191.5q0 63 16.5 115.5t48 90.5t75.5 59t100 21q67 0 112.5 -30t70.5 -80q17 -35 25 -75t8 -85
q0 -23 -2 -29.5t-8 -6.5h-352zM409 306q0 28 -7.5 55t-22.5 48t-38.5 34t-54.5 13q-55 0 -94 -36t-50 -114h267z" />
    <glyph glyph-name="f" unicode="f" horiz-adv-x="333" 
d="M102 528v24q0 106 44.5 162t137.5 56q53 0 101 -22q5 -2 5 -8.5t-5 -26.5l-1 -4q-5 -19 -8.5 -25t-9.5 -4q-19 7 -39 11t-40 4q-57 0 -76 -37.5t-19 -104.5v-25h116q5 0 7 -6t2 -26v-8q0 -20 -2 -25.5t-7 -5.5h-116v-445q0 -5 -5.5 -8.5t-35.5 -3.5h-6q-30 0 -36.5 3
t-6.5 9v445h-63q-5 0 -7 5.5t-2 25.5v8q0 20 2 26t7 6h63z" />
    <glyph glyph-name="g" unicode="g" horiz-adv-x="565" 
d="M404 284q0 50 -3 74.5t-12 41.5q-12 23 -38.5 38.5t-69.5 15.5q-66 0 -104 -52t-38 -140t34 -134.5t103 -46.5q38 0 73 16.5t55 42.5v144zM448 528q24 0 31.5 -2.5t8.5 -10.5q1 -18 2.5 -51t1.5 -70l2 -70v-57v-166q0 -66 -4 -109.5t-15 -78.5q-11 -36 -32.5 -63t-51 -46
t-64.5 -28.5t-73 -9.5q-19 0 -40.5 2t-42 6t-38.5 10t-30 13q-5 2 -5 10t6 25l4 12q6 18 9.5 23t7.5 5t11 -3t13 -5q22 -8 44.5 -12.5t50.5 -4.5q64 0 103 27.5t51 86.5q4 20 5 48t1 48q-27 -29 -67.5 -43t-78.5 -14q-54 0 -94 19.5t-66.5 54t-39.5 82t-13 102.5
q0 65 17.5 117t48.5 88t72.5 55.5t89.5 19.5q43 0 77.5 -17t52.5 -47h1v41q0 7 7.5 10t33.5 3h3z" />
    <glyph glyph-name="h" unicode="h" horiz-adv-x="584" 
d="M123 760q30 0 36.5 -3t6.5 -9v-274q26 29 70.5 46.5t89.5 17.5q42 0 77 -13.5t60 -39.5q27 -28 39 -68.5t12 -101.5v-303q0 -5 -5.5 -8.5t-35.5 -3.5h-6q-30 0 -36.5 3t-6.5 9v261q0 61 -4.5 93.5t-22.5 53.5q-27 33 -95 33q-28 0 -58 -9.5t-48 -26.5q-9 -8 -16.5 -23.5
t-10.5 -47.5q-2 -21 -2.5 -57t-0.5 -80v-197q0 -5 -5.5 -8.5t-35.5 -3.5h-6q-30 0 -36.5 3t-6.5 9v736q0 5 5.5 8.5t35.5 3.5h6z" />
    <glyph glyph-name="i" unicode="i" horiz-adv-x="240" 
d="M124 528q30 0 35.5 -3.5t5.5 -8.5v-504q0 -5 -5.5 -8.5t-35.5 -3.5h-6q-30 0 -36.5 3t-6.5 9v504q0 6 6.5 9t36.5 3h6zM57 690q0 26 18.5 44.5t44.5 18.5t44.5 -18.5t18.5 -44.5t-18.5 -44.5t-44.5 -18.5t-44.5 18.5t-18.5 44.5z" />
    <glyph glyph-name="j" unicode="j" horiz-adv-x="253" 
d="M137 528q30 0 35.5 -3.5t5.5 -8.5v-513q0 -65 -13 -110t-37 -73t-58.5 -41t-76.5 -13q-17 0 -38.5 4t-32.5 11q-6 3 -6 10q0 6 3 20l3 15q3 15 7 20t12 3q11 -2 23 -4.5t23 -2.5q54 0 77.5 36.5t23.5 122.5v515q0 6 6.5 9t36.5 3h6zM70 690q0 26 18.5 44.5t44.5 18.5
t44.5 -18.5t18.5 -44.5t-18.5 -44.5t-44.5 -18.5t-44.5 18.5t-18.5 44.5z" />
    <glyph glyph-name="k" unicode="k" horiz-adv-x="492" 
d="M125 760q30 0 35.5 -3.5t5.5 -8.5v-436l61 57l37 35q16 17 31 34l31 36q15 19 33 43q5 6 12.5 8.5t35.5 2.5q27 0 37 -4t6 -11q-8 -14 -23 -35t-37 -47t-49 -55t-57 -58l187 -304q1 -2 1 -3q0 -3 -4 -7q-7 -4 -36 -4h-7q-29 0 -39 2.5t-14 8.5l-155 251l-51 -45v-205
q0 -5 -5.5 -8.5t-35.5 -3.5h-6q-30 0 -36.5 3t-6.5 9v736q0 6 6.5 9t36.5 3h6z" />
    <glyph glyph-name="l" unicode="l" horiz-adv-x="256" 
d="M115 760q24 0 31.5 -2.5t9.5 -10.5q2 -11 3 -37.5t2 -65.5t1 -88v-105v-332q0 -28 6.5 -39t31.5 -11h10q4 0 5 -5t1 -22v-3q0 -20 -0.5 -25t-5.5 -7q-22 -8 -47 -8q-21 0 -40.5 7t-33.5 27q-10 14 -13.5 39.5t-3.5 65.5v335v81q0 43 -1 81t-2 67q0 11 -1.5 26t-1.5 21
t8 9q9 2 35 2h6z" />
    <glyph glyph-name="m" unicode="m" horiz-adv-x="910" 
d="M118 528q27 0 34 -2.5t7 -9.5l1 -45h1q26 31 67 49t88 18q84 0 135 -53q7 -8 12.5 -15.5t10.5 -16.5q30 42 78 63.5t102 21.5q84 0 135 -53q27 -28 39 -68.5t12 -101.5v-303q0 -5 -5.5 -8.5t-35.5 -3.5h-6q-30 0 -36.5 3t-6.5 9v261q0 61 -4.5 93.5t-22.5 53.5
q-14 17 -38 25t-53 8q-26 0 -54.5 -9t-45.5 -26q-9 -8 -16.5 -23.5t-10.5 -47.5q-2 -21 -2.5 -57t-0.5 -80v-198q0 -5 -5.5 -8.5t-35.5 -3.5h-6q-30 0 -36.5 3t-6.5 9v261q0 61 -4.5 93.5t-22.5 53.5q-14 17 -38 25t-53 8q-26 0 -54.5 -9t-45.5 -26q-9 -8 -16.5 -23.5
t-10.5 -47.5q-2 -21 -2.5 -57t-0.5 -80v-198q0 -5 -5.5 -8.5t-35.5 -3.5h-6q-30 0 -36.5 3t-6.5 9v341q0 25 -0.5 50.5t-0.5 47t-0.5 39t-0.5 26.5q0 6 6 9t35 3h5z" />
    <glyph glyph-name="n" unicode="n" horiz-adv-x="585" 
d="M122 528q27 0 34 -2.5t7 -9.5l1 -45h1q13 15 31.5 27.5t40 21.5t45 13.5t46.5 4.5q42 0 77 -13.5t60 -39.5q27 -28 39 -68.5t12 -101.5v-303q0 -5 -5.5 -8.5t-35.5 -3.5h-6q-30 0 -36.5 3t-6.5 9v261q0 61 -4.5 93.5t-22.5 53.5q-27 33 -95 33q-28 0 -58 -9.5t-48 -26.5
q-9 -8 -16.5 -23.5t-10.5 -47.5q-2 -21 -2.5 -57t-0.5 -80v-197q0 -5 -5.5 -8.5t-35.5 -3.5h-6q-30 0 -36.5 3t-6.5 9v341q0 25 -0.5 50.5t-0.5 47t-0.5 39t-0.5 26.5q0 6 6 9t35 3h5z" />
    <glyph glyph-name="o" unicode="o" horiz-adv-x="568" 
d="M294 538q94 0 150 -50q38 -33 58.5 -87t20.5 -125t-18 -124.5t-50.5 -89.5t-78.5 -54t-102 -18q-94 0 -150 50q-38 33 -58.5 87t-20.5 125t18 124.5t50.5 89.5t78.5 54t102 18zM290 458q-30 0 -57.5 -11t-48 -35t-33 -61.5t-12.5 -91.5q0 -34 6.5 -67.5t22 -60.5
t42.5 -44t68 -17q30 0 57.5 11t48 35t33 61.5t12.5 91.5q0 34 -6.5 67.5t-22 60.5t-42.5 44t-68 17z" />
    <glyph glyph-name="p" unicode="p" horiz-adv-x="565" 
d="M120 528q27 0 34.5 -2.5t7.5 -9.5l1 -45h-1q23 29 63.5 48t81.5 19q100 0 156.5 -69.5t56.5 -193.5q0 -56 -15 -107.5t-45 -90.5t-76 -62.5t-108 -23.5q-29 0 -59.5 9t-49.5 22v-241q0 -8 -8.5 -10.5t-34.5 -2.5h-6q-24 0 -32.5 2.5t-8.5 10.5v572q0 25 -0.5 50.5
t-0.5 47t-0.5 39t-0.5 26.5q0 6 6 9t35 3h4zM167 110q19 -16 46.5 -27t57.5 -11q71 0 113 54.5t42 145.5t-37.5 138t-96.5 47q-30 0 -60.5 -12t-45.5 -32q-7 -9 -10.5 -19t-5.5 -26.5t-2.5 -41t-0.5 -61.5v-155z" />
    <glyph glyph-name="q" unicode="q" horiz-adv-x="565" 
d="M489 64v-82q0 -42 1 -80t2 -68q0 -10 1.5 -25t1.5 -21t-8 -8q-9 -3 -35 -3h-6q-24 0 -31.5 2.5t-9.5 10.5q-2 10 -3 33.5t-2 57.5t-1 77v91q-23 -26 -62.5 -42.5t-87.5 -16.5q-51 0 -89.5 20.5t-64 56t-38 82.5t-12.5 101q0 66 18.5 119.5t53 91t83 57.5t108.5 20
q54 0 98.5 -9.5t79.5 -25.5q3 -2 3 -10v-429zM399 443q-19 8 -42 12.5t-45 4.5q-42 0 -74.5 -14.5t-54 -41.5t-33 -64.5t-11.5 -82.5q0 -183 131 -183q27 0 52.5 8t42.5 25q10 10 17 23.5t10.5 35.5t5 54.5t1.5 79.5v143z" />
    <glyph glyph-name="r" unicode="r" horiz-adv-x="359" 
d="M121 528q27 0 34 -2.5t7 -9.5l2 -103q29 63 67.5 92t78.5 29q11 0 21 -2q7 -2 8.5 -6.5t1.5 -21.5v-15q0 -22 -1.5 -29.5t-9.5 -7.5q-27 0 -47.5 -7.5t-36.5 -20.5t-28.5 -29t-23.5 -34q-21 -35 -24 -86q-2 -21 -2.5 -62.5t-0.5 -85.5v-115q0 -5 -5.5 -8.5t-35.5 -3.5h-6
q-30 0 -36.5 3t-6.5 9v341q0 25 -0.5 50.5t-0.5 47t-0.5 39t-0.5 26.5q0 6 6 9t35 3h5z" />
    <glyph glyph-name="s" unicode="s" horiz-adv-x="458" 
d="M387 437q-7 -10 -11.5 -15t-7.5 -7t-5.5 -1t-5.5 3q-28 20 -55.5 32t-60.5 12q-15 0 -32.5 -3.5t-32.5 -11.5t-25 -21.5t-10 -34.5q0 -20 9.5 -33.5t24.5 -22.5t33.5 -14.5t36.5 -9.5q31 -8 61 -18.5t54 -28t39 -43.5t15 -65q0 -40 -16 -71t-43 -52t-63.5 -31.5
t-77.5 -10.5q-48 0 -91.5 15t-72.5 35q-6 4 -6 9t10 27l5 11q10 21 15 24t15 -3q29 -17 63 -28.5t67 -11.5q17 0 36.5 4.5t36 14t27 25t10.5 37.5q0 20 -11 34t-27.5 23.5t-37 15.5t-39.5 10q-40 9 -69.5 20.5t-49.5 30.5q-19 17 -29.5 42.5t-10.5 54.5q0 37 15 66t40 49.5
t58.5 31.5t71.5 11q48 0 89 -15t69 -40q6 -5 6.5 -13t-10.5 -23z" />
    <glyph glyph-name="t" unicode="t" horiz-adv-x="368" 
d="M146 676q30 0 35.5 -3.5t5.5 -8.5v-136h126q5 0 7 -5.5t2 -25.5v-8q0 -20 -2 -26t-7 -6h-126v-295q0 -29 3 -47.5t13 -29.5q16 -18 51 -18q17 0 35 4t33 9q8 2 11 -2t7 -18l3 -13q4 -14 4 -21t-7 -11q-19 -12 -48 -18.5t-57 -6.5q-65 0 -100 33q-22 20 -30 50.5t-8 81.5
v302h-63q-5 0 -7 6t-2 26v8q0 20 2 25.5t7 5.5h63v136q0 6 6.5 9t36.5 3h6z" />
    <glyph glyph-name="u" unicode="u" horiz-adv-x="581" 
d="M117 528q29 0 35.5 -3t6.5 -9v-262q0 -59 4 -93t21 -54q28 -34 89 -34q29 0 60 9.5t49 26.5q8 7 14 17.5t10 28.5t6 45.5t2 68.5v247q0 5 7 8.5t33 3.5h9q26 0 33.5 -3t7.5 -9v-341q0 -26 0.5 -51t0.5 -46.5t0.5 -39t0.5 -26.5q0 -6 -6 -9t-35 -3h-4q-26 0 -33.5 3
t-7.5 9l-2 43h-1q-28 -31 -69 -48t-97 -17q-83 0 -133 53q-26 28 -37.5 68.5t-11.5 101.5v303q0 3 1 5t5 3.5t12 2.5t22 1h8z" />
    <glyph glyph-name="v" unicode="v" horiz-adv-x="493" 
d="M255 102h1q37 100 71 205t57 211q1 6 7 8t35 2q30 0 38 -2q7 -2 7 -10q0 -3 -1 -7q-35 -144 -80.5 -273t-88.5 -224q-4 -8 -13.5 -10t-39.5 -2q-29 0 -38.5 2t-12.5 10l-183 502q-1 2 -1 4q0 6 7 8q10 2 38 2q27 0 39 -2.5t14 -8.5z" />
    <glyph glyph-name="w" unicode="w" horiz-adv-x="777" 
d="M228 104l106 410q2 8 10 11t35 3h21q24 0 31.5 -3t9.5 -11l110 -411q33 104 61 203.5t47 209.5q1 6 8.5 9t36.5 3q27 0 36 -3q6 -2 6 -10q0 -3 -1 -7q-17 -77 -34.5 -144t-35.5 -127t-37 -115l-37 -107q-3 -8 -14 -11.5t-35 -3.5h-15q-23 0 -33.5 3t-12.5 11l-63 235
q-11 42 -22.5 90.5t-19.5 89.5q-8 -39 -19.5 -87.5t-23.5 -93.5l-62 -235q-2 -8 -12 -10.5t-37 -2.5h-9q-31 0 -41 2.5t-12 10.5l-149 501q-2 9 6.5 11.5t33.5 2.5q31 0 41.5 -2.5t12.5 -8.5z" />
    <glyph glyph-name="x" unicode="x" horiz-adv-x="519" 
d="M262 352l99 165q4 7 16 9t39 2q29 0 39 -3t5 -11l-150 -232l176 -270q2 -2 2 -4q0 -4 -8 -6q-10 -2 -41 -2q-17 0 -27 0.5t-16 1.5t-9 3.5t-6 5.5l-124 196l-120 -196q-5 -6 -16.5 -8.5t-38.5 -2.5q-29 0 -39 3q-7 2 -7 6q0 2 2 5l171 261l-153 241q-5 7 5 9.5t41 2.5
q34 0 44 -2t15 -9z" />
    <glyph glyph-name="y" unicode="y" horiz-adv-x="507" 
d="M210 268q20 -54 32 -92t23 -79q8 35 22 77l29 87l89 256q2 7 12 9t33 2q29 0 39 -3q8 -2 8 -8q0 -1 -1 -3l-189 -526q-40 -112 -85 -160q-31 -33 -68 -47t-81 -14q-20 0 -42 5t-38 13q-8 5 -8 11.5t5 20.5l4 12q6 18 10 22.5t12 2.5q14 -4 26.5 -6.5t27.5 -2.5
q25 0 45 7.5t37.5 24.5t33 46t31.5 71l-199 520q-4 9 6.5 11.5t40.5 2.5q27 0 38 -2.5t13 -8.5z" />
    <glyph glyph-name="z" unicode="z" horiz-adv-x="455" 
d="M402 528q5 0 7 -6t2 -22v-7q0 -14 -1.5 -20.5t-6.5 -13.5l-249 -382h254q5 0 7 -6t2 -26v-14q0 -20 -2 -25.5t-7 -5.5h-359q-5 0 -7 6t-2 22v9q0 12 1.5 18t6.5 14l249 382h-236q-5 0 -7 6t-2 26v14q0 20 2 25.5t7 5.5h341z" />
    <glyph glyph-name="braceleft" unicode="{" horiz-adv-x="326" 
d="M300 753q9 0 9 -32v-6q0 -35 -9 -35h-23q-40 0 -58 -27.5t-18 -68.5v-114q0 -18 -2.5 -43t-9.5 -48t-21 -40t-36 -20q22 -4 36 -20t21 -37t9.5 -44t2.5 -41v-130q0 -45 18.5 -75.5t58.5 -30.5h25q9 0 9 -32v-6q0 -35 -9 -35h-29q-72 0 -117 44t-45 125v131q0 19 -3 39
t-10.5 36t-20 27t-32.5 13q-5 1 -6 10t-1 24v6q0 30 7 31q18 2 30.5 12t20.5 25t11.5 32t3.5 34v118q0 43 12 76t33.5 55.5t50.5 34.5t63 12h29z" />
    <glyph glyph-name="bar" unicode="|" horiz-adv-x="278" 
d="M145 817q21 0 29 -3t8 -9v-1066q0 -6 -7.5 -9t-27.5 -3h-13q-21 0 -29.5 3t-8.5 9v1066q0 6 8 9t28 3h13z" />
    <glyph glyph-name="braceright" unicode="}" horiz-adv-x="326" 
d="M56 753q34 0 63 -11t50.5 -32t33.5 -52t12 -71v-119q0 -19 3.5 -38.5t11.5 -35.5t20.5 -27t30.5 -13q7 -1 7 -30v-8q0 -32 -7 -33q-20 -2 -32.5 -12t-20 -25t-10.5 -33t-3 -37v-131q0 -85 -45 -131t-117 -46h-29q-9 0 -9 35v6q0 32 9 32h25q40 0 58.5 29t18.5 71v128
q0 19 2.5 43t9.5 46.5t20.5 39t36.5 21.5q-23 3 -36.5 19t-20.5 37.5t-9.5 45t-2.5 40.5v119q0 43 -18 71.5t-58 28.5h-23q-9 0 -9 35v6q0 32 9 32h29z" />
    <glyph glyph-name="asciitilde" unicode="~" 
d="M43 313q-18 5 -22.5 8.5t-3.5 8.5q11 69 53.5 101.5t104.5 32.5q37 0 67 -14.5t57 -31.5t54 -31.5t57 -14.5t48 17.5t23 47.5q1 10 32 5l12 -2q18 -3 23.5 -6.5t4.5 -8.5q-5 -36 -19.5 -60.5t-35.5 -39.5t-47 -21.5t-54 -6.5q-43 0 -73 14t-54.5 31.5t-48.5 31.5t-54 14
q-32 0 -53 -19.5t-26 -55.5q-1 -9 -31 -3z" />
    <glyph glyph-name="uni00A0" unicode="&#xa0;" horiz-adv-x="250" 
 />
    <glyph glyph-name="exclamdown" unicode="&#xa1;" horiz-adv-x="293" 
d="M152 330q34 0 34 -9l18 -500q0 -13 -48 -13h-14q-26 0 -37.5 3t-11.5 10l16 500q0 9 32 9h11zM83 475q0 26 19 44.5t45 18.5t44.5 -18.5t18.5 -44.5t-18.5 -45t-44.5 -19t-45 19t-19 45z" />
    <glyph glyph-name="cent" unicode="&#xa2;" 
d="M335 720q19 0 26 -2.5t7 -8.5v-90q38 -5 68.5 -18.5t56.5 -31.5q6 -5 5.5 -13t-11.5 -33q-6 -13 -10.5 -19t-8.5 -8.5t-7 -1.5t-6 3q-28 20 -55 31t-63 11q-70 0 -113.5 -46.5t-43.5 -133.5q0 -33 8 -65t25 -56.5t45 -39.5t69 -15q32 0 65.5 8.5t62.5 23.5q6 3 10.5 0
t12.5 -21l4 -10q8 -18 8 -25.5t-5 -12.5q-59 -34 -127 -43v-92q0 -11 -32 -11h-13q-19 0 -26 2.5t-7 8.5v92q-49 6 -85.5 27.5t-60.5 54.5t-36 76t-12 92q0 58 15.5 104.5t42.5 80t64.5 53.5t81.5 27v91q0 11 32 11h13z" />
    <glyph glyph-name="sterling" unicode="&#xa3;" 
d="M159 410v81q0 52 13 96t39.5 76t67 49.5t96.5 17.5q32 0 68.5 -10t68.5 -30q5 -3 3 -13.5t-7 -20.5l-4 -9q-5 -12 -12 -19t-13 -4q-29 16 -51 21.5t-45 5.5q-37 0 -62 -11t-40 -31t-21 -48.5t-6 -62.5v-88h193q9 0 9 -29v-12q0 -17 -2 -23.5t-7 -6.5h-193v-79
q0 -65 -15 -108.5t-55 -71.5h333q9 0 9 -33v-13q0 -34 -9 -34h-435q-9 0 -9 34v11q0 17 2.5 25t7.5 11q38 26 57 69t19 94v95h-77q-5 0 -7 6.5t-2 23.5v12q0 29 9 29h77z" />
    <glyph glyph-name="currency" unicode="&#xa4;" 
d="M467 368q0 -98 -46 -155l69 -120q3 -5 -2.5 -8.5t-31.5 -3.5h-17q-20 0 -26.5 2t-11.5 10l-43 73q-36 -15 -81 -15q-40 0 -73 14l-43 -72q-5 -8 -11.5 -10t-26.5 -2h-17q-26 0 -31.5 3.5t-2.5 8.5l70 121q-39 52 -39 137q0 98 46 155l-69 120q-3 5 2.5 8.5t31.5 3.5h17
q20 0 26.5 -2t11.5 -10l43 -73q36 15 81 15q40 0 73 -14l43 72q5 8 11.5 10t26.5 2h17q26 0 31.5 -3.5t2.5 -8.5l-70 -121q39 -53 39 -137zM384 363q0 23 -4 46.5t-14.5 42t-29 30t-46.5 11.5q-21 0 -40 -7.5t-33 -24t-22.5 -42.5t-8.5 -63q0 -23 4 -46.5t14.5 -42t29 -30
t46.5 -11.5q21 0 40 7.5t33 24t22.5 42.5t8.5 63z" />
    <glyph glyph-name="yen" unicode="&#xa5;" 
d="M107 720q20 0 33 -2.5t15 -8.5l136 -338l133 338q2 6 14.5 8.5t31.5 2.5h10q20 0 32.5 -3t9.5 -9l-141 -319h101q9 0 9 -27v-9q0 -28 -9 -28h-130l-20 -46v-34h150q9 0 9 -27v-9q0 -28 -9 -28h-150v-170q0 -11 -43 -11h-11q-41 0 -41 11v170h-139q-9 0 -9 28v9q0 27 9 27
h139v34l-20 46h-119q-9 0 -9 28v9q0 27 9 27h91l-140 319q-3 7 10 9.5t34 2.5h14z" />
    <glyph glyph-name="brokenbar" unicode="&#xa6;" horiz-adv-x="272" 
d="M142 766q21 0 29 -2.5t8 -8.5v-379q0 -6 -7.5 -8.5t-27.5 -2.5h-13q-21 0 -29.5 2.5t-8.5 8.5v379q0 6 8 8.5t28 2.5h13zM142 179q21 0 29 -2.5t8 -8.5v-379q0 -6 -7.5 -8.5t-27.5 -2.5h-13q-21 0 -29.5 2.5t-8.5 8.5v379q0 6 8 8.5t28 2.5h13z" />
    <glyph glyph-name="section" unicode="&#xa7;" horiz-adv-x="497" 
d="M420 644q-12 -20 -18 -22.5t-12 1.5q-28 15 -56.5 24.5t-66.5 9.5q-17 0 -34 -3.5t-31.5 -12t-23.5 -22.5t-9 -35q0 -20 10 -33.5t26 -23t36 -15.5t39 -10q34 -8 67.5 -18.5t59.5 -28.5t42 -46t16 -70q0 -47 -20 -82.5t-53 -56.5q11 -14 17.5 -32t6.5 -43
q0 -40 -15 -70.5t-42 -51.5t-63 -32t-78 -11q-52 0 -96.5 10.5t-74.5 27.5q-8 5 -5.5 15.5t8.5 21.5l5 10q6 12 12 18t16 2q29 -12 66.5 -21t70.5 -9q19 0 38.5 4.5t35.5 14t26.5 25t10.5 38.5q0 21 -11.5 35t-29.5 23.5t-39.5 15.5t-42.5 11q-34 7 -65.5 18t-56 29
t-39.5 44.5t-15 64.5t18.5 74t62.5 62q-17 14 -23.5 34.5t-6.5 43.5q0 38 14 67.5t39 49.5t58 30.5t72 10.5q48 0 90.5 -11.5t71.5 -31.5q6 -4 5.5 -12t-9.5 -24zM163 455q-21 -17 -33.5 -39.5t-12.5 -45.5q0 -22 10.5 -37t26.5 -25.5t36 -17.5t39 -11q28 -7 56 -15.5
t52 -20.5q20 16 32 38.5t12 50.5q0 22 -11.5 38t-29 26.5t-39.5 17t-43 11.5q-25 5 -49.5 12t-45.5 18z" />
    <glyph glyph-name="dieresis" unicode="&#xa8;" horiz-adv-x="350" 
d="M1 655q0 24 16.5 40.5t40.5 16.5t40.5 -16.5t16.5 -40.5t-16.5 -40.5t-40.5 -16.5t-40.5 16.5t-16.5 40.5zM234 655q0 24 16.5 40.5t40.5 16.5t40.5 -16.5t16.5 -40.5t-16.5 -40.5t-40.5 -16.5t-40.5 16.5t-16.5 40.5z" />
    <glyph glyph-name="copyright" unicode="&#xa9;" horiz-adv-x="805" 
d="M405 730q76 0 142 -29t114.5 -79t76 -117.5t27.5 -144.5t-28 -144.5t-77 -117.5t-114.5 -79t-141.5 -29t-142.5 29t-115.5 79t-77.5 117.5t-28.5 144.5t28 144.5t77.5 117.5t116 79t143.5 29zM405 668q-61 0 -113.5 -24t-91.5 -65.5t-61.5 -97.5t-22.5 -121t22 -121
t60.5 -97.5t91 -65.5t113.5 -24t113.5 23.5t91.5 65t61 97.5t22 122q0 65 -22 121t-60.5 97.5t-90.5 65.5t-113 24zM519 507q-4 -9 -10 -16.5t-13 -4.5q-17 8 -34 12.5t-34 4.5q-49 0 -82.5 -35t-33.5 -107q0 -25 5 -49.5t18 -43.5t35.5 -31t56.5 -12q31 0 64 14q7 3 12 -2
t9 -14l6 -14q5 -11 4.5 -20t-4.5 -11q-47 -24 -105 -24q-45 0 -79 15.5t-57 43t-34.5 65t-11.5 81.5q0 40 10.5 78t34 68t60 48t88.5 18q28 0 52 -5.5t49 -19.5q8 -4 -2 -29z" />
    <glyph glyph-name="ordfeminine" unicode="&#xaa;" horiz-adv-x="424" 
d="M334 724q17 0 22.5 -2t5.5 -6q0 -12 -0.5 -40.5t-0.5 -60.5v-92q0 -45 1.5 -79t3.5 -61q0 -4 -7 -6t-34 -2h-3q-22 0 -25.5 2t-4.5 6l-3 23q-17 -17 -43.5 -27t-55.5 -10q-37 0 -64 14t-45 38t-26.5 55.5t-8.5 66.5q0 42 11.5 76.5t32.5 59t49 38t61 13.5
q31 0 53.5 -10.5t37.5 -27.5l2 22q1 5 7.5 7.5t17.5 2.5h16zM283 628q-11 14 -29.5 25t-39.5 11q-42 0 -65 -31.5t-23 -85.5q0 -21 4 -41t13.5 -35.5t24.5 -25.5t38 -10q14 0 31.5 3.5t28.5 17.5q17 21 17 79v93z" />
    <glyph glyph-name="guillemotleft" unicode="&#xab;" horiz-adv-x="511" 
d="M224 515q30 -12 24 -21l-116 -188l120 -194q6 -9 -22 -23l-8 -4q-29 -15 -37 -4l-132 191q-3 5 -5 10.5t-2 15.5v9q0 11 2 15.5t5 9.5l129 188q6 8 34 -2zM432 515q30 -12 24 -21l-116 -188l120 -194q6 -9 -22 -23l-8 -4q-29 -15 -37 -4l-132 191q-3 5 -5 10.5t-2 15.5v9
q0 11 2 15.5t5 9.5l129 188q6 8 34 -2z" />
    <glyph glyph-name="logicalnot" unicode="&#xac;" 
d="M535 445v-220q0 -5 -6.5 -7.5t-23.5 -2.5h-15q-17 0 -24 2.5t-7 7.5v152h-419q-5 0 -7 6.5t-2 23.5v9q0 29 9 29h495z" />
    <glyph glyph-name="uni00AD" unicode="&#xad;" horiz-adv-x="378" 
d="M326 339q9 0 9 -31v-9q0 -32 -9 -32h-274q-9 0 -9 32v9q0 31 9 31h274z" />
    <glyph glyph-name="registered" unicode="&#xae;" horiz-adv-x="805" 
d="M405 730q76 0 142 -29t114.5 -79t76 -117.5t27.5 -144.5t-28 -144.5t-77 -117.5t-114.5 -79t-141.5 -29t-142.5 29t-115.5 79t-77.5 117.5t-28.5 144.5t28 144.5t77.5 117.5t116 79t143.5 29zM405 668q-61 0 -113.5 -24t-91.5 -65.5t-61.5 -97.5t-22.5 -121t22 -121
t60.5 -97.5t91 -65.5t113.5 -24t113.5 23.5t91.5 65t61 97.5t22 122q0 65 -22 121t-60.5 97.5t-90.5 65.5t-113 24zM395 563q37 0 67 -6t51 -19.5t32.5 -35.5t11.5 -55q0 -91 -82 -124l24 -42q14 -25 32 -51.5t40 -55.5q4 -5 -4.5 -8t-23.5 -3h-23q-18 0 -25 3t-10 7
q-32 40 -54 81l-35 61h-52v-143q0 -3 -6 -6t-17 -3h-32q-11 0 -17.5 3t-6.5 6v391h130zM344 377h58q42 0 60 18t18 46q0 18 -8 29.5t-20.5 17.5t-28 8t-30.5 2h-49v-121z" />
    <glyph glyph-name="macron" unicode="&#xaf;" horiz-adv-x="350" 
d="M312 693q10 0 10 -29v-12q0 -32 -10 -32h-275q-10 0 -10 32v12q0 29 10 29h275z" />
    <glyph glyph-name="degree" unicode="&#xb0;" horiz-adv-x="353" 
d="M179 668q-35 0 -55.5 -21.5t-20.5 -60.5q0 -79 71 -79q35 0 55 21.5t20 61.5q0 38 -17.5 58t-52.5 20zM31 584q0 67 40.5 106.5t108.5 39.5q63 0 102.5 -34.5t39.5 -104.5q0 -67 -40.5 -106.5t-108.5 -39.5q-63 0 -102.5 35t-39.5 104z" />
    <glyph glyph-name="plusminus" unicode="&#xb1;" 
d="M517 68q9 0 9 -29v-9q0 -17 -2 -23.5t-7 -6.5h-464q-5 0 -7 6.5t-2 23.5v9q0 29 9 29h464zM247 478v195q0 5 7 7.5t24 2.5h15q17 0 23.5 -2.5t6.5 -7.5v-195h194q9 0 9 -29v-9q0 -17 -2 -23.5t-7 -6.5h-194v-197q0 -5 -6.5 -7.5t-23.5 -2.5h-15q-17 0 -24 2.5t-7 7.5v197
h-194q-5 0 -7 6.5t-2 23.5v9q0 29 9 29h194z" />
    <glyph glyph-name="uni00B2" unicode="&#xb2;" horiz-adv-x="400" 
d="M71 724q-3 5 -2 12t4 9q47 32 118 32q27 0 50.5 -7.5t41 -21.5t27.5 -35.5t10 -48.5q0 -21 -5.5 -41t-17 -40t-30 -42.5t-44.5 -48.5l-50 -51h155q3 0 5.5 -5t2.5 -19v-17q0 -14 -2.5 -19t-5.5 -5h-254q-3 0 -5 4.5t-2 17.5v11q0 15 10 27l77 81l41 46q17 20 27.5 36.5
t15.5 31t5 28.5q0 30 -18.5 42t-48.5 12q-38 0 -75 -23q-2 -2 -7.5 0t-9.5 10z" />
    <glyph glyph-name="uni00B3" unicode="&#xb3;" horiz-adv-x="400" 
d="M80 722q-6 13 -5.5 18t3.5 7q22 16 51 23t60 7q30 0 55.5 -6.5t44.5 -19.5t30 -32.5t11 -44.5q0 -34 -18.5 -57.5t-49.5 -33.5q32 -5 57.5 -28.5t25.5 -68.5q0 -29 -13 -51t-35 -36.5t-51 -22t-62 -7.5q-28 0 -57 4t-53 15q-3 2 -4 7.5t5 19.5l6 14q6 14 10.5 16t6.5 1
q19 -8 39 -11t39 -3q42 0 66.5 15t24.5 42q0 17 -9 29t-24 19.5t-34.5 10.5t-40.5 3h-37q-3 0 -6 5t-3 19v13q0 14 3 18.5t6 4.5h36q39 0 67 12t28 41q0 28 -21 40t-50 12q-19 0 -39.5 -4.5t-39.5 -18.5q-2 -1 -6.5 1.5t-10.5 15.5z" />
    <glyph glyph-name="acute" unicode="&#xb4;" horiz-adv-x="350" 
d="M230 732q28 0 35.5 -4.5t2.5 -9.5l-93 -128q-2 -4 -10 -6.5t-26 -2.5h-8q-24 0 -28.5 3.5t-1.5 8.5l73 128q3 5 13 8t31 3h12z" />
    <glyph glyph-name="mu" unicode="&#xb5;" horiz-adv-x="595" 
d="M119 528q30 0 36.5 -3t6.5 -9v-261q0 -57 4 -91t21 -54q27 -35 91 -35q29 0 57 8.5t48 27.5q8 8 15.5 23.5t10.5 47.5q2 21 2.5 57t0.5 80v197q0 5 5.5 8.5t35.5 3.5h6q30 0 36.5 -3t6.5 -9v-391q0 -21 2 -32t6 -16t11 -5t18 -1q4 0 5 -5t1 -22v-5q0 -20 -0.5 -25
t-5.5 -7q-11 -4 -21.5 -6.5t-24.5 -2.5q-53 0 -72 65q-25 -32 -64 -52.5t-94 -20.5q-28 0 -53 7.5t-48 27.5v-52v-57q0 -30 1 -56.5t2 -47.5t3 -31q2 -8 -7.5 -10.5t-35.5 -2.5h-6q-24 0 -31.5 2.5t-9.5 10.5q-4 13 -5 62.5t-1 117.5v555q0 5 5.5 8.5t35.5 3.5h6z" />
    <glyph glyph-name="mu" unicode="&#x3bc;" horiz-adv-x="595" 
d="M119 528q30 0 36.5 -3t6.5 -9v-261q0 -57 4 -91t21 -54q27 -35 91 -35q29 0 57 8.5t48 27.5q8 8 15.5 23.5t10.5 47.5q2 21 2.5 57t0.5 80v197q0 5 5.5 8.5t35.5 3.5h6q30 0 36.5 -3t6.5 -9v-391q0 -21 2 -32t6 -16t11 -5t18 -1q4 0 5 -5t1 -22v-5q0 -20 -0.5 -25
t-5.5 -7q-11 -4 -21.5 -6.5t-24.5 -2.5q-53 0 -72 65q-25 -32 -64 -52.5t-94 -20.5q-28 0 -53 7.5t-48 27.5v-52v-57q0 -30 1 -56.5t2 -47.5t3 -31q2 -8 -7.5 -10.5t-35.5 -2.5h-6q-24 0 -31.5 2.5t-9.5 10.5q-4 13 -5 62.5t-1 117.5v555q0 5 5.5 8.5t35.5 3.5h6z" />
    <glyph glyph-name="paragraph" unicode="&#xb6;" horiz-adv-x="613" 
d="M566 720q5 0 7 -6t2 -26v-10q0 -20 -2 -25.5t-7 -5.5h-68v-774q0 -10 -38 -10h-9q-39 0 -39 10v775h-100v-775q0 -10 -38 -10h-9q-39 0 -39 10v434q-93 4 -145.5 59.5t-52.5 142.5q0 96 59 153.5t174 57.5h305z" />
    <glyph glyph-name="periodcentered" unicode="&#xb7;" horiz-adv-x="241" 
d="M124 429q29 0 48.5 -19.5t19.5 -48.5q0 -28 -19.5 -47.5t-48.5 -19.5q-28 0 -47.5 19.5t-19.5 47.5q0 29 19.5 48.5t47.5 19.5z" />
    <glyph glyph-name="cedilla" unicode="&#xb8;" horiz-adv-x="350" 
d="M169 17q12 0 16.5 -2t4.5 -6l-4 -50q6 1 10 1h7q38 0 64.5 -21t26.5 -63q0 -18 -7 -36t-21 -31.5t-36.5 -22t-53.5 -8.5q-21 0 -42 3.5t-34 8.5q-4 2 -5.5 7t1.5 16l4 16q5 21 14 18q13 -4 28 -6t26 -2q20 0 32.5 8t12.5 25t-12 23t-38 6q-14 0 -30.5 -0.5t-28.5 -2.5
l14 111q1 4 5 6t17 2h29z" />
    <glyph glyph-name="uni00B9" unicode="&#xb9;" horiz-adv-x="400" 
d="M173 760q8 5 16.5 7.5t21.5 2.5h19q16 0 21.5 -3t5.5 -6v-325h51q3 0 5.5 -5t2.5 -19v-12q0 -14 -2.5 -19t-5.5 -5h-188q-3 0 -5.5 5t-2.5 19v12q0 14 2.5 19t5.5 5h60v251l-75 -43q-9 -5 -21 16l-8 15q-5 8 -5.5 16t2.5 10z" />
    <glyph glyph-name="ordmasculine" unicode="&#xba;" horiz-adv-x="429" 
d="M220 730q33 0 60.5 -8t46.5 -25q26 -22 41 -57.5t15 -82.5q0 -94 -48 -141t-127 -47q-32 0 -59.5 8t-46.5 25q-26 22 -41 57.5t-15 82.5q0 94 48 141t126 47zM218 664q-18 0 -34.5 -6.5t-29.5 -20.5t-20.5 -36.5t-7.5 -54.5q0 -20 4 -40t13.5 -35.5t26 -25.5t41.5 -10
q18 0 34.5 6.5t29.5 20.5t20.5 36.5t7.5 54.5q0 20 -4 40t-14 35.5t-26 25.5t-41 10z" />
    <glyph glyph-name="guillemotright" unicode="&#xbb;" horiz-adv-x="511" 
d="M81 515q29 15 37 4l132 -186q3 -5 5 -10.5t2 -15.5v-9q0 -11 -2 -15.5t-5 -9.5l-129 -193q-6 -8 -34 2l-8 3q-30 12 -24 21l116 193l-120 189q-6 9 22 23zM289 515q29 15 37 4l132 -186q3 -5 5 -10.5t2 -15.5v-9q0 -11 -2 -15.5t-5 -9.5l-129 -193q-6 -8 -34 2l-8 3
q-30 12 -24 21l116 193l-120 189q-6 9 22 23z" />
    <glyph glyph-name="onequarter" unicode="&#xbc;" horiz-adv-x="900" 
d="M620 737q34 0 29 -11l-336 -734q-2 -5 -9.5 -7t-23.5 -2h-18q-34 0 -29 11l337 734q4 9 33 9h17zM171 710q8 5 16.5 7.5t21.5 2.5h19q16 0 21.5 -3t5.5 -6v-325h51q3 0 5.5 -5t2.5 -19v-12q0 -14 -2.5 -19t-5.5 -5h-188q-3 0 -5.5 5t-2.5 19v12q0 14 2.5 19t5.5 5h60v251
l-75 -43q-9 -5 -21 16l-8 15q-5 8 -5.5 16t2.5 10zM692 394q26 0 32.5 -2.5t3.5 -7.5l-121 -231h99v75q0 5 5.5 7.5t31.5 2.5h5q26 0 30.5 -2.5t4.5 -7.5v-75h37q3 0 5.5 -5t2.5 -19v-16q0 -14 -2.5 -19t-5.5 -5h-37v-79q0 -5 -4.5 -7.5t-30.5 -2.5h-5q-26 0 -31.5 2.5
t-5.5 7.5v79h-178q-3 0 -5 4.5t-2 17.5v22q0 11 4 20.5t9 17.5l112 213q3 6 10 8t28 2h8z" />
    <glyph glyph-name="onehalf" unicode="&#xbd;" horiz-adv-x="900" 
d="M620 737q34 0 29 -11l-336 -734q-2 -5 -9.5 -7t-23.5 -2h-18q-34 0 -29 11l337 734q4 9 33 9h17zM171 710q8 5 16.5 7.5t21.5 2.5h19q16 0 21.5 -3t5.5 -6v-325h51q3 0 5.5 -5t2.5 -19v-12q0 -14 -2.5 -19t-5.5 -5h-188q-3 0 -5.5 5t-2.5 19v12q0 14 2.5 19t5.5 5h60v251
l-75 -43q-9 -5 -21 16l-8 15q-5 8 -5.5 16t2.5 10zM555 348q-3 5 -2 12t4 9q47 32 118 32q27 0 50.5 -7.5t41 -21.5t27.5 -35.5t10 -48.5q0 -21 -5.5 -41t-17 -40t-30 -42.5t-44.5 -48.5l-50 -51h155q3 0 5.5 -5t2.5 -19v-17q0 -14 -2.5 -19t-5.5 -5h-254q-3 0 -5 4.5
t-2 17.5v11q0 15 10 27l77 81l41 46q17 20 27.5 36.5t15.5 31t5 28.5q0 30 -18.5 42t-48.5 12q-38 0 -75 -23q-2 -2 -7.5 0t-9.5 10z" />
    <glyph glyph-name="threequarters" unicode="&#xbe;" horiz-adv-x="900" 
d="M642 737q34 0 29 -11l-336 -734q-2 -5 -9.5 -7t-23.5 -2h-18q-34 0 -29 11l337 734q4 9 33 9h17zM73 672q-6 13 -5.5 18t3.5 7q22 16 51 23t60 7q30 0 55.5 -6.5t44.5 -19.5t30 -32.5t11 -44.5q0 -34 -18.5 -57.5t-49.5 -33.5q32 -5 57.5 -28.5t25.5 -68.5q0 -29 -13 -51
t-35 -36.5t-51 -22t-62 -7.5q-28 0 -57 4t-53 15q-3 2 -4 7.5t5 19.5l6 14q6 14 10.5 16t6.5 1q19 -8 39 -11t39 -3q42 0 66.5 15t24.5 42q0 17 -9 29t-24 19.5t-34.5 10.5t-40.5 3h-37q-3 0 -6 5t-3 19v13q0 14 3 18.5t6 4.5h36q39 0 67 12t28 41q0 28 -21 40t-50 12
q-19 0 -39.5 -4.5t-39.5 -18.5q-2 -1 -6.5 1.5t-10.5 15.5zM704 394q26 0 32.5 -2.5t3.5 -7.5l-121 -231h99v75q0 5 5.5 7.5t31.5 2.5h5q26 0 30.5 -2.5t4.5 -7.5v-75h37q3 0 5.5 -5t2.5 -19v-16q0 -14 -2.5 -19t-5.5 -5h-37v-79q0 -5 -4.5 -7.5t-30.5 -2.5h-5
q-26 0 -31.5 2.5t-5.5 7.5v79h-178q-3 0 -5 4.5t-2 17.5v22q0 11 4 20.5t9 17.5l112 213q3 6 10 8t28 2h8z" />
    <glyph glyph-name="questiondown" unicode="&#xbf;" horiz-adv-x="412" 
d="M203 475q0 26 19 44.5t45 18.5t44.5 -18.5t18.5 -44.5t-18.5 -45t-44.5 -19t-45 19t-19 45zM274 331q41 0 41 -10v-64q0 -29 -5.5 -51.5t-18 -41t-32.5 -34t-50 -30.5q-45 -23 -66 -49t-21 -71q0 -29 9 -48t24.5 -30t36.5 -15.5t45 -4.5q54 0 104 25q4 2 11 -1.5
t13 -17.5l9 -20q5 -11 4.5 -21t-4.5 -12q-31 -18 -71.5 -27.5t-75.5 -9.5q-42 0 -79 9.5t-64 29.5t-42.5 52.5t-15.5 78.5q0 72 35 121t91 78q41 21 55.5 39t14.5 47v68q0 5 10.5 7.5t28.5 2.5h13z" />
    <glyph glyph-name="Agrave" unicode="&#xc0;" horiz-adv-x="648" 
d="M332 720q23 0 33 -2.5t12 -8.5l248 -698q2 -6 -10 -8.5t-33 -2.5h-15q-20 0 -32 2.5t-14 8.5l-59 176h-282l-59 -176q-4 -11 -44 -11h-13q-21 0 -32 2.5t-9 8.5l244 698q2 6 11.5 8.5t34.5 2.5h19zM203 266h235l-118 354zM274 914q40 0 46 -11l73 -128q2 -5 -3 -8.5
t-29 -3.5h-9q-18 0 -26 2.5t-11 6.5l-94 128q-4 5 4 9.5t36 4.5h13z" />
    <glyph glyph-name="Aacute" unicode="&#xc1;" horiz-adv-x="648" 
d="M332 720q23 0 33 -2.5t12 -8.5l248 -698q2 -6 -10 -8.5t-33 -2.5h-15q-20 0 -32 2.5t-14 8.5l-59 176h-282l-59 -176q-4 -11 -44 -11h-13q-21 0 -32 2.5t-9 8.5l244 698q2 6 11.5 8.5t34.5 2.5h19zM203 266h235l-118 354zM390 914q28 0 35.5 -4.5t3.5 -9.5l-94 -128
q-4 -5 -11 -7t-25 -2h-8q-24 0 -28.5 3.5t-1.5 8.5l73 128q3 5 13 8t31 3h12z" />
    <glyph glyph-name="Acircumflex" unicode="&#xc2;" horiz-adv-x="648" 
d="M332 720q23 0 33 -2.5t12 -8.5l248 -698q2 -6 -10 -8.5t-33 -2.5h-15q-20 0 -32 2.5t-14 8.5l-59 176h-282l-59 -176q-4 -11 -44 -11h-13q-21 0 -32 2.5t-9 8.5l244 698q2 6 11.5 8.5t34.5 2.5h19zM203 266h235l-118 354zM259 896q5 6 14.5 9.5t29.5 4.5h38q21 0 30.5 -5
t14.5 -10l89 -94q9 -9 -10 -29l-8 -9q-7 -8 -14.5 -11.5t-11.5 0.5l-110 96l-112 -95q-7 -7 -24 11l-7 8q-17 19 -10 27z" />
    <glyph glyph-name="Atilde" unicode="&#xc3;" horiz-adv-x="648" 
d="M332 720q23 0 33 -2.5t12 -8.5l248 -698q2 -6 -10 -8.5t-33 -2.5h-15q-20 0 -32 2.5t-14 8.5l-59 176h-282l-59 -176q-4 -11 -44 -11h-13q-21 0 -32 2.5t-9 8.5l244 698q2 6 11.5 8.5t34.5 2.5h19zM203 266h235l-118 354zM177 808q-14 19 -8 27q16 19 40.5 33t55.5 14
q22 0 37 -6q16 -6 28 -12l24 -13q12 -6 30 -6q16 0 29 8.5t22 18.5q4 4 11 -0.5t15 -14.5l6 -8q6 -8 8.5 -15.5t-0.5 -11.5q-14 -20 -38.5 -36t-54.5 -16q-19 0 -33 6q-13 6 -27 12l-28 13q-14 6 -31 6q-16 0 -29.5 -8t-23.5 -19q-4 -4 -11 1.5t-15 16.5z" />
    <glyph glyph-name="Adieresis" unicode="&#xc4;" horiz-adv-x="648" 
d="M332 720q23 0 33 -2.5t12 -8.5l248 -698q2 -6 -10 -8.5t-33 -2.5h-15q-20 0 -32 2.5t-14 8.5l-59 176h-282l-59 -176q-4 -11 -44 -11h-13q-21 0 -32 2.5t-9 8.5l244 698q2 6 11.5 8.5t34.5 2.5h19zM203 266h235l-118 354zM147 812q0 24 16.5 40.5t40.5 16.5t40.5 -16.5
t16.5 -40.5t-16.5 -40.5t-40.5 -16.5t-40.5 16.5t-16.5 40.5zM380 812q0 24 16.5 40.5t40.5 16.5t40.5 -16.5t16.5 -40.5t-16.5 -40.5t-40.5 -16.5t-40.5 16.5t-16.5 40.5z" />
    <glyph glyph-name="Aring" unicode="&#xc5;" horiz-adv-x="648" 
d="M625 11q2 -6 -10 -8.5t-33 -2.5h-15q-20 0 -32 2.5t-14 8.5l-59 176h-282l-59 -176q-4 -11 -44 -11h-13q-21 0 -32 2.5t-9 8.5l243 696q-17 12 -26.5 30.5t-9.5 40.5q0 19 7.5 35.5t20.5 28.5t30 19t36 7t36 -7t30 -19t20.5 -28.5t7.5 -35.5q0 -23 -11 -42.5t-29 -31.5z
M203 266h235l-118 354zM282 778q0 -19 12.5 -30.5t29.5 -11.5q18 0 29.5 12.5t11.5 29.5t-11.5 29.5t-29.5 12.5q-17 0 -29.5 -11.5t-12.5 -30.5z" />
    <glyph glyph-name="AE" unicode="&#xc6;" horiz-adv-x="892" 
d="M828 720q9 0 9 -33v-12q0 -34 -9 -34h-295v-237h249q9 0 9 -33v-12q0 -34 -9 -34h-249v-245h299q9 0 9 -33v-13q0 -34 -9 -34h-394v192h-229l-100 -181q-6 -11 -46 -11h-14q-21 0 -34.5 3t-10.5 8l397 694q5 8 14.5 11.5t33.5 3.5h379zM253 271h185v333z" />
    <glyph glyph-name="Ccedilla" unicode="&#xc7;" horiz-adv-x="573" 
d="M522 634q-6 -12 -12.5 -18.5t-11.5 -4.5q-35 19 -68.5 28.5t-68.5 9.5q-45 0 -84.5 -17.5t-68.5 -53.5t-45.5 -91t-16.5 -131q0 -52 10 -103t34 -91t64.5 -64.5t101.5 -24.5q71 0 137 33q5 2 11.5 -3t12.5 -19l6 -13q5 -11 6.5 -21t-3.5 -13q-70 -40 -159 -46l-2 -32
q5 1 9 1h8q38 0 64.5 -21t26.5 -63q0 -18 -7 -36t-21 -31.5t-36.5 -22t-53.5 -8.5q-21 0 -42 3.5t-34 8.5q-4 2 -5.5 7t1.5 16l4 16q5 21 14 18q13 -4 28 -6t26 -2q20 0 32.5 8t12.5 25t-12 23t-38 6q-14 0 -30.5 -0.5t-28.5 -2.5l12 95q-64 7 -110.5 36.5t-77 76t-45 109
t-14.5 135.5q0 74 15.5 143t51 121.5t93.5 84t143 31.5q51 0 97 -12.5t83 -37.5q5 -3 3.5 -13t-6.5 -21z" />
    <glyph glyph-name="Egrave" unicode="&#xc8;" horiz-adv-x="544" 
d="M480 720q9 0 9 -33v-12q0 -34 -9 -34h-305v-237h259q9 0 9 -33v-12q0 -34 -9 -34h-259v-245h309q9 0 9 -33v-13q0 -34 -9 -34h-404v720h400zM228 914q40 0 46 -11l73 -128q2 -5 -3 -8.5t-29 -3.5h-9q-18 0 -26 2.5t-11 6.5l-94 128q-4 5 4 9.5t36 4.5h13z" />
    <glyph glyph-name="Eacute" unicode="&#xc9;" horiz-adv-x="544" 
d="M480 720q9 0 9 -33v-12q0 -34 -9 -34h-305v-237h259q9 0 9 -33v-12q0 -34 -9 -34h-259v-245h309q9 0 9 -33v-13q0 -34 -9 -34h-404v720h400zM378 914q28 0 35.5 -4.5t3.5 -9.5l-94 -128q-4 -5 -11 -7t-25 -2h-8q-24 0 -28.5 3.5t-1.5 8.5l73 128q3 5 13 8t31 3h12z" />
    <glyph glyph-name="Ecircumflex" unicode="&#xca;" horiz-adv-x="544" 
d="M480 720q9 0 9 -33v-12q0 -34 -9 -34h-305v-237h259q9 0 9 -33v-12q0 -34 -9 -34h-259v-245h309q9 0 9 -33v-13q0 -34 -9 -34h-404v720h400zM227 896q5 6 14.5 9.5t29.5 4.5h38q21 0 30.5 -5t14.5 -10l89 -94q9 -9 -10 -29l-8 -9q-7 -8 -14.5 -11.5t-11.5 0.5l-110 96
l-112 -95q-7 -7 -24 11l-7 8q-17 19 -10 27z" />
    <glyph glyph-name="Edieresis" unicode="&#xcb;" horiz-adv-x="544" 
d="M480 720q9 0 9 -33v-12q0 -34 -9 -34h-305v-237h259q9 0 9 -33v-12q0 -34 -9 -34h-259v-245h309q9 0 9 -33v-13q0 -34 -9 -34h-404v720h400zM112 812q0 24 16.5 40.5t40.5 16.5t40.5 -16.5t16.5 -40.5t-16.5 -40.5t-40.5 -16.5t-40.5 16.5t-16.5 40.5zM345 812
q0 24 16.5 40.5t40.5 16.5t40.5 -16.5t16.5 -40.5t-16.5 -40.5t-40.5 -16.5t-40.5 16.5t-16.5 40.5z" />
    <glyph glyph-name="Igrave" unicode="&#xcc;" horiz-adv-x="381" 
d="M311 720q8 0 8 -28v-12q0 -29 -8 -29h-73v-582h73q8 0 8 -29v-12q0 -28 -8 -28h-241q-5 0 -6.5 5t-1.5 24v11q0 19 1.5 24t6.5 5h73v582h-73q-5 0 -6.5 5t-1.5 24v11q0 19 1.5 24t6.5 5h241zM128 914q40 0 46 -11l73 -128q2 -5 -3 -8.5t-29 -3.5h-9q-18 0 -26 2.5
t-11 6.5l-94 128q-4 5 4 9.5t36 4.5h13z" />
    <glyph glyph-name="Iacute" unicode="&#xcd;" horiz-adv-x="381" 
d="M311 720q8 0 8 -28v-12q0 -29 -8 -29h-73v-582h73q8 0 8 -29v-12q0 -28 -8 -28h-241q-5 0 -6.5 5t-1.5 24v11q0 19 1.5 24t6.5 5h73v582h-73q-5 0 -6.5 5t-1.5 24v11q0 19 1.5 24t6.5 5h241zM266 914q28 0 35.5 -4.5t3.5 -9.5l-94 -128q-4 -5 -11 -7t-25 -2h-8
q-24 0 -28.5 3.5t-1.5 8.5l73 128q3 5 13 8t31 3h12z" />
    <glyph glyph-name="Icircumflex" unicode="&#xce;" horiz-adv-x="381" 
d="M311 720q8 0 8 -28v-12q0 -29 -8 -29h-73v-582h73q8 0 8 -29v-12q0 -28 -8 -28h-241q-5 0 -6.5 5t-1.5 24v11q0 19 1.5 24t6.5 5h73v582h-73q-5 0 -6.5 5t-1.5 24v11q0 19 1.5 24t6.5 5h241zM128 896q5 6 14.5 9.5t29.5 4.5h38q21 0 30.5 -5t14.5 -10l89 -94
q9 -9 -10 -29l-8 -9q-7 -8 -14.5 -11.5t-11.5 0.5l-110 96l-112 -95q-7 -7 -24 11l-7 8q-17 19 -10 27z" />
    <glyph glyph-name="Idieresis" unicode="&#xcf;" horiz-adv-x="381" 
d="M311 720q8 0 8 -28v-12q0 -29 -8 -29h-73v-582h73q8 0 8 -29v-12q0 -28 -8 -28h-241q-5 0 -6.5 5t-1.5 24v11q0 19 1.5 24t6.5 5h73v582h-73q-5 0 -6.5 5t-1.5 24v11q0 19 1.5 24t6.5 5h241zM17 812q0 24 16.5 40.5t40.5 16.5t40.5 -16.5t16.5 -40.5t-16.5 -40.5
t-40.5 -16.5t-40.5 16.5t-16.5 40.5zM250 812q0 24 16.5 40.5t40.5 16.5t40.5 -16.5t16.5 -40.5t-16.5 -40.5t-40.5 -16.5t-40.5 16.5t-16.5 40.5z" />
    <glyph glyph-name="Eth" unicode="&#xd0;" horiz-adv-x="668" 
d="M262 720q99 0 163 -20t110 -68q42 -43 65 -108.5t23 -159.5q0 -93 -25 -166.5t-77 -123.5q-45 -43 -108 -58.5t-146 -15.5h-173v328h-55q-10 0 -10 32v11q0 31 10 31h55v318h168zM189 402h168q10 0 10 -31v-11q0 -32 -10 -32h-168v-250h80q52 0 99 12t81 44q38 35 57 93
t19 134q0 69 -15 120.5t-42 84.5q-29 36 -75 56t-118 20h-86v-240z" />
    <glyph glyph-name="Ntilde" unicode="&#xd1;" horiz-adv-x="678" 
d="M128 720q32 0 41 -2.5t14 -10.5l333 -554v556q0 11 38 11h8q40 0 40 -11v-698q0 -7 -9.5 -9t-37.5 -2h-3q-32 0 -41 2.5t-14 10.5l-335 553v-555q0 -11 -38 -11h-8q-40 0 -40 11v698q0 7 9.5 9t37.5 2h5zM192 804q-14 19 -8 27q16 19 40.5 33t55.5 14q22 0 37 -6
q16 -6 28 -12l24 -13q12 -6 30 -6q16 0 29 8.5t22 18.5q4 4 11 -0.5t15 -14.5l6 -8q6 -8 8.5 -15.5t-0.5 -11.5q-14 -20 -38.5 -36t-54.5 -16q-19 0 -33 6q-13 6 -27 12l-28 13q-14 6 -31 6q-16 0 -29.5 -8t-23.5 -19q-4 -4 -11 1.5t-15 16.5z" />
    <glyph glyph-name="Ograve" unicode="&#xd2;" horiz-adv-x="697" 
d="M356 649q-99 0 -156 -76.5t-57 -218.5q0 -137 52 -210t146 -73q99 0 156 77.5t57 218.5q0 137 -52 209.5t-146 72.5zM360 730q64 0 118 -22.5t92.5 -67.5t60 -112.5t21.5 -156.5q0 -88 -22.5 -158.5t-63.5 -120t-99 -76t-130 -26.5q-65 0 -118.5 23t-92 68t-60 112.5
t-21.5 156.5q0 88 22.5 158t63.5 119.5t99 76t130 26.5zM309 914q40 0 46 -11l73 -128q2 -5 -3 -8.5t-29 -3.5h-9q-18 0 -26 2.5t-11 6.5l-94 128q-4 5 4 9.5t36 4.5h13z" />
    <glyph glyph-name="Oacute" unicode="&#xd3;" horiz-adv-x="697" 
d="M356 649q-99 0 -156 -76.5t-57 -218.5q0 -137 52 -210t146 -73q99 0 156 77.5t57 218.5q0 137 -52 209.5t-146 72.5zM360 730q64 0 118 -22.5t92.5 -67.5t60 -112.5t21.5 -156.5q0 -88 -22.5 -158.5t-63.5 -120t-99 -76t-130 -26.5q-65 0 -118.5 23t-92 68t-60 112.5
t-21.5 156.5q0 88 22.5 158t63.5 119.5t99 76t130 26.5zM424 914q28 0 35.5 -4.5t3.5 -9.5l-94 -128q-4 -5 -11 -7t-25 -2h-8q-24 0 -28.5 3.5t-1.5 8.5l73 128q3 5 13 8t31 3h12z" />
    <glyph glyph-name="Ocircumflex" unicode="&#xd4;" horiz-adv-x="697" 
d="M356 649q-99 0 -156 -76.5t-57 -218.5q0 -137 52 -210t146 -73q99 0 156 77.5t57 218.5q0 137 -52 209.5t-146 72.5zM360 730q64 0 118 -22.5t92.5 -67.5t60 -112.5t21.5 -156.5q0 -88 -22.5 -158.5t-63.5 -120t-99 -76t-130 -26.5q-65 0 -118.5 23t-92 68t-60 112.5
t-21.5 156.5q0 88 22.5 158t63.5 119.5t99 76t130 26.5zM294 896q5 6 14.5 9.5t29.5 4.5h38q21 0 30.5 -5t14.5 -10l89 -94q9 -9 -10 -29l-8 -9q-7 -8 -14.5 -11.5t-11.5 0.5l-110 96l-112 -95q-7 -7 -24 11l-7 8q-17 19 -10 27z" />
    <glyph glyph-name="Otilde" unicode="&#xd5;" horiz-adv-x="697" 
d="M356 649q-99 0 -156 -76.5t-57 -218.5q0 -137 52 -210t146 -73q99 0 156 77.5t57 218.5q0 137 -52 209.5t-146 72.5zM360 730q64 0 118 -22.5t92.5 -67.5t60 -112.5t21.5 -156.5q0 -88 -22.5 -158.5t-63.5 -120t-99 -76t-130 -26.5q-65 0 -118.5 23t-92 68t-60 112.5
t-21.5 156.5q0 88 22.5 158t63.5 119.5t99 76t130 26.5zM205 804q-14 19 -8 27q16 19 40.5 33t55.5 14q22 0 37 -6q16 -6 28 -12l24 -13q12 -6 30 -6q16 0 29 8.5t22 18.5q4 4 11 -0.5t15 -14.5l6 -8q6 -8 8.5 -15.5t-0.5 -11.5q-14 -20 -38.5 -36t-54.5 -16q-19 0 -33 6
q-13 6 -27 12l-28 13q-14 6 -31 6q-16 0 -29.5 -8t-23.5 -19q-4 -4 -11 1.5t-15 16.5z" />
    <glyph glyph-name="Odieresis" unicode="&#xd6;" horiz-adv-x="697" 
d="M356 649q-99 0 -156 -76.5t-57 -218.5q0 -137 52 -210t146 -73q99 0 156 77.5t57 218.5q0 137 -52 209.5t-146 72.5zM360 730q64 0 118 -22.5t92.5 -67.5t60 -112.5t21.5 -156.5q0 -88 -22.5 -158.5t-63.5 -120t-99 -76t-130 -26.5q-65 0 -118.5 23t-92 68t-60 112.5
t-21.5 156.5q0 88 22.5 158t63.5 119.5t99 76t130 26.5zM183 812q0 24 16.5 40.5t40.5 16.5t40.5 -16.5t16.5 -40.5t-16.5 -40.5t-40.5 -16.5t-40.5 16.5t-16.5 40.5zM416 812q0 24 16.5 40.5t40.5 16.5t40.5 -16.5t16.5 -40.5t-16.5 -40.5t-40.5 -16.5t-40.5 16.5
t-16.5 40.5z" />
    <glyph glyph-name="multiply" unicode="&#xd7;" 
d="M61 607q15 15 21 17t10 -2l195 -202l192 198q4 4 10.5 1.5t19.5 -15.5l7 -7q11 -11 14 -17t-1 -10l-193 -199l198 -203q4 -4 1 -10t-15 -18l-10 -10q-23 -23 -31 -15l-197 202l-196 -202q-4 -4 -10 -2t-20 16l-8 8q-11 11 -14 16.5t1 10.5l199 202l-198 202q-4 4 -1 10
t15 18z" />
    <glyph glyph-name="Oslash" unicode="&#xd8;" horiz-adv-x="717" 
d="M583 754q3 5 11.5 4.5t21.5 -10.5l24 -17q11 -8 14 -15t0 -11l-59 -82q33 -45 51 -108t18 -144q0 -88 -22.5 -158.5t-63.5 -120t-99 -76t-130 -26.5q-50 0 -92.5 13t-77.5 39l-55 -76q-3 -5 -12 -4t-21 10l-23 17q-9 7 -13.5 14.5t-0.5 12.5l65 90q-30 45 -46 105.5
t-16 138.5q0 88 22.5 158t63.5 119.5t99 76t130 26.5q94 0 162 -47zM228 119q48 -48 125 -48q99 0 156 77.5t57 218.5q0 54 -8.5 98t-24.5 78zM485 608q-47 41 -117 41q-99 0 -156 -76.5t-57 -218.5q0 -99 28 -167z" />
    <glyph glyph-name="Ugrave" unicode="&#xd9;" horiz-adv-x="678" 
d="M125 720q43 0 43 -11v-440q0 -106 43.5 -152.5t127.5 -46.5q82 0 126.5 49.5t44.5 148.5v441q0 11 41 11h11q43 0 43 -11v-429q0 -149 -67 -219.5t-203 -70.5q-130 0 -196 64.5t-66 207.5v447q0 11 41 11h11zM276 914q40 0 46 -11l73 -128q2 -5 -3 -8.5t-29 -3.5h-9
q-18 0 -26 2.5t-11 6.5l-94 128q-4 5 4 9.5t36 4.5h13z" />
    <glyph glyph-name="Uacute" unicode="&#xda;" horiz-adv-x="678" 
d="M125 720q43 0 43 -11v-440q0 -106 43.5 -152.5t127.5 -46.5q82 0 126.5 49.5t44.5 148.5v441q0 11 41 11h11q43 0 43 -11v-429q0 -149 -67 -219.5t-203 -70.5q-130 0 -196 64.5t-66 207.5v447q0 11 41 11h11zM423 914q28 0 35.5 -4.5t3.5 -9.5l-94 -128q-4 -5 -11 -7
t-25 -2h-8q-24 0 -28.5 3.5t-1.5 8.5l73 128q3 5 13 8t31 3h12z" />
    <glyph glyph-name="Ucircumflex" unicode="&#xdb;" horiz-adv-x="678" 
d="M125 720q43 0 43 -11v-440q0 -106 43.5 -152.5t127.5 -46.5q82 0 126.5 49.5t44.5 148.5v441q0 11 41 11h11q43 0 43 -11v-429q0 -149 -67 -219.5t-203 -70.5q-130 0 -196 64.5t-66 207.5v447q0 11 41 11h11zM278 896q5 6 14.5 9.5t29.5 4.5h38q21 0 30.5 -5t14.5 -10
l89 -94q9 -9 -10 -29l-8 -9q-7 -8 -14.5 -11.5t-11.5 0.5l-110 96l-112 -95q-7 -7 -24 11l-7 8q-17 19 -10 27z" />
    <glyph glyph-name="Udieresis" unicode="&#xdc;" horiz-adv-x="678" 
d="M125 720q43 0 43 -11v-440q0 -106 43.5 -152.5t127.5 -46.5q82 0 126.5 49.5t44.5 148.5v441q0 11 41 11h11q43 0 43 -11v-429q0 -149 -67 -219.5t-203 -70.5q-130 0 -196 64.5t-66 207.5v447q0 11 41 11h11zM170 812q0 24 16.5 40.5t40.5 16.5t40.5 -16.5t16.5 -40.5
t-16.5 -40.5t-40.5 -16.5t-40.5 16.5t-16.5 40.5zM403 812q0 24 16.5 40.5t40.5 16.5t40.5 -16.5t16.5 -40.5t-16.5 -40.5t-40.5 -16.5t-40.5 16.5t-16.5 40.5z" />
    <glyph glyph-name="Yacute" unicode="&#xdd;" horiz-adv-x="543" 
d="M69 720q20 0 32.5 -2.5t15.5 -8.5l159 -338l156 338q3 6 15 8.5t31 2.5h11q20 0 33 -3q10 -2 10 -7q0 -1 -1 -2l-214 -429v-268q0 -11 -43 -11h-11q-41 0 -41 11v268l-212 429q-1 1 -1 2q0 5 11 7q13 3 34 3h15zM358 924q28 0 35.5 -4.5t3.5 -9.5l-94 -128q-4 -5 -11 -7
t-25 -2h-8q-24 0 -28.5 3.5t-1.5 8.5l73 128q3 5 13 8t31 3h12z" />
    <glyph glyph-name="Thorn" unicode="&#xde;" horiz-adv-x="539" 
d="M132 720q43 0 43 -11v-140q18 2 37.5 3.5t39.5 1.5q55 0 103.5 -9.5t84.5 -32t57 -60.5t21 -95q0 -37 -11 -75t-38.5 -69t-74.5 -51t-120 -20q-20 0 -50 1.5t-49 4.5v-157q0 -11 -41 -11h-11q-43 0 -43 11v698q0 11 41 11h11zM175 245q9 -2 21 -3q12 -2 24 -2h26
q12 0 21 -1q82 0 117.5 36.5t35.5 96.5q0 43 -16 68t-40.5 37.5t-53.5 15.5t-55 3q-19 0 -40 -1.5t-40 -3.5v-246z" />
    <glyph glyph-name="germandbls" unicode="&#xdf;" horiz-adv-x="606" 
d="M164 12q0 -5 -5.5 -8.5t-35.5 -3.5h-6q-30 0 -36.5 3t-6.5 9v501q0 124 51 190.5t151 66.5q31 0 62.5 -7.5t57.5 -24.5t42.5 -45t16.5 -69q0 -43 -15 -72q-14 -29 -32 -51l-33 -41q-15 -19 -15 -43q0 -19 7 -31.5t18 -21.5t24.5 -14.5t26.5 -9.5q25 -8 49.5 -19t44 -30
t32 -47.5t12.5 -70.5q0 -45 -14.5 -79t-39.5 -57t-58.5 -35t-71.5 -12q-21 0 -42.5 2.5t-41.5 7.5t-37 12t-29 16q-8 6 -7 14.5t7 22.5l6 12q6 14 13.5 20.5t16.5 0.5q19 -14 50.5 -22t57.5 -8q17 0 35.5 5t34 16t25.5 28.5t10 43.5q0 24 -8.5 40.5t-21.5 27.5t-29 18
t-31 12q-23 7 -45.5 17.5t-40.5 27.5t-29 42t-11 61q0 42 15 69q16 26 34 48l34 42q16 20 15 49q0 35 -23.5 57.5t-68.5 22.5q-33 0 -55 -12.5t-35.5 -35t-19 -54.5t-5.5 -72v-509z" />
    <glyph glyph-name="agrave" unicode="&#xe0;" horiz-adv-x="569" 
d="M454 528q28 0 33.5 -3t5.5 -9q0 -18 -1 -61t-1 -91v-140q0 -69 2 -120l5 -92q0 -6 -6.5 -9t-29.5 -3h-4q-23 0 -30 2.5t-8 9.5l-6 46q-24 -29 -64.5 -48.5t-89.5 -19.5q-55 0 -95 21t-66.5 57.5t-39.5 84.5t-13 102q0 64 17.5 116.5t48 89.5t72.5 57t92 20
q45 0 79.5 -18.5t55.5 -45.5l5 42q1 9 7 10.5t29 1.5h2zM401 389q-17 27 -48.5 47.5t-66.5 20.5q-69 0 -107.5 -53t-38.5 -144q0 -35 7 -69t22.5 -61t41.5 -43.5t65 -16.5q25 0 52.5 8.5t47.5 30.5q8 9 13 19t7.5 26t3.5 38t1 55v142zM224 732q40 0 46 -11l73 -128
q2 -5 -3 -8.5t-29 -3.5h-9q-18 0 -26 2.5t-11 6.5l-94 128q-4 5 4 9.5t36 4.5h13z" />
    <glyph glyph-name="aacute" unicode="&#xe1;" horiz-adv-x="567" 
d="M453 528q28 0 33.5 -3t5.5 -9q0 -18 -1 -61t-1 -91v-140q0 -69 2 -120l5 -92q0 -6 -6.5 -9t-29.5 -3h-4q-23 0 -30 2.5t-8 9.5l-6 46q-24 -29 -64.5 -48.5t-89.5 -19.5q-55 0 -95 21t-66.5 57.5t-39.5 84.5t-13 102q0 64 17.5 116.5t48 89.5t72.5 57t92 20
q45 0 79.5 -18.5t55.5 -45.5l5 42q1 9 7 10.5t29 1.5h2zM400 389q-17 27 -48.5 47.5t-66.5 20.5q-69 0 -107.5 -53t-38.5 -144q0 -35 7 -69t22.5 -61t41.5 -43.5t65 -16.5q25 0 52.5 8.5t47.5 30.5q8 9 13 19t7.5 26t3.5 38t1 55v142zM355 732q28 0 35.5 -4.5t2.5 -9.5
l-93 -128q-2 -4 -10 -6.5t-26 -2.5h-8q-24 0 -28.5 3.5t-1.5 8.5l73 128q3 5 13 8t31 3h12z" />
    <glyph glyph-name="acircumflex" unicode="&#xe2;" horiz-adv-x="567" 
d="M453 528q28 0 33.5 -3t5.5 -9q0 -18 -1 -61t-1 -91v-140q0 -69 2 -120l5 -92q0 -6 -6.5 -9t-29.5 -3h-4q-23 0 -30 2.5t-8 9.5l-6 46q-24 -29 -64.5 -48.5t-89.5 -19.5q-55 0 -95 21t-66.5 57.5t-39.5 84.5t-13 102q0 64 17.5 116.5t48 89.5t72.5 57t92 20
q45 0 79.5 -18.5t55.5 -45.5l5 42q1 9 7 10.5t29 1.5h2zM400 389q-17 27 -48.5 47.5t-66.5 20.5q-69 0 -107.5 -53t-38.5 -144q0 -35 7 -69t22.5 -61t41.5 -43.5t65 -16.5q25 0 52.5 8.5t47.5 30.5q8 9 13 19t7.5 26t3.5 38t1 55v142zM216 724q5 6 14.5 9.5t29.5 4.5h38
q21 0 30.5 -5t14.5 -10l89 -94q9 -9 -10 -29l-8 -9q-7 -8 -14.5 -11.5t-11.5 0.5l-110 96l-112 -95q-7 -7 -24 11l-7 8q-17 19 -10 27z" />
    <glyph glyph-name="atilde" unicode="&#xe3;" horiz-adv-x="567" 
d="M453 528q28 0 33.5 -3t5.5 -9q0 -18 -1 -61t-1 -91v-140q0 -69 2 -120l5 -92q0 -6 -6.5 -9t-29.5 -3h-4q-23 0 -30 2.5t-8 9.5l-6 46q-24 -29 -64.5 -48.5t-89.5 -19.5q-55 0 -95 21t-66.5 57.5t-39.5 84.5t-13 102q0 64 17.5 116.5t48 89.5t72.5 57t92 20
q45 0 79.5 -18.5t55.5 -45.5l5 42q1 9 7 10.5t29 1.5h2zM400 389q-17 27 -48.5 47.5t-66.5 20.5q-69 0 -107.5 -53t-38.5 -144q0 -35 7 -69t22.5 -61t41.5 -43.5t65 -16.5q25 0 52.5 8.5t47.5 30.5q8 9 13 19t7.5 26t3.5 38t1 55v142zM133 646q-14 19 -8 27q16 19 40.5 33
t55.5 14q22 0 37 -6q16 -6 28 -12l24 -13q12 -6 30 -6q16 0 29 8.5t22 18.5q4 4 11 -0.5t15 -14.5l6 -8q6 -8 8.5 -15.5t-0.5 -11.5q-14 -20 -38.5 -36t-54.5 -16q-19 0 -33 6q-13 6 -27 12l-28 13q-14 6 -31 6q-16 0 -29.5 -8t-23.5 -19q-4 -4 -11 1.5t-15 16.5z" />
    <glyph glyph-name="adieresis" unicode="&#xe4;" horiz-adv-x="567" 
d="M453 528q28 0 33.5 -3t5.5 -9q0 -18 -1 -61t-1 -91v-140q0 -69 2 -120l5 -92q0 -6 -6.5 -9t-29.5 -3h-4q-23 0 -30 2.5t-8 9.5l-6 46q-24 -29 -64.5 -48.5t-89.5 -19.5q-55 0 -95 21t-66.5 57.5t-39.5 84.5t-13 102q0 64 17.5 116.5t48 89.5t72.5 57t92 20
q45 0 79.5 -18.5t55.5 -45.5l5 42q1 9 7 10.5t29 1.5h2zM400 389q-17 27 -48.5 47.5t-66.5 20.5q-69 0 -107.5 -53t-38.5 -144q0 -35 7 -69t22.5 -61t41.5 -43.5t65 -16.5q25 0 52.5 8.5t47.5 30.5q8 9 13 19t7.5 26t3.5 38t1 55v142zM103 655q0 24 16.5 40.5t40.5 16.5
t40.5 -16.5t16.5 -40.5t-16.5 -40.5t-40.5 -16.5t-40.5 16.5t-16.5 40.5zM336 655q0 24 16.5 40.5t40.5 16.5t40.5 -16.5t16.5 -40.5t-16.5 -40.5t-40.5 -16.5t-40.5 16.5t-16.5 40.5z" />
    <glyph glyph-name="aring" unicode="&#xe5;" horiz-adv-x="567" 
d="M186 668q0 19 7.5 35.5t20.5 28.5t30 19t36 7t36 -7t30 -19t20.5 -28.5t7.5 -35.5t-7.5 -35.5t-20.5 -28.5t-30 -19t-36 -7t-36 7t-30 19t-20.5 28.5t-7.5 35.5zM238 668q0 -19 12.5 -30.5t29.5 -11.5q18 0 29.5 12.5t11.5 29.5t-11.5 29.5t-29.5 12.5q-17 0 -29.5 -11.5
t-12.5 -30.5zM453 528q28 0 33.5 -3t5.5 -9q0 -18 -1 -61t-1 -91v-140q0 -69 2 -120l5 -92q0 -6 -6.5 -9t-29.5 -3h-4q-23 0 -30 2.5t-8 9.5l-6 46q-24 -29 -64.5 -48.5t-89.5 -19.5q-55 0 -95 21t-66.5 57.5t-39.5 84.5t-13 102q0 64 17.5 116.5t48 89.5t72.5 57t92 20
q45 0 79.5 -18.5t55.5 -45.5l5 42q1 9 7 10.5t29 1.5h2zM400 389q-17 27 -48.5 47.5t-66.5 20.5q-69 0 -107.5 -53t-38.5 -144q0 -35 7 -69t22.5 -61t41.5 -43.5t65 -16.5q25 0 52.5 8.5t47.5 30.5q8 9 13 19t7.5 26t3.5 38t1 55v142z" />
    <glyph glyph-name="ae" unicode="&#xe6;" horiz-adv-x="857" 
d="M80 468q-5 13 -5.5 22t5.5 12q35 18 82.5 27t89.5 9q69 0 110.5 -21.5t64.5 -60.5q30 39 73.5 60.5t99.5 21.5q66 0 110 -30t69 -80q17 -35 24.5 -75t7.5 -85q0 -23 -2 -29.5t-8 -6.5h-342q2 -42 13.5 -73t34.5 -51q39 -36 114 -36q31 0 62.5 6.5t66.5 22.5q7 3 12 1.5
t13 -20.5l5 -12q8 -20 8 -26.5t-6 -10.5q-38 -22 -83 -32.5t-95 -10.5q-65 0 -112 21t-77 61q-15 -15 -33 -29.5t-41 -26.5t-52 -19t-66 -7q-35 0 -67.5 10.5t-58 31t-40.5 51.5t-15 72q0 83 55.5 130t155.5 47q31 0 61 -6t53 -15v16q0 71 -28.5 101t-94.5 30
q-29 0 -64.5 -6t-72.5 -20q-5 -2 -11 2.5t-12 20.5zM385 129q-9 25 -14 52t-6 59q-21 8 -49.5 13.5t-60.5 5.5q-53 0 -87.5 -23.5t-34.5 -73.5q0 -45 31 -69t79 -24q50 0 86.5 19t55.5 41zM719 306q0 28 -7.5 55t-22 48t-36.5 34t-52 13q-54 0 -91.5 -36t-47.5 -114h257z
" />
    <glyph glyph-name="ccedilla" unicode="&#xe7;" horiz-adv-x="493" 
d="M309 -41q5 1 9 1h8q38 0 64.5 -21t26.5 -63q0 -18 -7 -36t-21 -31.5t-36.5 -22t-53.5 -8.5q-21 0 -42 3.5t-34 8.5q-4 2 -5.5 7t1.5 16l4 16q5 21 14 18q13 -4 28 -6t26 -2q20 0 32.5 8t12.5 25t-12 23t-38 6q-14 0 -30.5 -0.5t-28.5 -2.5l12 95q-49 6 -85.5 28.5
t-60.5 57.5t-36 80.5t-12 96.5q0 69 19 121.5t52 88t78 54t97 18.5q48 0 88.5 -14.5t72.5 -37.5q6 -5 5.5 -13t-11.5 -33q-6 -13 -10.5 -19t-8.5 -8.5t-7 -1.5t-6 3q-28 19 -58 30.5t-60 11.5q-70 0 -113.5 -50t-43.5 -144q0 -36 8 -70t25 -61t45 -43t69 -16q32 0 65 8.5
t62 22.5q6 3 13 -0.5t13 -19.5l5 -13q8 -18 6.5 -25t-6.5 -10q-62 -34 -133 -43z" />
    <glyph glyph-name="egrave" unicode="&#xe8;" horiz-adv-x="544" 
d="M139 232q2 -42 14.5 -73t35.5 -51q40 -36 118 -36q62 0 132 32q7 3 12 1.5t13 -20.5l5 -12q8 -20 8 -26.5t-6 -10.5q-78 -46 -181 -46q-122 0 -183.5 70.5t-61.5 191.5q0 63 16.5 115.5t48 90.5t75.5 59t100 21q67 0 112.5 -30t70.5 -80q17 -35 25 -75t8 -85
q0 -23 -2 -29.5t-8 -6.5h-352zM409 306q0 28 -7.5 55t-22.5 48t-38.5 34t-54.5 13q-55 0 -94 -36t-50 -114h267zM232 732q40 0 46 -11l73 -128q2 -5 -3 -8.5t-29 -3.5h-9q-18 0 -26 2.5t-11 6.5l-94 128q-4 5 4 9.5t36 4.5h13z" />
    <glyph glyph-name="eacute" unicode="&#xe9;" horiz-adv-x="544" 
d="M139 232q2 -42 14.5 -73t35.5 -51q40 -36 118 -36q62 0 132 32q7 3 12 1.5t13 -20.5l5 -12q8 -20 8 -26.5t-6 -10.5q-78 -46 -181 -46q-122 0 -183.5 70.5t-61.5 191.5q0 63 16.5 115.5t48 90.5t75.5 59t100 21q67 0 112.5 -30t70.5 -80q17 -35 25 -75t8 -85
q0 -23 -2 -29.5t-8 -6.5h-352zM409 306q0 28 -7.5 55t-22.5 48t-38.5 34t-54.5 13q-55 0 -94 -36t-50 -114h267zM362 732q28 0 35.5 -4.5t2.5 -9.5l-93 -128q-2 -4 -10 -6.5t-26 -2.5h-8q-24 0 -28.5 3.5t-1.5 8.5l73 128q3 5 13 8t31 3h12z" />
    <glyph glyph-name="ecircumflex" unicode="&#xea;" horiz-adv-x="544" 
d="M139 232q2 -42 14.5 -73t35.5 -51q40 -36 118 -36q62 0 132 32q7 3 12 1.5t13 -20.5l5 -12q8 -20 8 -26.5t-6 -10.5q-78 -46 -181 -46q-122 0 -183.5 70.5t-61.5 191.5q0 63 16.5 115.5t48 90.5t75.5 59t100 21q67 0 112.5 -30t70.5 -80q17 -35 25 -75t8 -85
q0 -23 -2 -29.5t-8 -6.5h-352zM409 306q0 28 -7.5 55t-22.5 48t-38.5 34t-54.5 13q-55 0 -94 -36t-50 -114h267zM220 724q5 6 14.5 9.5t29.5 4.5h38q21 0 30.5 -5t14.5 -10l89 -94q9 -9 -10 -29l-8 -9q-7 -8 -14.5 -11.5t-11.5 0.5l-110 96l-112 -95q-7 -7 -24 11l-7 8
q-17 19 -10 27z" />
    <glyph glyph-name="edieresis" unicode="&#xeb;" horiz-adv-x="544" 
d="M139 232q2 -42 14.5 -73t35.5 -51q40 -36 118 -36q62 0 132 32q7 3 12 1.5t13 -20.5l5 -12q8 -20 8 -26.5t-6 -10.5q-78 -46 -181 -46q-122 0 -183.5 70.5t-61.5 191.5q0 63 16.5 115.5t48 90.5t75.5 59t100 21q67 0 112.5 -30t70.5 -80q17 -35 25 -75t8 -85
q0 -23 -2 -29.5t-8 -6.5h-352zM409 306q0 28 -7.5 55t-22.5 48t-38.5 34t-54.5 13q-55 0 -94 -36t-50 -114h267zM111 655q0 24 16.5 40.5t40.5 16.5t40.5 -16.5t16.5 -40.5t-16.5 -40.5t-40.5 -16.5t-40.5 16.5t-16.5 40.5zM344 655q0 24 16.5 40.5t40.5 16.5t40.5 -16.5
t16.5 -40.5t-16.5 -40.5t-40.5 -16.5t-40.5 16.5t-16.5 40.5z" />
    <glyph glyph-name="igrave" unicode="&#xec;" horiz-adv-x="240" 
d="M124 528q30 0 35.5 -3.5t5.5 -8.5v-504q0 -5 -5.5 -8.5t-35.5 -3.5h-6q-30 0 -36.5 3t-6.5 9v504q0 6 6.5 9t36.5 3h6zM49 732q40 0 46 -11l73 -128q2 -5 -3 -8.5t-29 -3.5h-9q-18 0 -26 2.5t-11 6.5l-94 128q-4 5 4 9.5t36 4.5h13z" />
    <glyph glyph-name="iacute" unicode="&#xed;" horiz-adv-x="240" 
d="M124 528q30 0 35.5 -3.5t5.5 -8.5v-504q0 -5 -5.5 -8.5t-35.5 -3.5h-6q-30 0 -36.5 3t-6.5 9v504q0 6 6.5 9t36.5 3h6zM197 732q28 0 35.5 -4.5t2.5 -9.5l-93 -128q-2 -4 -10 -6.5t-26 -2.5h-8q-24 0 -28.5 3.5t-1.5 8.5l73 128q3 5 13 8t31 3h12z" />
    <glyph glyph-name="icircumflex" unicode="&#xee;" horiz-adv-x="240" 
d="M124 528q30 0 35.5 -3.5t5.5 -8.5v-504q0 -5 -5.5 -8.5t-35.5 -3.5h-6q-30 0 -36.5 3t-6.5 9v504q0 6 6.5 9t36.5 3h6zM57 724q5 6 14.5 9.5t29.5 4.5h38q21 0 30.5 -5t14.5 -10l89 -94q9 -9 -10 -29l-8 -9q-7 -8 -14.5 -11.5t-11.5 0.5l-110 96l-112 -95q-7 -7 -24 11
l-7 8q-17 19 -10 27z" />
    <glyph glyph-name="idieresis" unicode="&#xef;" horiz-adv-x="240" 
d="M124 528q30 0 35.5 -3.5t5.5 -8.5v-504q0 -5 -5.5 -8.5t-35.5 -3.5h-6q-30 0 -36.5 3t-6.5 9v504q0 6 6.5 9t36.5 3h6zM-52 655q0 24 16.5 40.5t40.5 16.5t40.5 -16.5t16.5 -40.5t-16.5 -40.5t-40.5 -16.5t-40.5 16.5t-16.5 40.5zM181 655q0 24 16.5 40.5t40.5 16.5
t40.5 -16.5t16.5 -40.5t-16.5 -40.5t-40.5 -16.5t-40.5 16.5t-16.5 40.5z" />
    <glyph glyph-name="eth" unicode="&#xf0;" horiz-adv-x="559" 
d="M128 743q10 14 15 19t10 3q34 -14 64.5 -29t62.5 -35l125 59q4 2 7 -2t11 -17l7 -13q14 -23 4 -27l-90 -44q32 -25 57.5 -51t46.5 -57q37 -55 55 -121.5t18 -141.5q0 -82 -19.5 -138.5t-52 -91.5t-75.5 -50.5t-90 -15.5q-52 0 -95 17.5t-74.5 50.5t-49 81t-17.5 110
q0 63 18 112.5t48.5 84t71.5 52.5t86 18q33 0 63 -9.5t54 -24.5l-15 27q-21 32 -47 57.5t-60 49.5l-130 -61q-7 -3 -18 19l-8 16q-11 22 -3 25l92 45q-22 12 -42 22l-41 21q-11 6 6 32zM420 389q-26 21 -64.5 33.5t-73.5 12.5q-42 0 -69 -17.5t-43 -44.5t-22 -59.5t-6 -62.5
q0 -84 38.5 -132t107.5 -48q73 0 106.5 56.5t33.5 165.5q0 50 -8 96z" />
    <glyph glyph-name="ntilde" unicode="&#xf1;" horiz-adv-x="585" 
d="M122 528q27 0 34 -2.5t7 -9.5l1 -45h1q13 15 31.5 27.5t40 21.5t45 13.5t46.5 4.5q42 0 77 -13.5t60 -39.5q27 -28 39 -68.5t12 -101.5v-303q0 -5 -5.5 -8.5t-35.5 -3.5h-6q-30 0 -36.5 3t-6.5 9v261q0 61 -4.5 93.5t-22.5 53.5q-27 33 -95 33q-28 0 -58 -9.5t-48 -26.5
q-9 -8 -16.5 -23.5t-10.5 -47.5q-2 -21 -2.5 -57t-0.5 -80v-197q0 -5 -5.5 -8.5t-35.5 -3.5h-6q-30 0 -36.5 3t-6.5 9v341q0 25 -0.5 50.5t-0.5 47t-0.5 39t-0.5 26.5q0 6 6 9t35 3h5zM150 646q-14 19 -8 27q16 19 40.5 33t55.5 14q22 0 37 -6q16 -6 28 -12l24 -13
q12 -6 30 -6q16 0 29 8.5t22 18.5q4 4 11 -0.5t15 -14.5l6 -8q6 -8 8.5 -15.5t-0.5 -11.5q-14 -20 -38.5 -36t-54.5 -16q-19 0 -33 6q-13 6 -27 12l-28 13q-14 6 -31 6q-16 0 -29.5 -8t-23.5 -19q-4 -4 -11 1.5t-15 16.5z" />
    <glyph glyph-name="ograve" unicode="&#xf2;" 
d="M295 538q94 0 150 -50q38 -33 58.5 -87t20.5 -125t-18 -124.5t-50.5 -89.5t-78.5 -54t-102 -18q-94 0 -150 50q-38 33 -58.5 87t-20.5 125t18 124.5t50.5 89.5t78.5 54t102 18zM291 458q-30 0 -57.5 -11t-48 -35t-33 -61.5t-12.5 -91.5q0 -34 6.5 -67.5t22 -60.5
t42.5 -44t68 -17q30 0 57.5 11t48 35t33 61.5t12.5 91.5q0 34 -6.5 67.5t-22 60.5t-42.5 44t-68 17zM244 732q40 0 46 -11l73 -128q2 -5 -3 -8.5t-29 -3.5h-9q-18 0 -26 2.5t-11 6.5l-94 128q-4 5 4 9.5t36 4.5h13z" />
    <glyph glyph-name="oacute" unicode="&#xf3;" 
d="M295 538q94 0 150 -50q38 -33 58.5 -87t20.5 -125t-18 -124.5t-50.5 -89.5t-78.5 -54t-102 -18q-94 0 -150 50q-38 33 -58.5 87t-20.5 125t18 124.5t50.5 89.5t78.5 54t102 18zM291 458q-30 0 -57.5 -11t-48 -35t-33 -61.5t-12.5 -91.5q0 -34 6.5 -67.5t22 -60.5
t42.5 -44t68 -17q30 0 57.5 11t48 35t33 61.5t12.5 91.5q0 34 -6.5 67.5t-22 60.5t-42.5 44t-68 17zM359 732q28 0 35.5 -4.5t2.5 -9.5l-93 -128q-2 -4 -10 -6.5t-26 -2.5h-8q-24 0 -28.5 3.5t-1.5 8.5l73 128q3 5 13 8t31 3h12z" />
    <glyph glyph-name="ocircumflex" unicode="&#xf4;" 
d="M295 538q94 0 150 -50q38 -33 58.5 -87t20.5 -125t-18 -124.5t-50.5 -89.5t-78.5 -54t-102 -18q-94 0 -150 50q-38 33 -58.5 87t-20.5 125t18 124.5t50.5 89.5t78.5 54t102 18zM291 458q-30 0 -57.5 -11t-48 -35t-33 -61.5t-12.5 -91.5q0 -34 6.5 -67.5t22 -60.5
t42.5 -44t68 -17q30 0 57.5 11t48 35t33 61.5t12.5 91.5q0 34 -6.5 67.5t-22 60.5t-42.5 44t-68 17zM228 724q5 6 14.5 9.5t29.5 4.5h38q21 0 30.5 -5t14.5 -10l89 -94q9 -9 -10 -29l-8 -9q-7 -8 -14.5 -11.5t-11.5 0.5l-110 96l-112 -95q-7 -7 -24 11l-7 8q-17 19 -10 27z
" />
    <glyph glyph-name="otilde" unicode="&#xf5;" 
d="M295 538q94 0 150 -50q38 -33 58.5 -87t20.5 -125t-18 -124.5t-50.5 -89.5t-78.5 -54t-102 -18q-94 0 -150 50q-38 33 -58.5 87t-20.5 125t18 124.5t50.5 89.5t78.5 54t102 18zM291 458q-30 0 -57.5 -11t-48 -35t-33 -61.5t-12.5 -91.5q0 -34 6.5 -67.5t22 -60.5
t42.5 -44t68 -17q30 0 57.5 11t48 35t33 61.5t12.5 91.5q0 34 -6.5 67.5t-22 60.5t-42.5 44t-68 17zM147 646q-14 19 -8 27q16 19 40.5 33t55.5 14q22 0 37 -6q16 -6 28 -12l24 -13q12 -6 30 -6q16 0 29 8.5t22 18.5q4 4 11 -0.5t15 -14.5l6 -8q6 -8 8.5 -15.5t-0.5 -11.5
q-14 -20 -38.5 -36t-54.5 -16q-19 0 -33 6q-13 6 -27 12l-28 13q-14 6 -31 6q-16 0 -29.5 -8t-23.5 -19q-4 -4 -11 1.5t-15 16.5z" />
    <glyph glyph-name="odieresis" unicode="&#xf6;" 
d="M295 538q94 0 150 -50q38 -33 58.5 -87t20.5 -125t-18 -124.5t-50.5 -89.5t-78.5 -54t-102 -18q-94 0 -150 50q-38 33 -58.5 87t-20.5 125t18 124.5t50.5 89.5t78.5 54t102 18zM291 458q-30 0 -57.5 -11t-48 -35t-33 -61.5t-12.5 -91.5q0 -34 6.5 -67.5t22 -60.5
t42.5 -44t68 -17q30 0 57.5 11t48 35t33 61.5t12.5 91.5q0 34 -6.5 67.5t-22 60.5t-42.5 44t-68 17zM118 655q0 24 16.5 40.5t40.5 16.5t40.5 -16.5t16.5 -40.5t-16.5 -40.5t-40.5 -16.5t-40.5 16.5t-16.5 40.5zM351 655q0 24 16.5 40.5t40.5 16.5t40.5 -16.5t16.5 -40.5
t-16.5 -40.5t-40.5 -16.5t-40.5 16.5t-16.5 40.5z" />
    <glyph glyph-name="divide" unicode="&#xf7;" 
d="M527 398q9 0 9 -29v-9q0 -17 -2 -23.5t-7 -6.5h-484q-5 0 -7 6.5t-2 23.5v9q0 29 9 29h484zM287 624q26 0 43.5 -17.5t17.5 -43.5q0 -25 -17.5 -42.5t-43.5 -17.5q-25 0 -42.5 17.5t-17.5 42.5q0 26 17.5 43.5t42.5 17.5zM287 222q26 0 43.5 -17.5t17.5 -43.5
q0 -25 -17.5 -42.5t-43.5 -17.5q-25 0 -42.5 17.5t-17.5 42.5q0 26 17.5 43.5t42.5 17.5z" />
    <glyph glyph-name="oslash" unicode="&#xf8;" horiz-adv-x="583" 
d="M444 565q7 11 30 -6l24 -17q21 -15 14 -24l-38 -53q27 -34 42 -81.5t15 -107.5q0 -71 -18 -124.5t-50.5 -89.5t-78.5 -54t-102 -18q-38 0 -69.5 7.5t-57.5 24.5l-36 -49q-7 -11 -30 6l-21 17q-21 15 -14 24l43 60q-44 67 -44 172q0 71 18 124.5t50.5 89.5t78.5 54t102 18
q63 0 108 -22zM203 98q33 -27 83 -27q30 0 57.5 11t48 34.5t33 61t12.5 91.5q0 31 -5 62t-19 57zM362 442q-27 15 -64 15q-30 0 -57.5 -11t-48 -34.5t-33 -61t-12.5 -91.5q0 -25 3 -49.5t11 -47.5z" />
    <glyph glyph-name="ugrave" unicode="&#xf9;" horiz-adv-x="581" 
d="M117 528q29 0 35.5 -3t6.5 -9v-262q0 -59 4 -93t21 -54q28 -34 89 -34q29 0 60 9.5t49 26.5q8 7 14 17.5t10 28.5t6 45.5t2 68.5v247q0 5 7 8.5t33 3.5h9q26 0 33.5 -3t7.5 -9v-341q0 -26 0.5 -51t0.5 -46.5t0.5 -39t0.5 -26.5q0 -6 -6 -9t-35 -3h-4q-26 0 -33.5 3
t-7.5 9l-2 43h-1q-28 -31 -69 -48t-97 -17q-83 0 -133 53q-26 28 -37.5 68.5t-11.5 101.5v303q0 3 1 5t5 3.5t12 2.5t22 1h8zM240 732q40 0 46 -11l73 -128q2 -5 -3 -8.5t-29 -3.5h-9q-18 0 -26 2.5t-11 6.5l-94 128q-4 5 4 9.5t36 4.5h13z" />
    <glyph glyph-name="uacute" unicode="&#xfa;" horiz-adv-x="581" 
d="M117 528q29 0 35.5 -3t6.5 -9v-262q0 -59 4 -93t21 -54q28 -34 89 -34q29 0 60 9.5t49 26.5q8 7 14 17.5t10 28.5t6 45.5t2 68.5v247q0 5 7 8.5t33 3.5h9q26 0 33.5 -3t7.5 -9v-341q0 -26 0.5 -51t0.5 -46.5t0.5 -39t0.5 -26.5q0 -6 -6 -9t-35 -3h-4q-26 0 -33.5 3
t-7.5 9l-2 43h-1q-28 -31 -69 -48t-97 -17q-83 0 -133 53q-26 28 -37.5 68.5t-11.5 101.5v303q0 3 1 5t5 3.5t12 2.5t22 1h8zM360 732q28 0 35.5 -4.5t2.5 -9.5l-93 -128q-2 -4 -10 -6.5t-26 -2.5h-8q-24 0 -28.5 3.5t-1.5 8.5l73 128q3 5 13 8t31 3h12z" />
    <glyph glyph-name="ucircumflex" unicode="&#xfb;" horiz-adv-x="581" 
d="M117 528q29 0 35.5 -3t6.5 -9v-262q0 -59 4 -93t21 -54q28 -34 89 -34q29 0 60 9.5t49 26.5q8 7 14 17.5t10 28.5t6 45.5t2 68.5v247q0 5 7 8.5t33 3.5h9q26 0 33.5 -3t7.5 -9v-341q0 -26 0.5 -51t0.5 -46.5t0.5 -39t0.5 -26.5q0 -6 -6 -9t-35 -3h-4q-26 0 -33.5 3
t-7.5 9l-2 43h-1q-28 -31 -69 -48t-97 -17q-83 0 -133 53q-26 28 -37.5 68.5t-11.5 101.5v303q0 3 1 5t5 3.5t12 2.5t22 1h8zM232 724q5 6 14.5 9.5t29.5 4.5h38q21 0 30.5 -5t14.5 -10l89 -94q9 -9 -10 -29l-8 -9q-7 -8 -14.5 -11.5t-11.5 0.5l-110 96l-112 -95
q-7 -7 -24 11l-7 8q-17 19 -10 27z" />
    <glyph glyph-name="udieresis" unicode="&#xfc;" horiz-adv-x="581" 
d="M117 528q29 0 35.5 -3t6.5 -9v-262q0 -59 4 -93t21 -54q28 -34 89 -34q29 0 60 9.5t49 26.5q8 7 14 17.5t10 28.5t6 45.5t2 68.5v247q0 5 7 8.5t33 3.5h9q26 0 33.5 -3t7.5 -9v-341q0 -26 0.5 -51t0.5 -46.5t0.5 -39t0.5 -26.5q0 -6 -6 -9t-35 -3h-4q-26 0 -33.5 3
t-7.5 9l-2 43h-1q-28 -31 -69 -48t-97 -17q-83 0 -133 53q-26 28 -37.5 68.5t-11.5 101.5v303q0 3 1 5t5 3.5t12 2.5t22 1h8zM123 655q0 24 16.5 40.5t40.5 16.5t40.5 -16.5t16.5 -40.5t-16.5 -40.5t-40.5 -16.5t-40.5 16.5t-16.5 40.5zM356 655q0 24 16.5 40.5t40.5 16.5
t40.5 -16.5t16.5 -40.5t-16.5 -40.5t-40.5 -16.5t-40.5 16.5t-16.5 40.5z" />
    <glyph glyph-name="yacute" unicode="&#xfd;" horiz-adv-x="507" 
d="M210 268q20 -54 32 -92t23 -79q8 35 22 77l29 87l89 256q2 7 12 9t33 2q29 0 39 -3q8 -2 8 -8q0 -1 -1 -3l-189 -526q-40 -112 -85 -160q-31 -33 -68 -47t-81 -14q-20 0 -42 5t-38 13q-8 5 -8 11.5t5 20.5l4 12q6 18 10 22.5t12 2.5q14 -4 26.5 -6.5t27.5 -2.5
q25 0 45 7.5t37.5 24.5t33 46t31.5 71l-199 520q-4 9 6.5 11.5t40.5 2.5q27 0 38 -2.5t13 -8.5zM338 732q28 0 35.5 -4.5t2.5 -9.5l-93 -128q-2 -4 -10 -6.5t-26 -2.5h-8q-24 0 -28.5 3.5t-1.5 8.5l73 128q3 5 13 8t31 3h12z" />
    <glyph glyph-name="thorn" unicode="&#xfe;" horiz-adv-x="563" 
d="M123 760q30 0 35.5 -3.5t5.5 -8.5v-271q24 27 62 44t78 17q100 0 156.5 -69.5t56.5 -193.5q0 -56 -15 -107.5t-45 -90.5t-76 -62.5t-108 -23.5q-29 0 -59.5 9t-49.5 22v-241q0 -8 -8.5 -10.5t-34.5 -2.5h-6q-24 0 -32.5 2.5t-8.5 10.5v967q0 6 6.5 9t36.5 3h6zM164 110
q19 -16 46.5 -27t57.5 -11q71 0 113 54.5t42 145.5t-37.5 138t-96.5 47q-30 0 -60.5 -12t-45.5 -32q-11 -14 -15 -34t-4 -63v-206z" />
    <glyph glyph-name="ydieresis" unicode="&#xff;" horiz-adv-x="507" 
d="M210 268q20 -54 32 -92t23 -79q8 35 22 77l29 87l89 256q2 7 12 9t33 2q29 0 39 -3q8 -2 8 -8q0 -1 -1 -3l-189 -526q-40 -112 -85 -160q-31 -33 -68 -47t-81 -14q-20 0 -42 5t-38 13q-8 5 -8 11.5t5 20.5l4 12q6 18 10 22.5t12 2.5q14 -4 26.5 -6.5t27.5 -2.5
q25 0 45 7.5t37.5 24.5t33 46t31.5 71l-199 520q-4 9 6.5 11.5t40.5 2.5q27 0 38 -2.5t13 -8.5zM94 655q0 24 16.5 40.5t40.5 16.5t40.5 -16.5t16.5 -40.5t-16.5 -40.5t-40.5 -16.5t-40.5 16.5t-16.5 40.5zM327 655q0 24 16.5 40.5t40.5 16.5t40.5 -16.5t16.5 -40.5
t-16.5 -40.5t-40.5 -16.5t-40.5 16.5t-16.5 40.5z" />
    <glyph glyph-name="Amacron" unicode="&#x100;" horiz-adv-x="648" 
d="M332 720q23 0 33 -2.5t12 -8.5l248 -698q2 -6 -10 -8.5t-33 -2.5h-15q-20 0 -32 2.5t-14 8.5l-59 176h-282l-59 -176q-4 -11 -44 -11h-13q-21 0 -32 2.5t-9 8.5l244 698q2 6 11.5 8.5t34.5 2.5h19zM203 266h235l-118 354zM461 874q10 0 10 -29v-12q0 -32 -10 -32h-275
q-10 0 -10 32v12q0 29 10 29h275z" />
    <glyph glyph-name="amacron" unicode="&#x101;" horiz-adv-x="567" 
d="M453 528q28 0 33.5 -3t5.5 -9q0 -18 -1 -61t-1 -91v-140q0 -69 2 -120l5 -92q0 -6 -6.5 -9t-29.5 -3h-4q-23 0 -30 2.5t-8 9.5l-6 46q-24 -29 -64.5 -48.5t-89.5 -19.5q-55 0 -95 21t-66.5 57.5t-39.5 84.5t-13 102q0 64 17.5 116.5t48 89.5t72.5 57t92 20
q45 0 79.5 -18.5t55.5 -45.5l5 42q1 9 7 10.5t29 1.5h2zM400 389q-17 27 -48.5 47.5t-66.5 20.5q-69 0 -107.5 -53t-38.5 -144q0 -35 7 -69t22.5 -61t41.5 -43.5t65 -16.5q25 0 52.5 8.5t47.5 30.5q8 9 13 19t7.5 26t3.5 38t1 55v142zM421 693q10 0 10 -29v-12
q0 -32 -10 -32h-275q-10 0 -10 32v12q0 29 10 29h275z" />
    <glyph glyph-name="Abreve" unicode="&#x102;" horiz-adv-x="648" 
d="M332 720q23 0 33 -2.5t12 -8.5l248 -698q2 -6 -10 -8.5t-33 -2.5h-15q-20 0 -32 2.5t-14 8.5l-59 176h-282l-59 -176q-4 -11 -44 -11h-13q-21 0 -32 2.5t-9 8.5l244 698q2 6 11.5 8.5t34.5 2.5h19zM203 266h235l-118 354zM219 912q17 0 23 -2.5t7 -7.5q3 -29 22.5 -44
t51.5 -15t51 15.5t23 43.5q1 5 7 7.5t23 2.5h13q32 0 32 -10q-4 -61 -45.5 -90t-105.5 -29q-62 0 -102 28t-44 91q0 10 32 10h12z" />
    <glyph glyph-name="abreve" unicode="&#x103;" horiz-adv-x="567" 
d="M453 528q28 0 33.5 -3t5.5 -9q0 -18 -1 -61t-1 -91v-140q0 -69 2 -120l5 -92q0 -6 -6.5 -9t-29.5 -3h-4q-23 0 -30 2.5t-8 9.5l-6 46q-24 -29 -64.5 -48.5t-89.5 -19.5q-55 0 -95 21t-66.5 57.5t-39.5 84.5t-13 102q0 64 17.5 116.5t48 89.5t72.5 57t92 20
q45 0 79.5 -18.5t55.5 -45.5l5 42q1 9 7 10.5t29 1.5h2zM400 389q-17 27 -48.5 47.5t-66.5 20.5q-69 0 -107.5 -53t-38.5 -144q0 -35 7 -69t22.5 -61t41.5 -43.5t65 -16.5q25 0 52.5 8.5t47.5 30.5q8 9 13 19t7.5 26t3.5 38t1 55v142zM179 722q17 0 23 -2.5t7 -7.5
q3 -29 22.5 -44t51.5 -15t51 15.5t23 43.5q1 5 7 7.5t23 2.5h13q32 0 32 -10q-4 -61 -45.5 -90t-105.5 -29q-62 0 -102 28t-44 91q0 10 32 10h12z" />
    <glyph glyph-name="Aogonek" unicode="&#x104;" horiz-adv-x="648" 
d="M332 720q23 0 33 -2.5t12 -8.5l247 -695q2 -7 -0.5 -9t-10.5 -4q-18 -3 -35 -12.5t-30.5 -23t-21.5 -31t-8 -36.5q0 -26 15 -34.5t34 -8.5q8 0 19 1t22 5q8 2 14 -22l2 -9q3 -14 2.5 -19.5t-4.5 -7.5q-14 -6 -33 -10t-39 -4q-28 0 -49 8t-34.5 20.5t-20.5 29t-7 34.5
q0 39 23.5 72t59.5 53l-60 181h-282l-59 -176q-4 -11 -44 -11h-13q-21 0 -32 2.5t-9 8.5l244 698q2 6 11.5 8.5t34.5 2.5h19zM203 266h235l-118 354z" />
    <glyph glyph-name="aogonek" unicode="&#x105;" horiz-adv-x="567" 
d="M311 -119q0 38 23.5 74t83.5 64l-5 39q-24 -29 -64.5 -48.5t-89.5 -19.5q-55 0 -95 21t-66.5 57.5t-39.5 84.5t-13 102q0 64 17.5 116.5t48 89.5t72.5 57t92 20q45 0 79.5 -18.5t55.5 -45.5l5 42q1 9 7 10.5t29 1.5h2q28 0 33.5 -3t5.5 -9q0 -18 -1 -61t-1 -91v-140
q0 -69 1.5 -118.5t5.5 -91.5q1 -10 -12 -13q-18 -3 -35 -12.5t-30.5 -23t-21.5 -31t-8 -36.5q0 -26 15 -34.5t34 -8.5q8 0 19 1t22 5q8 2 14 -22l2 -9q3 -14 2.5 -19.5t-4.5 -7.5q-14 -6 -33 -10t-39 -4q-28 0 -49 8t-34.5 20.5t-20.5 29t-7 34.5zM400 389
q-17 27 -48.5 47.5t-66.5 20.5q-69 0 -107.5 -53t-38.5 -144q0 -35 7 -69t22.5 -61t41.5 -43.5t65 -16.5q25 0 52.5 8.5t47.5 30.5q8 9 13 19t7.5 26t3.5 38t1 55v142z" />
    <glyph glyph-name="Cacute" unicode="&#x106;" horiz-adv-x="573" 
d="M522 634q-6 -12 -12.5 -18.5t-11.5 -4.5q-35 19 -68.5 28.5t-68.5 9.5q-45 0 -84.5 -17.5t-68.5 -53.5t-45.5 -91t-16.5 -131q0 -52 10 -103t34 -91t64.5 -64.5t101.5 -24.5q71 0 137 33q5 2 11.5 -3t12.5 -19l6 -13q5 -11 6.5 -21t-3.5 -13q-82 -47 -188 -47
q-75 0 -129.5 26.5t-90.5 74.5t-53 114t-17 145q0 74 15.5 143t51 121.5t93.5 84t143 31.5q51 0 97 -12.5t83 -37.5q4 -2 4 -9q0 -10 -7 -25zM405 914q28 0 35.5 -4.5t3.5 -9.5l-94 -128q-4 -5 -11 -7t-25 -2h-8q-24 0 -28.5 3.5t-1.5 8.5l73 128q3 5 13 8t31 3h12z" />
    <glyph glyph-name="cacute" unicode="&#x107;" horiz-adv-x="487" 
d="M444 70q8 -18 6.5 -25t-6.5 -10q-38 -21 -80.5 -33t-89.5 -12q-57 0 -100 20.5t-71.5 56.5t-43 84.5t-14.5 104.5q0 69 19 121.5t52 88t78 54t97 18.5q48 0 88.5 -14.5t72.5 -37.5q6 -5 6 -12q0 -8 -12 -34q-6 -13 -10.5 -19t-8.5 -8.5t-7 -1.5t-6 3q-28 19 -58 30.5
t-60 11.5q-70 0 -113.5 -50t-43.5 -144q0 -36 8 -70t25 -61t45 -43t69 -16q32 0 65 8.5t62 22.5q6 3 13 -0.5t13 -19.5zM343 732q28 0 35.5 -4.5t2.5 -9.5l-93 -128q-2 -4 -10 -6.5t-26 -2.5h-8q-24 0 -28.5 3.5t-1.5 8.5l73 128q3 5 13 8t31 3h12z" />
    <glyph glyph-name="Ccircumflex" unicode="&#x108;" horiz-adv-x="573" 
d="M522 634q-6 -12 -12.5 -18.5t-11.5 -4.5q-35 19 -68.5 28.5t-68.5 9.5q-45 0 -84.5 -17.5t-68.5 -53.5t-45.5 -91t-16.5 -131q0 -52 10 -103t34 -91t64.5 -64.5t101.5 -24.5q71 0 137 33q5 2 11.5 -3t12.5 -19l6 -13q5 -11 6.5 -21t-3.5 -13q-82 -47 -188 -47
q-75 0 -129.5 26.5t-90.5 74.5t-53 114t-17 145q0 74 15.5 143t51 121.5t93.5 84t143 31.5q51 0 97 -12.5t83 -37.5q4 -2 4 -9q0 -10 -7 -25zM286 896q5 6 14.5 9.5t29.5 4.5h38q21 0 30.5 -5t14.5 -10l89 -94q9 -9 -10 -29l-8 -9q-7 -8 -14.5 -11.5t-11.5 0.5l-110 96
l-112 -95q-7 -7 -24 11l-7 8q-17 19 -10 27z" />
    <glyph glyph-name="ccircumflex" unicode="&#x109;" horiz-adv-x="487" 
d="M444 70q8 -18 6.5 -25t-6.5 -10q-38 -21 -80.5 -33t-89.5 -12q-57 0 -100 20.5t-71.5 56.5t-43 84.5t-14.5 104.5q0 69 19 121.5t52 88t78 54t97 18.5q48 0 88.5 -14.5t72.5 -37.5q6 -5 6 -12q0 -8 -12 -34q-6 -13 -10.5 -19t-8.5 -8.5t-7 -1.5t-6 3q-28 19 -58 30.5
t-60 11.5q-70 0 -113.5 -50t-43.5 -144q0 -36 8 -70t25 -61t45 -43t69 -16q32 0 65 8.5t62 22.5q6 3 13 -0.5t13 -19.5zM232 724q5 6 14.5 9.5t29.5 4.5h38q21 0 30.5 -5t14.5 -10l89 -94q9 -9 -10 -29l-8 -9q-7 -8 -14.5 -11.5t-11.5 0.5l-110 96l-112 -95q-7 -7 -24 11
l-7 8q-17 19 -10 27z" />
    <glyph glyph-name="Cdotaccent" unicode="&#x10a;" horiz-adv-x="573" 
d="M522 634q-6 -12 -12.5 -18.5t-11.5 -4.5q-35 19 -68.5 28.5t-68.5 9.5q-45 0 -84.5 -17.5t-68.5 -53.5t-45.5 -91t-16.5 -131q0 -52 10 -103t34 -91t64.5 -64.5t101.5 -24.5q71 0 137 33q5 2 11.5 -3t12.5 -19l6 -13q5 -11 6.5 -21t-3.5 -13q-82 -47 -188 -47
q-75 0 -129.5 26.5t-90.5 74.5t-53 114t-17 145q0 74 15.5 143t51 121.5t93.5 84t143 31.5q51 0 97 -12.5t83 -37.5q4 -2 4 -9q0 -10 -7 -25zM291 842q0 23 17 39.5t40 16.5t39.5 -16.5t16.5 -39.5t-16.5 -40t-39.5 -17t-40 17t-17 40z" />
    <glyph glyph-name="cdotaccent" unicode="&#x10b;" horiz-adv-x="487" 
d="M444 70q8 -18 6.5 -25t-6.5 -10q-38 -21 -80.5 -33t-89.5 -12q-57 0 -100 20.5t-71.5 56.5t-43 84.5t-14.5 104.5q0 69 19 121.5t52 88t78 54t97 18.5q48 0 88.5 -14.5t72.5 -37.5q6 -5 6 -12q0 -8 -12 -34q-6 -13 -10.5 -19t-8.5 -8.5t-7 -1.5t-6 3q-28 19 -58 30.5
t-60 11.5q-70 0 -113.5 -50t-43.5 -144q0 -36 8 -70t25 -61t45 -43t69 -16q32 0 65 8.5t62 22.5q6 3 13 -0.5t13 -19.5zM233 662q0 23 17 39.5t40 16.5t39.5 -16.5t16.5 -39.5t-16.5 -40t-39.5 -17t-40 17t-17 40z" />
    <glyph glyph-name="Ccaron" unicode="&#x10c;" horiz-adv-x="573" 
d="M522 634q-6 -12 -12.5 -18.5t-11.5 -4.5q-35 19 -68.5 28.5t-68.5 9.5q-45 0 -84.5 -17.5t-68.5 -53.5t-45.5 -91t-16.5 -131q0 -52 10 -103t34 -91t64.5 -64.5t101.5 -24.5q71 0 137 33q5 2 11.5 -3t12.5 -19l6 -13q5 -11 6.5 -21t-3.5 -13q-82 -47 -188 -47
q-75 0 -129.5 26.5t-90.5 74.5t-53 114t-17 145q0 74 15.5 143t51 121.5t93.5 84t143 31.5q51 0 97 -12.5t83 -37.5q4 -2 4 -9q0 -10 -7 -25zM213 911q7 8 15.5 13t12.5 0l112 -98l109 95q9 7 25 -11l6 -7q17 -18 9 -27l-91 -97q-5 -6 -14.5 -9.5t-29.5 -3.5h-38
q-21 0 -30.5 4.5t-14.5 9.5l-89 94q-5 5 -1.5 12.5t11.5 15.5z" />
    <glyph glyph-name="ccaron" unicode="&#x10d;" horiz-adv-x="487" 
d="M444 70q8 -18 6.5 -25t-6.5 -10q-38 -21 -80.5 -33t-89.5 -12q-57 0 -100 20.5t-71.5 56.5t-43 84.5t-14.5 104.5q0 69 19 121.5t52 88t78 54t97 18.5q48 0 88.5 -14.5t72.5 -37.5q6 -5 6 -12q0 -8 -12 -34q-6 -13 -10.5 -19t-8.5 -8.5t-7 -1.5t-6 3q-28 19 -58 30.5
t-60 11.5q-70 0 -113.5 -50t-43.5 -144q0 -36 8 -70t25 -61t45 -43t69 -16q32 0 65 8.5t62 22.5q6 3 13 -0.5t13 -19.5zM158 720q7 8 15.5 13t12.5 0l112 -98l109 95q9 7 25 -11l6 -7q17 -18 9 -27l-91 -97q-5 -6 -14.5 -9.5t-29.5 -3.5h-38q-21 0 -30.5 4.5t-14.5 9.5
l-89 94q-5 5 -1.5 12.5t11.5 15.5z" />
    <glyph glyph-name="Dcaron" unicode="&#x10e;" horiz-adv-x="654" 
d="M248 720q99 0 163 -20t110 -68q42 -43 65 -108.5t23 -159.5q0 -93 -25 -166.5t-77 -123.5q-45 -43 -108 -58.5t-146 -15.5h-173v720h168zM175 78h80q52 0 99 12t81 44q38 35 57 93t19 134q0 69 -15 120.5t-42 84.5q-29 36 -75 56t-118 20h-86v-564zM192 912q7 8 15.5 13
t12.5 0l112 -98l109 95q9 7 25 -11l6 -7q17 -18 9 -27l-91 -97q-5 -6 -14.5 -9.5t-29.5 -3.5h-38q-21 0 -30.5 4.5t-14.5 9.5l-89 94q-5 5 -1.5 12.5t11.5 15.5z" />
    <glyph glyph-name="dcaron" unicode="&#x10f;" horiz-adv-x="662" 
d="M450 760q24 0 32.5 -2.5t8.5 -10.5v-622q0 -19 1.5 -29.5t5.5 -16t11 -7t17 -1.5q5 0 7 -5.5t2 -21.5v-7q0 -18 -2 -24.5t-7 -8.5q-11 -4 -21 -5t-23 -1q-23 0 -41.5 14.5t-27.5 43.5h-1q-19 -26 -59 -46t-94 -20q-100 0 -157 69.5t-57 193.5q0 56 15 107.5t45 91
t75.5 63t107.5 23.5q31 0 62.5 -10t50.5 -23v242q0 8 8.5 10.5t34.5 2.5h6zM401 419q-19 16 -48.5 26.5t-59.5 10.5q-71 0 -112.5 -54.5t-41.5 -145.5q0 -46 10.5 -81t29 -58t44 -35t54.5 -12q26 0 52 8.5t43 25.5t23 47t6 93v175zM551 506q-11 12 -1 22q17 17 32 38t15 43
q0 12 -5.5 19.5t-12.5 14.5t-12.5 16t-5.5 24q0 21 16 34t36 12q27 0 43 -18t16 -45q0 -48 -24 -94t-65 -78q-7 -5 -11.5 -4.5t-11.5 6.5z" />
    <glyph glyph-name="Dcroat" unicode="&#x110;" horiz-adv-x="668" 
d="M262 720q99 0 163 -20t110 -68q42 -43 65 -108.5t23 -159.5q0 -93 -25 -166.5t-77 -123.5q-45 -43 -108 -58.5t-146 -15.5h-173v328h-55q-10 0 -10 32v11q0 31 10 31h55v318h168zM189 402h168q10 0 10 -31v-11q0 -32 -10 -32h-168v-250h80q52 0 99 12t81 44q38 35 57 93
t19 134q0 69 -15 120.5t-42 84.5q-29 36 -75 56t-118 20h-86v-240z" />
    <glyph glyph-name="dcroat" unicode="&#x111;" horiz-adv-x="580" 
d="M401 674v73q0 8 8.5 10.5t34.5 2.5h6q24 0 32.5 -2.5t8.5 -10.5v-73h58q9 0 9 -32t-9 -32h-58v-485q0 -19 1.5 -29.5t5.5 -16t11 -7t17 -1.5q5 0 7 -5.5t2 -21.5v-7q0 -18 -2 -24.5t-7 -8.5q-11 -4 -21 -5t-23 -1q-23 0 -41.5 14.5t-27.5 43.5h-1q-19 -26 -59 -46
t-94 -20q-100 0 -157 69.5t-57 193.5q0 56 15 107.5t45 91t75.5 63t107.5 23.5q31 0 62.5 -10t50.5 -23v105h-157q-9 0 -9 32t9 32h157zM401 419q-19 16 -48.5 26.5t-59.5 10.5q-71 0 -112.5 -54.5t-41.5 -145.5q0 -46 10.5 -81t29 -58t44 -35t54.5 -12q26 0 52 8.5t43 25.5
t23 47t6 93v175z" />
    <glyph glyph-name="Emacron" unicode="&#x112;" horiz-adv-x="544" 
d="M480 720q9 0 9 -33v-12q0 -34 -9 -34h-305v-237h259q9 0 9 -33v-12q0 -34 -9 -34h-259v-245h309q9 0 9 -33v-13q0 -34 -9 -34h-404v720h400zM419 874q10 0 10 -29v-12q0 -32 -10 -32h-275q-10 0 -10 32v12q0 29 10 29h275z" />
    <glyph glyph-name="emacron" unicode="&#x113;" horiz-adv-x="544" 
d="M139 232q2 -42 14.5 -73t35.5 -51q40 -36 118 -36q62 0 132 32q7 3 12 1.5t13 -20.5l5 -12q8 -20 8 -26.5t-6 -10.5q-78 -46 -181 -46q-122 0 -183.5 70.5t-61.5 191.5q0 63 16.5 115.5t48 90.5t75.5 59t100 21q67 0 112.5 -30t70.5 -80q17 -35 25 -75t8 -85
q0 -23 -2 -29.5t-8 -6.5h-352zM409 306q0 28 -7.5 55t-22.5 48t-38.5 34t-54.5 13q-55 0 -94 -36t-50 -114h267zM424 693q10 0 10 -29v-12q0 -32 -10 -32h-275q-10 0 -10 32v12q0 29 10 29h275z" />
    <glyph glyph-name="Ebreve" unicode="&#x114;" horiz-adv-x="544" 
d="M480 720q9 0 9 -33v-12q0 -34 -9 -34h-305v-237h259q9 0 9 -33v-12q0 -34 -9 -34h-259v-245h309q9 0 9 -33v-13q0 -34 -9 -34h-404v720h400zM187 912q17 0 23 -2.5t7 -7.5q3 -29 22.5 -44t51.5 -15t51 15.5t23 43.5q1 5 7 7.5t23 2.5h13q32 0 32 -10q-4 -61 -45.5 -90
t-105.5 -29q-62 0 -102 28t-44 91q0 10 32 10h12z" />
    <glyph glyph-name="ebreve" unicode="&#x115;" horiz-adv-x="544" 
d="M139 232q2 -42 14.5 -73t35.5 -51q40 -36 118 -36q62 0 132 32q7 3 12 1.5t13 -20.5l5 -12q8 -20 8 -26.5t-6 -10.5q-78 -46 -181 -46q-122 0 -183.5 70.5t-61.5 191.5q0 63 16.5 115.5t48 90.5t75.5 59t100 21q67 0 112.5 -30t70.5 -80q17 -35 25 -75t8 -85
q0 -23 -2 -29.5t-8 -6.5h-352zM409 306q0 28 -7.5 55t-22.5 48t-38.5 34t-54.5 13q-55 0 -94 -36t-50 -114h267zM181 722q17 0 23 -2.5t7 -7.5q3 -29 22.5 -44t51.5 -15t51 15.5t23 43.5q1 5 7 7.5t23 2.5h13q32 0 32 -10q-4 -61 -45.5 -90t-105.5 -29q-62 0 -102 28t-44 91
q0 10 32 10h12z" />
    <glyph glyph-name="Edotaccent" unicode="&#x116;" horiz-adv-x="544" 
d="M480 720q9 0 9 -33v-12q0 -34 -9 -34h-305v-237h259q9 0 9 -33v-12q0 -34 -9 -34h-259v-245h309q9 0 9 -33v-13q0 -34 -9 -34h-404v720h400zM235 842q0 23 17 39.5t40 16.5t39.5 -16.5t16.5 -39.5t-16.5 -40t-39.5 -17t-40 17t-17 40z" />
    <glyph glyph-name="edotaccent" unicode="&#x117;" horiz-adv-x="544" 
d="M139 232q2 -42 14.5 -73t35.5 -51q40 -36 118 -36q62 0 132 32q7 3 12 1.5t13 -20.5l5 -12q8 -20 8 -26.5t-6 -10.5q-78 -46 -181 -46q-122 0 -183.5 70.5t-61.5 191.5q0 63 16.5 115.5t48 90.5t75.5 59t100 21q67 0 112.5 -30t70.5 -80q17 -35 25 -75t8 -85
q0 -23 -2 -29.5t-8 -6.5h-352zM409 306q0 28 -7.5 55t-22.5 48t-38.5 34t-54.5 13q-55 0 -94 -36t-50 -114h267zM230 662q0 23 17 39.5t40 16.5t39.5 -16.5t16.5 -39.5t-16.5 -40t-39.5 -17t-40 17t-17 40z" />
    <glyph glyph-name="Eogonek" unicode="&#x118;" horiz-adv-x="544" 
d="M480 720q9 0 9 -33v-12q0 -34 -9 -34h-305v-237h259q9 0 9 -33v-12q0 -34 -9 -34h-259v-245h309q9 0 9 -33v-13q0 -34 -9 -34h-7q-19 0 -36.5 -8.5t-31.5 -23t-22.5 -33t-8.5 -37.5q0 -25 15 -34t34 -9q8 0 19 1t22 5q8 2 14 -22l2 -9q3 -14 2.5 -19.5t-4.5 -7.5
q-14 -6 -33 -10t-39 -4q-28 0 -49 8t-34.5 20.5t-20.5 29t-7 34.5q0 36 19.5 68t52.5 51h-291v720h400z" />
    <glyph glyph-name="eogonek" unicode="&#x119;" horiz-adv-x="544" 
d="M139 232q2 -42 14.5 -73t35.5 -51q40 -36 118 -36q62 0 132 32q7 3 12 1.5t13 -20.5l5 -12q6 -15 7 -22.5t-6 -11.5q-54 -32 -86.5 -64t-32.5 -74q0 -25 14 -35.5t35 -10.5q18 0 41 6q8 2 14 -22l2 -9q3 -14 2.5 -19.5t-4.5 -7.5q-14 -6 -33 -10t-39 -4q-28 0 -48.5 8
t-34.5 20.5t-21 29t-7 34.5q0 33 17 62t45 50q-23 -3 -44 -3q-122 0 -183.5 70.5t-61.5 191.5q0 63 17 115.5t48.5 90.5t75.5 59t100 21q66 0 111.5 -30t70.5 -80q17 -35 25 -75t8 -85q0 -23 -2 -29.5t-8 -6.5h-352zM409 306q0 28 -7.5 55t-22.5 48t-38 34t-54 13
q-55 0 -94.5 -36t-50.5 -114h267z" />
    <glyph glyph-name="Ecaron" unicode="&#x11a;" horiz-adv-x="544" 
d="M480 720q9 0 9 -33v-12q0 -34 -9 -34h-305v-237h259q9 0 9 -33v-12q0 -34 -9 -34h-259v-245h309q9 0 9 -33v-13q0 -34 -9 -34h-404v720h400zM160 912q7 8 15.5 13t12.5 0l112 -98l109 95q9 7 25 -11l6 -7q17 -18 9 -27l-91 -97q-5 -6 -14.5 -9.5t-29.5 -3.5h-38
q-21 0 -30.5 4.5t-14.5 9.5l-89 94q-5 5 -1.5 12.5t11.5 15.5z" />
    <glyph glyph-name="ecaron" unicode="&#x11b;" horiz-adv-x="544" 
d="M139 232q2 -42 14.5 -73t35.5 -51q40 -36 118 -36q62 0 132 32q7 3 12 1.5t13 -20.5l5 -12q8 -20 8 -26.5t-6 -10.5q-78 -46 -181 -46q-122 0 -183.5 70.5t-61.5 191.5q0 63 16.5 115.5t48 90.5t75.5 59t100 21q67 0 112.5 -30t70.5 -80q17 -35 25 -75t8 -85
q0 -23 -2 -29.5t-8 -6.5h-352zM409 306q0 28 -7.5 55t-22.5 48t-38.5 34t-54.5 13q-55 0 -94 -36t-50 -114h267zM151 720q7 8 15.5 13t12.5 0l112 -98l109 95q9 7 25 -11l6 -7q17 -18 9 -27l-91 -97q-5 -6 -14.5 -9.5t-29.5 -3.5h-38q-21 0 -30.5 4.5t-14.5 9.5l-89 94
q-5 5 -1.5 12.5t11.5 15.5z" />
    <glyph glyph-name="Gcircumflex" unicode="&#x11c;" horiz-adv-x="635" 
d="M543 623q-8 -14 -15.5 -18.5t-12.5 -1.5q-38 24 -78.5 35.5t-82.5 11.5q-55 0 -95.5 -20.5t-67 -59t-39.5 -92t-13 -119.5q0 -64 12.5 -117t39.5 -91.5t69.5 -59.5t102.5 -21q32 0 64.5 5.5t56.5 15.5v216h-157q-9 0 -9 32v14q0 33 9 33h251v-346q-21 -9 -47.5 -18
t-56.5 -16t-62 -11.5t-64 -4.5q-77 0 -134.5 25t-95.5 72t-57.5 114t-19.5 152q0 86 19.5 155.5t58.5 119t97 76t134 26.5q64 0 114.5 -16t87.5 -44q5 -3 5.5 -12t-7.5 -23zM284 896q5 6 14.5 9.5t29.5 4.5h38q21 0 30.5 -5t14.5 -10l89 -94q9 -9 -10 -29l-8 -9
q-7 -8 -14.5 -11.5t-11.5 0.5l-110 96l-112 -95q-7 -7 -24 11l-7 8q-17 19 -10 27z" />
    <glyph glyph-name="gcircumflex" unicode="&#x11d;" horiz-adv-x="565" 
d="M404 284q0 50 -3 74.5t-12 41.5q-12 23 -38.5 38.5t-69.5 15.5q-66 0 -104 -52t-38 -140t34 -134.5t103 -46.5q38 0 73 16.5t55 42.5v144zM448 528q24 0 31.5 -2.5t8.5 -10.5q1 -18 2.5 -51t1.5 -70l2 -70v-57v-166q0 -66 -4 -109.5t-15 -78.5q-11 -36 -32.5 -63t-51 -46
t-64.5 -28.5t-73 -9.5q-19 0 -40.5 2t-42 6t-38.5 10t-30 13q-5 2 -5 10t6 25l4 12q6 18 9.5 23t7.5 5t11 -3t13 -5q22 -8 44.5 -12.5t50.5 -4.5q64 0 103 27.5t51 86.5q4 20 5 48t1 48q-27 -29 -67.5 -43t-78.5 -14q-54 0 -94 19.5t-66.5 54t-39.5 82t-13 102.5
q0 65 17.5 117t48.5 88t72.5 55.5t89.5 19.5q43 0 77.5 -17t52.5 -47h1v41q0 7 7.5 10t33.5 3h3zM219 724q5 6 14.5 9.5t29.5 4.5h38q21 0 30.5 -5t14.5 -10l89 -94q9 -9 -10 -29l-8 -9q-7 -8 -14.5 -11.5t-11.5 0.5l-110 96l-112 -95q-7 -7 -24 11l-7 8q-17 19 -10 27z" />
    <glyph glyph-name="Gbreve" unicode="&#x11e;" horiz-adv-x="635" 
d="M543 623q-8 -14 -15.5 -18.5t-12.5 -1.5q-38 24 -78.5 35.5t-82.5 11.5q-55 0 -95.5 -20.5t-67 -59t-39.5 -92t-13 -119.5q0 -64 12.5 -117t39.5 -91.5t69.5 -59.5t102.5 -21q32 0 64.5 5.5t56.5 15.5v216h-157q-9 0 -9 32v14q0 33 9 33h251v-346q-21 -9 -47.5 -18
t-56.5 -16t-62 -11.5t-64 -4.5q-77 0 -134.5 25t-95.5 72t-57.5 114t-19.5 152q0 86 19.5 155.5t58.5 119t97 76t134 26.5q64 0 114.5 -16t87.5 -44q5 -3 5.5 -12t-7.5 -23zM243 912q17 0 23 -2.5t7 -7.5q3 -29 22.5 -44t51.5 -15t51 15.5t23 43.5q1 5 7 7.5t23 2.5h13
q32 0 32 -10q-4 -61 -45.5 -90t-105.5 -29q-62 0 -102 28t-44 91q0 10 32 10h12z" />
    <glyph glyph-name="gbreve" unicode="&#x11f;" horiz-adv-x="565" 
d="M404 284q0 50 -3 74.5t-12 41.5q-12 23 -38.5 38.5t-69.5 15.5q-66 0 -104 -52t-38 -140t34 -134.5t103 -46.5q38 0 73 16.5t55 42.5v144zM448 528q24 0 31.5 -2.5t8.5 -10.5q1 -18 2.5 -51t1.5 -70l2 -70v-57v-166q0 -66 -4 -109.5t-15 -78.5q-11 -36 -32.5 -63t-51 -46
t-64.5 -28.5t-73 -9.5q-19 0 -40.5 2t-42 6t-38.5 10t-30 13q-5 2 -5 10t6 25l4 12q6 18 9.5 23t7.5 5t11 -3t13 -5q22 -8 44.5 -12.5t50.5 -4.5q64 0 103 27.5t51 86.5q4 20 5 48t1 48q-27 -29 -67.5 -43t-78.5 -14q-54 0 -94 19.5t-66.5 54t-39.5 82t-13 102.5
q0 65 17.5 117t48.5 88t72.5 55.5t89.5 19.5q43 0 77.5 -17t52.5 -47h1v41q0 7 7.5 10t33.5 3h3zM178 722q17 0 23 -2.5t7 -7.5q3 -29 22.5 -44t51.5 -15t51 15.5t23 43.5q1 5 7 7.5t23 2.5h13q32 0 32 -10q-4 -61 -45.5 -90t-105.5 -29q-62 0 -102 28t-44 91q0 10 32 10h12
z" />
    <glyph glyph-name="Gdotaccent" unicode="&#x120;" horiz-adv-x="635" 
d="M543 623q-8 -14 -15.5 -18.5t-12.5 -1.5q-38 24 -78.5 35.5t-82.5 11.5q-55 0 -95.5 -20.5t-67 -59t-39.5 -92t-13 -119.5q0 -64 12.5 -117t39.5 -91.5t69.5 -59.5t102.5 -21q32 0 64.5 5.5t56.5 15.5v216h-157q-9 0 -9 32v14q0 33 9 33h251v-346q-21 -9 -47.5 -18
t-56.5 -16t-62 -11.5t-64 -4.5q-77 0 -134.5 25t-95.5 72t-57.5 114t-19.5 152q0 86 19.5 155.5t58.5 119t97 76t134 26.5q64 0 114.5 -16t87.5 -44q5 -3 5.5 -12t-7.5 -23zM291 842q0 23 17 39.5t40 16.5t39.5 -16.5t16.5 -39.5t-16.5 -40t-39.5 -17t-40 17t-17 40z" />
    <glyph glyph-name="gdotaccent" unicode="&#x121;" horiz-adv-x="565" 
d="M404 284q0 50 -3 74.5t-12 41.5q-12 23 -38.5 38.5t-69.5 15.5q-66 0 -104 -52t-38 -140t34 -134.5t103 -46.5q38 0 73 16.5t55 42.5v144zM448 528q24 0 31.5 -2.5t8.5 -10.5q1 -18 2.5 -51t1.5 -70l2 -70v-57v-166q0 -66 -4 -109.5t-15 -78.5q-11 -36 -32.5 -63t-51 -46
t-64.5 -28.5t-73 -9.5q-19 0 -40.5 2t-42 6t-38.5 10t-30 13q-5 2 -5 10t6 25l4 12q6 18 9.5 23t7.5 5t11 -3t13 -5q22 -8 44.5 -12.5t50.5 -4.5q64 0 103 27.5t51 86.5q4 20 5 48t1 48q-27 -29 -67.5 -43t-78.5 -14q-54 0 -94 19.5t-66.5 54t-39.5 82t-13 102.5
q0 65 17.5 117t48.5 88t72.5 55.5t89.5 19.5q43 0 77.5 -17t52.5 -47h1v41q0 7 7.5 10t33.5 3h3zM226 662q0 23 17 39.5t40 16.5t39.5 -16.5t16.5 -39.5t-16.5 -40t-39.5 -17t-40 17t-17 40z" />
    <glyph glyph-name="Gcommaaccent" unicode="&#x122;" horiz-adv-x="635" 
d="M543 623q-8 -14 -15.5 -18.5t-12.5 -1.5q-38 24 -78.5 35.5t-82.5 11.5q-55 0 -95.5 -20.5t-67 -59t-39.5 -92t-13 -119.5q0 -64 12.5 -117t39.5 -91.5t69.5 -59.5t102.5 -21q32 0 64.5 5.5t56.5 15.5v216h-157q-9 0 -9 32v14q0 33 9 33h251v-346q-21 -9 -47.5 -18
t-56.5 -16t-62 -11.5t-64 -4.5q-77 0 -134.5 25t-95.5 72t-57.5 114t-19.5 152q0 86 19.5 155.5t58.5 119t97 76t134 26.5q64 0 114.5 -16t87.5 -44q5 -3 5.5 -12t-7.5 -23zM295 -283q-11 12 -1 22q17 17 32 38t15 43q0 12 -5.5 19.5t-12.5 14.5t-12.5 16t-5.5 24
q0 21 16 34t36 12q27 0 43 -18t16 -45q0 -48 -24 -94t-65 -78q-7 -5 -11.5 -4.5t-11.5 6.5z" />
    <glyph glyph-name="gcommaaccent" unicode="&#x123;" horiz-adv-x="565" 
d="M336 810q11 -12 1 -22q-17 -17 -32 -38t-15 -43q0 -12 5.5 -19.5t12.5 -14.5t12.5 -16t5.5 -24q0 -21 -16 -34t-36 -13q-27 0 -43 18.5t-16 45.5q0 48 24 94t65 78q7 5 11.5 4.5t11.5 -6.5zM404 284q0 50 -3 74.5t-12 41.5q-12 23 -38.5 38.5t-69.5 15.5q-66 0 -104 -52
t-38 -140t34 -134.5t103 -46.5q38 0 73 16.5t55 42.5v144zM448 528q24 0 31.5 -2.5t8.5 -10.5q1 -18 2 -51q2 -34 2 -70l2 -70v-57v-166q0 -66 -4 -109.5t-15 -78.5q-11 -36 -32.5 -63t-51 -46t-64.5 -28.5t-73 -9.5q-19 0 -40.5 2t-42 6t-38.5 10t-30 13q-5 2 -5 10t6 25
l4 12q6 18 9.5 23t7.5 5t11 -3t13 -5q22 -8 44.5 -12.5t50.5 -4.5q64 0 103 27.5t51 86.5q4 20 5 48t1 48q-27 -29 -67.5 -43t-78.5 -14q-54 0 -94 19.5t-66.5 54t-39.5 82t-13 102.5q0 65 17.5 117t48.5 88t72.5 55.5t89.5 19.5q43 0 77.5 -17t52.5 -47h1v41q0 7 7.5 10
t33.5 3h3z" />
    <glyph glyph-name="Hcircumflex" unicode="&#x124;" horiz-adv-x="664" 
d="M132 720q43 0 43 -11v-305h314v305q0 11 41 11h11q43 0 43 -11v-698q0 -11 -41 -11h-11q-43 0 -43 11v314h-314v-314q0 -11 -41 -11h-11q-43 0 -43 11v698q0 11 41 11h11zM269 896q5 6 14.5 9.5t29.5 4.5h38q21 0 30.5 -5t14.5 -10l89 -94q9 -9 -10 -29l-8 -9
q-7 -8 -14.5 -11.5t-11.5 0.5l-110 96l-112 -95q-7 -7 -24 11l-7 8q-17 19 -10 27z" />
    <glyph glyph-name="hcircumflex" unicode="&#x125;" horiz-adv-x="584" 
d="M123 760q30 0 36.5 -3t6.5 -9v-274q26 29 70.5 46.5t89.5 17.5q42 0 77 -13.5t60 -39.5q27 -28 39 -68.5t12 -101.5v-303q0 -5 -5.5 -8.5t-35.5 -3.5h-6q-30 0 -36.5 3t-6.5 9v261q0 61 -4.5 93.5t-22.5 53.5q-27 33 -95 33q-28 0 -58 -9.5t-48 -26.5q-9 -8 -16.5 -23.5
t-10.5 -47.5q-2 -21 -2.5 -57t-0.5 -80v-197q0 -5 -5.5 -8.5t-35.5 -3.5h-6q-30 0 -36.5 3t-6.5 9v736q0 5 5.5 8.5t35.5 3.5h6zM61 894q5 6 14.5 9.5t29.5 4.5h38q21 0 30.5 -5t14.5 -10l89 -94q9 -9 -10 -29l-8 -9q-7 -8 -14.5 -11.5t-11.5 0.5l-110 96l-112 -95
q-7 -7 -24 11l-7 8q-17 19 -10 27z" />
    <glyph glyph-name="Hbar" unicode="&#x126;" horiz-adv-x="692" 
d="M146 720q43 0 43 -11v-107h314v107q0 11 41 11h11q43 0 43 -11v-107h60q10 0 10 -31v-8q0 -32 -10 -32h-60v-520q0 -11 -41 -11h-11q-43 0 -43 11v314h-314v-314q0 -11 -41 -11h-11q-43 0 -43 11v520h-59q-10 0 -10 32v8q0 31 10 31h59v107q0 11 41 11h11zM503 404v127
h-314v-127h314z" />
    <glyph glyph-name="hbar" unicode="&#x127;" horiz-adv-x="584" 
d="M123 760q30 0 36.5 -3t6.5 -9v-74h157q9 0 9 -32t-9 -32h-157v-136q26 29 70.5 46.5t89.5 17.5q42 0 77 -13.5t60 -39.5q27 -28 39 -68.5t12 -101.5v-303q0 -5 -5.5 -8.5t-35.5 -3.5h-6q-30 0 -36.5 3t-6.5 9v261q0 61 -4.5 93.5t-22.5 53.5q-27 33 -95 33
q-28 0 -58 -9.5t-48 -26.5q-9 -8 -16.5 -23.5t-10.5 -47.5q-2 -21 -2.5 -57t-0.5 -80v-197q0 -5 -5.5 -8.5t-35.5 -3.5h-6q-30 0 -36.5 3t-6.5 9v598h-58q-9 0 -9 32t9 32h58v74q0 5 5.5 8.5t35.5 3.5h6z" />
    <glyph glyph-name="Itilde" unicode="&#x128;" horiz-adv-x="381" 
d="M311 720q8 0 8 -28v-12q0 -29 -8 -29h-73v-582h73q8 0 8 -29v-12q0 -28 -8 -28h-241q-5 0 -6.5 5t-1.5 24v11q0 19 1.5 24t6.5 5h73v582h-73q-5 0 -6.5 5t-1.5 24v11q0 19 1.5 24t6.5 5h241zM46 808q-14 19 -8 27q16 19 40.5 33t55.5 14q22 0 37 -6q16 -6 28 -12l24 -13
q12 -6 30 -6q16 0 29 8.5t22 18.5q4 4 11 -0.5t15 -14.5l6 -8q6 -8 8.5 -15.5t-0.5 -11.5q-14 -20 -38.5 -36t-54.5 -16q-19 0 -33 6q-13 6 -27 12l-28 13q-14 6 -31 6q-16 0 -29.5 -8t-23.5 -19q-4 -4 -11 1.5t-15 16.5z" />
    <glyph glyph-name="itilde" unicode="&#x129;" horiz-adv-x="240" 
d="M124 528q30 0 35.5 -3.5t5.5 -8.5v-504q0 -5 -5.5 -8.5t-35.5 -3.5h-6q-30 0 -36.5 3t-6.5 9v504q0 6 6.5 9t36.5 3h6zM-23 646q-14 19 -8 27q16 19 40.5 33t55.5 14q22 0 37 -6q16 -6 28 -12l24 -13q12 -6 30 -6q16 0 29 8.5t22 18.5q4 4 11 -0.5t15 -14.5l6 -8
q6 -8 8.5 -15.5t-0.5 -11.5q-14 -20 -38.5 -36t-54.5 -16q-19 0 -33 6q-13 6 -27 12l-28 13q-14 6 -31 6q-16 0 -29.5 -8t-23.5 -19q-4 -4 -11 1.5t-15 16.5z" />
    <glyph glyph-name="Imacron" unicode="&#x12a;" horiz-adv-x="381" 
d="M311 720q8 0 8 -28v-12q0 -29 -8 -29h-73v-582h73q8 0 8 -29v-12q0 -28 -8 -28h-241q-5 0 -6.5 5t-1.5 24v11q0 19 1.5 24t6.5 5h73v582h-73q-5 0 -6.5 5t-1.5 24v11q0 19 1.5 24t6.5 5h241zM328 874q10 0 10 -29v-12q0 -32 -10 -32h-275q-10 0 -10 32v12q0 29 10 29h275
z" />
    <glyph glyph-name="imacron" unicode="&#x12b;" horiz-adv-x="240" 
d="M124 528q30 0 35.5 -3.5t5.5 -8.5v-504q0 -5 -5.5 -8.5t-35.5 -3.5h-6q-30 0 -36.5 3t-6.5 9v504q0 6 6.5 9t36.5 3h6zM259 693q10 0 10 -29v-12q0 -32 -10 -32h-275q-10 0 -10 32v12q0 29 10 29h275z" />
    <glyph glyph-name="Ibreve" unicode="&#x12c;" horiz-adv-x="381" 
d="M311 720q8 0 8 -28v-12q0 -29 -8 -29h-73v-582h73q8 0 8 -29v-12q0 -28 -8 -28h-241q-5 0 -6.5 5t-1.5 24v11q0 19 1.5 24t6.5 5h73v582h-73q-5 0 -6.5 5t-1.5 24v11q0 19 1.5 24t6.5 5h241zM86 912q17 0 23 -2.5t7 -7.5q3 -29 22.5 -44t51.5 -15t51 15.5t23 43.5
q1 5 7 7.5t23 2.5h13q32 0 32 -10q-4 -61 -45.5 -90t-105.5 -29q-62 0 -102 28t-44 91q0 10 32 10h12z" />
    <glyph glyph-name="ibreve" unicode="&#x12d;" horiz-adv-x="240" 
d="M124 528q30 0 35.5 -3.5t5.5 -8.5v-504q0 -5 -5.5 -8.5t-35.5 -3.5h-6q-30 0 -36.5 3t-6.5 9v504q0 6 6.5 9t36.5 3h6zM17 722q17 0 23 -2.5t7 -7.5q3 -29 22.5 -44t51.5 -15t51 15.5t23 43.5q1 5 7 7.5t23 2.5h13q32 0 32 -10q-4 -61 -45.5 -90t-105.5 -29
q-62 0 -102 28t-44 91q0 10 32 10h12z" />
    <glyph glyph-name="Iogonek" unicode="&#x12e;" horiz-adv-x="381" 
d="M298 0q-27 0 -46.5 -9t-33.5 -23t-22 -32t-8 -38q0 -25 15 -34t34 -9q8 0 19 1t22 5q8 2 14 -22l2 -9q3 -14 2.5 -19.5t-4.5 -7.5q-14 -6 -33 -10t-39 -4q-28 0 -49 8t-34.5 20.5t-20.5 29t-7 34.5q0 36 19.5 68t52.5 51h-111q-5 0 -6.5 5t-1.5 24v11q0 19 1.5 24t6.5 5
h73v582h-73q-5 0 -6.5 5t-1.5 24v11q0 19 1.5 24t6.5 5h241q8 0 8 -28v-12q0 -29 -8 -29h-73v-582h73q8 0 8 -29v-12q0 -28 -8 -28h-13z" />
    <glyph glyph-name="iogonek" unicode="&#x12f;" horiz-adv-x="240" 
d="M9 -116q0 38 18.5 68t47.5 53v511q0 6 6.5 9t36.5 3h6q30 0 35.5 -3.5t5.5 -8.5v-496q0 -8 -2.5 -11t-9.5 -8q-28 -17 -46.5 -42.5t-18.5 -58.5q0 -18 10.5 -31.5t38.5 -13.5q8 0 19 1t22 5q8 2 14 -22l2 -9q3 -14 2.5 -19.5t-4.5 -7.5q-14 -6 -33 -10t-39 -4
q-56 0 -83.5 29t-27.5 66zM57 690q0 26 18.5 44.5t44.5 18.5t44.5 -18.5t18.5 -44.5t-18.5 -44.5t-44.5 -18.5t-44.5 18.5t-18.5 44.5z" />
    <glyph glyph-name="Idotaccent" unicode="&#x130;" horiz-adv-x="381" 
d="M311 720q8 0 8 -28v-12q0 -29 -8 -29h-73v-582h73q8 0 8 -29v-12q0 -28 -8 -28h-241q-5 0 -6.5 5t-1.5 24v11q0 19 1.5 24t6.5 5h73v582h-73q-5 0 -6.5 5t-1.5 24v11q0 19 1.5 24t6.5 5h241zM134 842q0 23 17 39.5t40 16.5t39.5 -16.5t16.5 -39.5t-16.5 -40t-39.5 -17
t-40 17t-17 40z" />
    <glyph glyph-name="dotlessi" unicode="&#x131;" horiz-adv-x="240" 
d="M124 528q30 0 35.5 -3.5t5.5 -8.5v-504q0 -5 -5.5 -8.5t-35.5 -3.5h-6q-30 0 -36.5 3t-6.5 9v504q0 6 6.5 9t36.5 3h6z" />
    <glyph glyph-name="IJ" unicode="&#x132;" horiz-adv-x="823" 
d="M311 720q8 0 8 -28v-12q0 -29 -8 -29h-73v-582h73q8 0 8 -29v-12q0 -28 -8 -28h-241q-5 0 -6.5 5t-1.5 24v11q0 19 1.5 24t6.5 5h73v582h-73q-5 0 -6.5 5t-1.5 24v11q0 19 1.5 24t6.5 5h241zM711 720q43 0 43 -11v-493q0 -109 -45.5 -167.5t-151.5 -58.5q-45 0 -84 12
t-67 38q-2 2 -2 7q0 3 1 7q3 11 12 24l7 10q8 11 16.5 15.5t13.5 0.5q23 -15 46 -24t52 -9q31 0 51.5 11t33 29.5t17.5 43t5 52.5v502q0 11 41 11h11z" />
    <glyph glyph-name="ij" unicode="&#x133;" horiz-adv-x="493" 
d="M124 528q30 0 35.5 -3.5t5.5 -8.5v-504q0 -5 -5.5 -8.5t-35.5 -3.5h-6q-30 0 -36.5 3t-6.5 9v504q0 6 6.5 9t36.5 3h6zM57 690q0 26 18.5 44.5t44.5 18.5t44.5 -18.5t18.5 -44.5t-18.5 -44.5t-44.5 -18.5t-44.5 18.5t-18.5 44.5zM377 528q30 0 35.5 -3.5t5.5 -8.5v-513
q0 -65 -13 -110t-37 -73t-58.5 -41t-76.5 -13q-17 0 -38.5 4t-32.5 11q-6 3 -6 10q0 6 3 20l3 15q3 15 7 20t12 3q11 -2 23 -4.5t23 -2.5q54 0 77.5 36.5t23.5 122.5v515q0 6 6.5 9t36.5 3h6zM310 690q0 26 18.5 44.5t44.5 18.5t44.5 -18.5t18.5 -44.5t-18.5 -44.5
t-44.5 -18.5t-44.5 18.5t-18.5 44.5z" />
    <glyph glyph-name="Jcircumflex" unicode="&#x134;" horiz-adv-x="442" 
d="M330 720q43 0 43 -11v-493q0 -109 -45.5 -167.5t-151.5 -58.5q-45 0 -84 12t-67 38q-2 2 -2 7q0 3 1 7q3 11 12 24l7 10q8 11 16.5 15.5t13.5 0.5q23 -15 46 -24t52 -9q31 0 51.5 11t33 29.5t17.5 43t5 52.5v502q0 11 41 11h11zM264 896q5 6 14.5 9.5t29.5 4.5h38
q21 0 30.5 -5t14.5 -10l89 -94q9 -9 -10 -29l-8 -9q-7 -8 -14.5 -11.5t-11.5 0.5l-110 96l-112 -95q-7 -7 -24 11l-7 8q-17 19 -10 27z" />
    <glyph glyph-name="jcircumflex" unicode="&#x135;" horiz-adv-x="253" 
d="M137 528q30 0 35.5 -3.5t5.5 -8.5v-513q0 -65 -13 -110t-37 -73t-58.5 -41t-76.5 -13q-17 0 -38.5 4t-32.5 11q-5 3 -5.5 8.5t2.5 21.5l3 15q3 15 7 20t12 3q11 -2 23 -4.5t23 -2.5q54 0 77.5 36.5t23.5 122.5v515q0 6 6.5 9t36.5 3h6zM71 724q5 6 14.5 9.5t29.5 3.5h38
q21 0 30.5 -4.5t14.5 -9.5l89 -94q9 -9 -10 -29l-8 -9q-7 -8 -14.5 -11.5t-11.5 0.5l-110 96l-112 -95q-7 -7 -24 11l-7 8q-17 19 -10 27z" />
    <glyph glyph-name="Kcommaaccent" unicode="&#x136;" horiz-adv-x="588" 
d="M132 720q43 0 43 -11v-342l77 86q70 78 117.5 142t74.5 115q3 6 10.5 8t31.5 2h9q27 0 35 -2t5 -9q-9 -22 -28 -54.5t-46.5 -71t-62.5 -81.5t-75 -86l244 -405q1 -1 1 -2q0 -4 -10 -6q-13 -3 -34 -3h-19q-20 0 -32.5 3t-15.5 8l-200 342l-82 -91v-251q0 -11 -41 -11h-11
q-43 0 -43 11v698q0 11 41 11h11zM250 -283q-11 12 -1 22q17 17 32 38t15 43q0 12 -5.5 19.5t-12.5 14.5t-12.5 16t-5.5 24q0 21 16 34t36 12q27 0 43 -18t16 -45q0 -48 -24 -94t-65 -78q-7 -5 -11.5 -4.5t-11.5 6.5z" />
    <glyph glyph-name="kcommaaccent" unicode="&#x137;" horiz-adv-x="492" 
d="M125 760q30 0 35.5 -3.5t5.5 -8.5v-436l61 57l37 35q16 17 31 34l31 36q15 19 33 43q5 6 12.5 8.5t35.5 2.5q27 0 37 -4t6 -11q-8 -14 -23 -35t-37 -47t-49 -55t-57 -58l187 -304q1 -2 1 -3q0 -3 -4 -7q-7 -4 -36 -4h-7q-29 0 -39 2.5t-14 8.5l-155 251l-51 -45v-205
q0 -5 -5.5 -8.5t-35.5 -3.5h-6q-30 0 -36.5 3t-6.5 9v736q0 6 6.5 9t36.5 3h6zM211 -283q-11 12 -1 22q17 17 32 38t15 43q0 12 -5.5 19.5t-12.5 14.5t-12.5 16t-5.5 24q0 21 16 34t36 12q27 0 43 -18t16 -45q0 -48 -24 -94t-65 -78q-7 -5 -11.5 -4.5t-11.5 6.5z" />
    <glyph glyph-name="kgreenlandic" unicode="&#x138;" horiz-adv-x="492" 
d="M125 528q30 0 35.5 -3.5t5.5 -8.5v-204l61 57l37 35q16 16 31 34l31 36q16 18 33 43q5 6 12.5 8.5t35.5 2.5q27 0 37 -4t6 -11q-8 -14 -23 -35t-37 -47t-49 -55t-57 -58l187 -304q3 -5 -3.5 -9.5t-35.5 -4.5h-7q-29 0 -39 2.5t-14 8.5l-155 251l-51 -45v-205
q0 -5 -5.5 -8.5t-35.5 -3.5h-6q-30 0 -36.5 3t-6.5 9v504q0 6 6.5 9t36.5 3h6z" />
    <glyph glyph-name="Lacute" unicode="&#x139;" horiz-adv-x="506" 
d="M132 720q43 0 43 -11v-629h286q9 0 9 -33v-13q0 -34 -9 -34h-346q-20 0 -27.5 3t-7.5 11v695q0 11 41 11h11zM204 914q28 0 35.5 -4.5t3.5 -9.5l-94 -128q-4 -5 -11 -7t-25 -2h-8q-24 0 -28.5 3.5t-1.5 8.5l73 128q3 5 13 8t31 3h12z" />
    <glyph glyph-name="lacute" unicode="&#x13a;" horiz-adv-x="256" 
d="M115 760q24 0 31.5 -2.5t9.5 -10.5q2 -11 3 -37.5t2 -65.5t1 -88v-105v-332q0 -28 6.5 -39t31.5 -11h10q4 0 5 -5t1 -22v-3q0 -20 -0.5 -25t-5.5 -7q-22 -8 -47 -8q-21 0 -40.5 7t-33.5 27q-10 14 -13.5 39.5t-3.5 65.5v335v81q0 43 -1 81t-2 67q0 11 -1.5 26t-1.5 21
t8 9q9 2 35 2h6zM174 935q28 0 35.5 -4.5t2.5 -9.5l-93 -128q-2 -4 -10 -6.5t-26 -2.5h-8q-24 0 -28.5 3.5t-1.5 8.5l73 128q3 5 13 8t31 3h12z" />
    <glyph glyph-name="Lcommaaccent" unicode="&#x13b;" horiz-adv-x="506" 
d="M132 720q43 0 43 -11v-629h286q9 0 9 -33v-13q0 -34 -9 -34h-346q-20 0 -27.5 3t-7.5 11v695q0 11 41 11h11zM219 -283q-11 12 -1 22q17 17 32 38t15 43q0 12 -5.5 19.5t-12.5 14.5t-12.5 16t-5.5 24q0 21 16 34t36 12q27 0 43 -18t16 -45q0 -48 -24 -94t-65 -78
q-7 -5 -11.5 -4.5t-11.5 6.5z" />
    <glyph glyph-name="lcommaaccent" unicode="&#x13c;" horiz-adv-x="256" 
d="M115 760q24 0 31.5 -2.5t9.5 -10.5q2 -11 3 -37.5t2 -65.5t1 -88v-105v-332q0 -28 6.5 -39t31.5 -11h10q4 0 5 -5t1 -22v-3q0 -20 -0.5 -25t-5.5 -7q-22 -8 -47 -8q-21 0 -40.5 7t-33.5 27q-10 14 -13.5 39.5t-3.5 65.5v335v81q0 43 -1 81t-2 67q0 11 -1.5 26t-1.5 21
t8 9q9 2 35 2h6zM73 -283q-11 12 -1 22q17 17 32 38t15 43q0 12 -5.5 19.5t-12.5 14.5t-12.5 16t-5.5 24q0 21 16 34t36 12q27 0 43 -18t16 -45q0 -48 -24 -94t-65 -78q-7 -5 -11.5 -4.5t-11.5 6.5z" />
    <glyph glyph-name="Lcaron" unicode="&#x13d;" horiz-adv-x="506" 
d="M132 720q43 0 43 -11v-629h286q9 0 9 -33v-13q0 -34 -9 -34h-346q-20 0 -27.5 3t-7.5 11v695q0 11 41 11h11zM272 506q-11 12 -1 22q17 17 32 38t15 43q0 12 -5.5 19.5t-12.5 14.5t-12.5 16t-5.5 24q0 21 16 34t36 12q27 0 43 -18t16 -45q0 -48 -24 -94t-65 -78
q-7 -5 -11.5 -4.5t-11.5 6.5z" />
    <glyph glyph-name="lcaron" unicode="&#x13e;" horiz-adv-x="333" 
d="M115 760q24 0 31.5 -2.5t9.5 -10.5q2 -11 3 -37.5t2 -65.5t1 -88v-105v-332q0 -28 6.5 -39t31.5 -11h10q4 0 5 -5t1 -22v-3q0 -20 -0.5 -25t-5.5 -7q-22 -8 -47 -8q-21 0 -40.5 7t-33.5 27q-10 14 -13.5 39.5t-3.5 65.5v335v81q0 43 -1 81t-2 67q0 11 -1.5 26t-1.5 21
t8 9q9 2 35 2h6zM222 506q-11 12 -1 22q17 17 32 38t15 43q0 12 -5.5 19.5t-12.5 14.5t-12.5 16t-5.5 24q0 21 16 34t36 12q27 0 43 -18t16 -45q0 -48 -24 -94t-65 -78q-7 -5 -11.5 -4.5t-11.5 6.5z" />
    <glyph glyph-name="Ldot" unicode="&#x13f;" horiz-adv-x="506" 
d="M301 384q0 23 17 39.5t40 16.5t39.5 -16.5t16.5 -39.5t-16.5 -40t-39.5 -17t-40 17t-17 40zM132 720q43 0 43 -11v-629h286q9 0 9 -33v-13q0 -34 -9 -34h-346q-20 0 -27.5 3t-7.5 11v695q0 11 41 11h11z" />
    <glyph glyph-name="ldot" unicode="&#x140;" horiz-adv-x="335" 
d="M221 374q0 23 17 39.5t40 16.5t39.5 -16.5t16.5 -39.5t-16.5 -40t-39.5 -17t-40 17t-17 40zM115 760q24 0 31.5 -2.5t9.5 -10.5q2 -11 3 -37.5t2 -65.5q1 -38 1 -88v-105v-332q0 -28 6.5 -39t31.5 -11h10q4 0 5 -5t1 -22v-3q0 -20 -0.5 -25t-5.5 -7q-22 -8 -47 -8
q-21 0 -40.5 7t-33.5 27q-10 14 -13.5 39.5t-3.5 65.5v335v81q0 42 -1 80.5t-2 68t-3 44.5q-1 8 8 10.5t35 2.5h6z" />
    <glyph glyph-name="Lslash" unicode="&#x141;" horiz-adv-x="513" 
d="M136 720q43 0 43 -11v-304l119 90q5 4 8.5 -1t3.5 -23v-22q0 -16 -2 -23.5t-6 -10.5l-123 -91v-244h286q9 0 9 -33v-13q0 -34 -9 -34h-346q-20 0 -27.5 3t-7.5 11v247l-59 -44q-5 -4 -8.5 1t-3.5 23v20q0 16 2 23.5t6 10.5l63 47v367q0 11 41 11h11z" />
    <glyph glyph-name="lslash" unicode="&#x142;" horiz-adv-x="271" 
d="M122 760q24 0 31.5 -2.5t9.5 -10.5q2 -11 3 -37.5t2 -65.5q1 -38 1 -88v-105v-10l66 54q5 4 8.5 -1t3.5 -23v-17q0 -16 -2 -23.5t-6 -10.5l-70 -57v-244q0 -28 6.5 -39t31.5 -11h10q4 0 5 -5t1 -22v-3q0 -20 -0.5 -25t-5.5 -7q-22 -8 -47 -8q-21 0 -40.5 7t-33.5 27
q-10 14 -13.5 39.5t-3.5 65.5v157l-53 -43q-5 -4 -8.5 1t-3.5 23v17q0 16 2 23.5t6 10.5l57 46v100v81q0 42 -1 80.5t-2 68t-3 44.5q-1 8 8 10.5t35 2.5h6z" />
    <glyph glyph-name="Nacute" unicode="&#x143;" horiz-adv-x="678" 
d="M128 720q32 0 41 -2.5t14 -10.5l333 -554v556q0 11 38 11h8q40 0 40 -11v-698q0 -7 -9.5 -9t-37.5 -2h-3q-32 0 -41 2.5t-14 10.5l-335 553v-555q0 -11 -38 -11h-8q-40 0 -40 11v698q0 7 9.5 9t37.5 2h5zM403 914q28 0 35.5 -4.5t3.5 -9.5l-94 -128q-4 -5 -11 -7t-25 -2
h-8q-24 0 -28.5 3.5t-1.5 8.5l73 128q3 5 13 8t31 3h12z" />
    <glyph glyph-name="nacute" unicode="&#x144;" horiz-adv-x="585" 
d="M122 528q27 0 34 -2.5t7 -9.5l1 -45h1q13 15 31.5 27.5t40 21.5t45 13.5t46.5 4.5q42 0 77 -13.5t60 -39.5q27 -28 39 -68.5t12 -101.5v-303q0 -5 -5.5 -8.5t-35.5 -3.5h-6q-30 0 -36.5 3t-6.5 9v261q0 61 -4.5 93.5t-22.5 53.5q-27 33 -95 33q-28 0 -58 -9.5t-48 -26.5
q-9 -8 -16.5 -23.5t-10.5 -47.5q-2 -21 -2.5 -57t-0.5 -80v-197q0 -5 -5.5 -8.5t-35.5 -3.5h-6q-30 0 -36.5 3t-6.5 9v341q0 25 -0.5 50.5t-0.5 47t-0.5 39t-0.5 26.5q0 6 6 9t35 3h5zM377 732q28 0 35.5 -4.5t2.5 -9.5l-93 -128q-2 -4 -10 -6.5t-26 -2.5h-8
q-24 0 -28.5 3.5t-1.5 8.5l73 128q3 5 13 8t31 3h12z" />
    <glyph glyph-name="Ncommaaccent" unicode="&#x145;" horiz-adv-x="678" 
d="M128 720q32 0 41 -2.5t14 -10.5l333 -554v556q0 11 38 11h8q40 0 40 -11v-698q0 -7 -9.5 -9t-37.5 -2h-3q-32 0 -41 2.5t-14 10.5l-335 553v-555q0 -11 -38 -11h-8q-40 0 -40 11v698q0 7 9.5 9t37.5 2h5zM278 -283q-11 12 -1 22q17 17 32 38t15 43q0 12 -5.5 19.5
t-12.5 14.5t-12.5 16t-5.5 24q0 21 16 34t36 12q27 0 43 -18t16 -45q0 -48 -24 -94t-65 -78q-7 -5 -11.5 -4.5t-11.5 6.5z" />
    <glyph glyph-name="ncommaaccent" unicode="&#x146;" horiz-adv-x="585" 
d="M122 528q27 0 34 -2.5t7 -9.5l1 -45h1q13 15 31.5 27.5t40 21.5t45 13.5t46.5 4.5q42 0 77 -13.5t60 -39.5q27 -28 39 -68.5t12 -101.5v-303q0 -5 -5.5 -8.5t-35.5 -3.5h-6q-30 0 -36.5 3t-6.5 9v261q0 61 -4.5 93.5t-22.5 53.5q-27 33 -95 33q-28 0 -58 -9.5t-48 -26.5
q-9 -8 -16.5 -23.5t-10.5 -47.5q-2 -21 -2.5 -57t-0.5 -80v-197q0 -5 -5.5 -8.5t-35.5 -3.5h-6q-30 0 -36.5 3t-6.5 9v341q0 25 -0.5 50.5t-0.5 47t-0.5 39t-0.5 26.5q0 6 6 9t35 3h5zM235 -283q-11 12 -1 22q17 17 32 38t15 43q0 12 -5.5 19.5t-12.5 14.5t-12.5 16t-5.5 24
q0 21 16 34t36 12q27 0 43 -18t16 -45q0 -48 -24 -94t-65 -78q-7 -5 -11.5 -4.5t-11.5 6.5z" />
    <glyph glyph-name="Ncaron" unicode="&#x147;" horiz-adv-x="678" 
d="M128 720q32 0 41 -2.5t14 -10.5l333 -554v556q0 11 38 11h8q40 0 40 -11v-698q0 -7 -9.5 -9t-37.5 -2h-3q-32 0 -41 2.5t-14 10.5l-335 553v-555q0 -11 -38 -11h-8q-40 0 -40 11v698q0 7 9.5 9t37.5 2h5zM207 912q7 8 15.5 13t12.5 0l112 -98l109 95q9 7 25 -11l6 -7
q17 -18 9 -27l-91 -97q-5 -6 -14.5 -9.5t-29.5 -3.5h-38q-21 0 -30.5 4.5t-14.5 9.5l-89 94q-5 5 -1.5 12.5t11.5 15.5z" />
    <glyph glyph-name="ncaron" unicode="&#x148;" horiz-adv-x="585" 
d="M122 528q27 0 34 -2.5t7 -9.5l1 -45h1q13 15 31.5 27.5t40 21.5t45 13.5t46.5 4.5q42 0 77 -13.5t60 -39.5q27 -28 39 -68.5t12 -101.5v-303q0 -5 -5.5 -8.5t-35.5 -3.5h-6q-30 0 -36.5 3t-6.5 9v261q0 61 -4.5 93.5t-22.5 53.5q-27 33 -95 33q-28 0 -58 -9.5t-48 -26.5
q-9 -8 -16.5 -23.5t-10.5 -47.5q-2 -21 -2.5 -57t-0.5 -80v-197q0 -5 -5.5 -8.5t-35.5 -3.5h-6q-30 0 -36.5 3t-6.5 9v341q0 25 -0.5 50.5t-0.5 47t-0.5 39t-0.5 26.5q0 6 6 9t35 3h5zM179 720q7 8 15.5 13t12.5 0l112 -98l109 95q9 7 25 -11l6 -7q17 -18 9 -27l-91 -97
q-5 -6 -14.5 -9.5t-29.5 -3.5h-38q-21 0 -30.5 4.5t-14.5 9.5l-89 94q-5 5 -1.5 12.5t11.5 15.5z" />
    <glyph glyph-name="napostrophe" unicode="&#x149;" horiz-adv-x="657" 
d="M193 528q27 0 34 -2.5t7 -9.5l1 -45h1q13 15 31.5 27.5t40 21.5t45 13.5t46.5 4.5q42 0 77 -13.5t60 -39.5q27 -28 39 -68.5t12 -101.5v-303q0 -5 -5.5 -8.5t-35.5 -3.5h-6q-30 0 -36.5 3t-6.5 9v261q0 61 -4.5 93.5t-22.5 53.5q-27 33 -95 33q-28 0 -58 -9.5t-48 -26.5
q-9 -8 -16.5 -23.5t-10.5 -47.5q-2 -21 -2.5 -57t-0.5 -80v-197q0 -5 -5.5 -8.5t-35.5 -3.5h-6q-30 0 -36.5 3t-6.5 9v341q0 25 -0.5 50.5t-0.5 47t-0.5 39t-0.5 26.5q0 6 6 9t35 3h5zM-7 459q-4 4 -7 11.5t5 15.5q21 21 37.5 46.5t16.5 51.5q0 15 -6.5 23.5t-15 16.5
t-15 19t-6.5 31q0 26 17 41t42 15q34 0 53 -22t19 -54q0 -58 -28 -113.5t-74 -93.5q-6 -5 -14 -5.5t-15 7.5z" />
    <glyph glyph-name="Eng" unicode="&#x14a;" horiz-adv-x="678" 
d="M411 -118q44 0 70 24.5t32 81.5l-351 578v-555q0 -11 -38 -11h-8q-40 0 -40 11v698q0 7 9.5 9t37.5 2h5q32 0 41 -2.5t14 -10.5l333 -554v556q0 11 38 11h8q40 0 40 -11v-666q0 -65 -13 -110t-37 -73t-58.5 -41t-76.5 -13q-17 0 -38.5 4t-32.5 11q-5 3 -5.5 8.5t2.5 21.5
l3 15q3 15 7 20t12 3q11 -2 23 -4.5t23 -2.5z" />
    <glyph glyph-name="eng" unicode="&#x14b;" horiz-adv-x="585" 
d="M425 273q0 61 -4.5 93.5t-22.5 53.5q-27 33 -95 33q-28 0 -58 -9.5t-48 -26.5q-9 -8 -16.5 -23.5t-10.5 -47.5q-2 -21 -2.5 -57t-0.5 -80v-197q0 -5 -5.5 -8.5t-35.5 -3.5h-6q-30 0 -36.5 3t-6.5 9v341q0 25 -0.5 50.5t-0.5 47t-0.5 39t-0.5 26.5q0 6 6 9t35 3h5
q27 0 34 -2.5t7 -9.5l1 -45h1q13 15 31.5 27.5t40 21.5t45 13.5t46.5 4.5q42 0 77 -13.5t60 -39.5q27 -28 39 -68.5t12 -101.5v-272q0 -65 -13 -110t-37 -73t-58.5 -41t-76.5 -13q-17 0 -38.5 4t-32.5 11q-5 3 -5.5 8.5t2.5 21.5l3 15q3 15 7 20t12 3q11 -2 23 -4.5t23 -2.5
q54 0 77.5 36.5t23.5 122.5v232z" />
    <glyph glyph-name="Omacron" unicode="&#x14c;" horiz-adv-x="697" 
d="M356 649q-99 0 -156 -76.5t-57 -218.5q0 -137 52 -210t146 -73q99 0 156 77.5t57 218.5q0 137 -52 209.5t-146 72.5zM360 730q64 0 118 -22.5t92.5 -67.5t60 -112.5t21.5 -156.5q0 -88 -22.5 -158.5t-63.5 -120t-99 -76t-130 -26.5q-65 0 -118.5 23t-92 68t-60 112.5
t-21.5 156.5q0 88 22.5 158t63.5 119.5t99 76t130 26.5zM486 874q10 0 10 -29v-12q0 -32 -10 -32h-275q-10 0 -10 32v12q0 29 10 29h275z" />
    <glyph glyph-name="omacron" unicode="&#x14d;" horiz-adv-x="568" 
d="M294 538q94 0 150 -50q38 -33 58.5 -87t20.5 -125t-18 -124.5t-50.5 -89.5t-78.5 -54t-102 -18q-94 0 -150 50q-38 33 -58.5 87t-20.5 125t18 124.5t50.5 89.5t78.5 54t102 18zM290 458q-30 0 -57.5 -11t-48 -35t-33 -61.5t-12.5 -91.5q0 -34 6.5 -67.5t22 -60.5
t42.5 -44t68 -17q30 0 57.5 11t48 35t33 61.5t12.5 91.5q0 34 -6.5 67.5t-22 60.5t-42.5 44t-68 17zM421 693q10 0 10 -29v-12q0 -32 -10 -32h-275q-10 0 -10 32v12q0 29 10 29h275z" />
    <glyph glyph-name="Obreve" unicode="&#x14e;" horiz-adv-x="697" 
d="M356 649q-99 0 -156 -76.5t-57 -218.5q0 -137 52 -210t146 -73q99 0 156 77.5t57 218.5q0 137 -52 209.5t-146 72.5zM360 730q64 0 118 -22.5t92.5 -67.5t60 -112.5t21.5 -156.5q0 -88 -22.5 -158.5t-63.5 -120t-99 -76t-130 -26.5q-65 0 -118.5 23t-92 68t-60 112.5
t-21.5 156.5q0 88 22.5 158t63.5 119.5t99 76t130 26.5zM244 912q17 0 23 -2.5t7 -7.5q3 -29 22.5 -44t51.5 -15t51 15.5t23 43.5q1 5 7 7.5t23 2.5h13q32 0 32 -10q-4 -61 -45.5 -90t-105.5 -29q-62 0 -102 28t-44 91q0 10 32 10h12z" />
    <glyph glyph-name="obreve" unicode="&#x14f;" horiz-adv-x="568" 
d="M294 538q94 0 150 -50q38 -33 58.5 -87t20.5 -125t-18 -124.5t-50.5 -89.5t-78.5 -54t-102 -18q-94 0 -150 50q-38 33 -58.5 87t-20.5 125t18 124.5t50.5 89.5t78.5 54t102 18zM290 458q-30 0 -57.5 -11t-48 -35t-33 -61.5t-12.5 -91.5q0 -34 6.5 -67.5t22 -60.5
t42.5 -44t68 -17q30 0 57.5 11t48 35t33 61.5t12.5 91.5q0 34 -6.5 67.5t-22 60.5t-42.5 44t-68 17zM179 722q17 0 23 -2.5t7 -7.5q3 -29 22.5 -44t51.5 -15t51 15.5t23 43.5q1 5 7 7.5t23 2.5h13q32 0 32 -10q-4 -61 -45.5 -90t-105.5 -29q-62 0 -102 28t-44 91q0 10 32 10
h12z" />
    <glyph glyph-name="Ohungarumlaut" unicode="&#x150;" horiz-adv-x="697" 
d="M356 649q-99 0 -156 -76.5t-57 -218.5q0 -137 52 -210t146 -73q99 0 156 77.5t57 218.5q0 137 -52 209.5t-146 72.5zM360 730q64 0 118 -22.5t92.5 -67.5t60 -112.5t21.5 -156.5q0 -88 -22.5 -158.5t-63.5 -120t-99 -76t-130 -26.5q-65 0 -118.5 23t-92 68t-60 112.5
t-21.5 156.5q0 88 22.5 158t63.5 119.5t99 76t130 26.5zM303 914q28 0 35 -4t3 -10l-84 -128q-3 -5 -10.5 -7.5t-23.5 -2.5h-8q-23 0 -27 3.5t-1 9.5l64 128q2 5 11.5 8t30.5 3h10zM471 914q28 0 35 -4t3 -10l-84 -128q-3 -5 -10.5 -7.5t-23.5 -2.5h-8q-23 0 -27 3.5t-1 9.5
l64 128q2 5 11.5 8t30.5 3h10z" />
    <glyph glyph-name="ohungarumlaut" unicode="&#x151;" horiz-adv-x="568" 
d="M294 538q94 0 150 -50q38 -33 58.5 -87t20.5 -125t-18 -124.5t-50.5 -89.5t-78.5 -54t-102 -18q-94 0 -150 50q-38 33 -58.5 87t-20.5 125t18 124.5t50.5 89.5t78.5 54t102 18zM290 458q-30 0 -57.5 -11t-48 -35t-33 -61.5t-12.5 -91.5q0 -34 6.5 -67.5t22 -60.5
t42.5 -44t68 -17q30 0 57.5 11t48 35t33 61.5t12.5 91.5q0 34 -6.5 67.5t-22 60.5t-42.5 44t-68 17zM238 732q28 0 35 -4t3 -10l-84 -128q-3 -5 -10.5 -7.5t-23.5 -2.5h-8q-23 0 -27 3.5t-1 9.5l64 128q2 5 11.5 8t30.5 3h10zM406 732q28 0 35 -4t3 -10l-84 -128
q-3 -5 -10.5 -7.5t-23.5 -2.5h-8q-23 0 -27 3.5t-1 9.5l64 128q2 5 11.5 8t30.5 3h10z" />
    <glyph glyph-name="OE" unicode="&#x152;" horiz-adv-x="937" 
d="M873 720q9 0 9 -33v-12q0 -34 -9 -34h-305v-237h259q9 0 9 -33v-12q0 -34 -9 -34h-259v-245h309q9 0 9 -33v-13q0 -34 -9 -34h-404q-31 -5 -63 -7.5t-61 -2.5q-69 0 -125 21.5t-95.5 65t-61.5 110.5t-22 158q0 92 22 164t63.5 121t101.5 74.5t135 25.5q27 0 53.5 -2.5
t52.5 -7.5h400zM473 639q-25 7 -52 9.5t-55 2.5q-108 0 -165.5 -75t-57.5 -224q0 -142 54 -213t157 -71q31 0 61.5 2.5t57.5 7.5v561z" />
    <glyph glyph-name="oe" unicode="&#x153;" horiz-adv-x="912" 
d="M514 232q2 -42 13.5 -73t34.5 -51q39 -36 114 -36q61 0 128 32q7 3 12 1.5t13 -20.5l5 -12q8 -20 8 -26.5t-6 -10.5q-77 -46 -177 -46q-75 0 -123.5 27t-72.5 72q-25 -46 -75 -72.5t-118 -26.5q-91 0 -147 50q-37 33 -57 87t-20 125t17.5 124.5t49.5 89.5t77 54t100 18
q66 0 110 -24t73 -77q25 47 71.5 74t110.5 27q66 0 110 -30t69 -80q17 -35 24.5 -75t7.5 -85q0 -23 -2 -29.5t-8 -6.5h-342zM286 457q-29 0 -55.5 -11t-46.5 -34.5t-32 -61t-12 -91.5q0 -34 6 -67.5t21.5 -60.5t41.5 -43.5t65 -16.5q28 0 54.5 10.5t46.5 34t32.5 60
t12.5 88.5q0 36 -6 70.5t-21.5 62t-41.5 44t-65 16.5zM774 306q0 28 -7.5 55t-22 48t-36.5 34t-52 13q-54 0 -91.5 -36t-47.5 -114h257z" />
    <glyph glyph-name="Racute" unicode="&#x154;" horiz-adv-x="574" 
d="M249 720q57 0 106.5 -9t86 -32t57.5 -62.5t21 -100.5q0 -78 -37.5 -129.5t-109.5 -78.5l48 -93q27 -54 55 -101t65 -98q1 -2 1 -3q0 -4 -8 -8q-11 -5 -33 -5h-19q-23 0 -35.5 6t-17.5 13q-29 41 -48 77l-42 80l-61 119h-103v-284q0 -11 -41 -11h-11q-43 0 -43 11v709h169
zM175 371h91q42 0 71.5 10.5t48.5 29.5t27.5 45t8.5 57q0 45 -15.5 70.5t-39 39t-51.5 17t-52 3.5h-89v-272zM371 914q28 0 35.5 -4.5t3.5 -9.5l-94 -128q-4 -5 -11 -7t-25 -2h-8q-24 0 -28.5 3.5t-1.5 8.5l73 128q3 5 13 8t31 3h12z" />
    <glyph glyph-name="racute" unicode="&#x155;" horiz-adv-x="359" 
d="M121 528q27 0 34 -2.5t7 -9.5l2 -103q29 63 67.5 92t78.5 29q11 0 21 -2q7 -2 8.5 -6.5t1.5 -21.5v-15q0 -22 -1.5 -29.5t-9.5 -7.5q-27 0 -47.5 -7.5t-36.5 -20.5t-28.5 -29t-23.5 -34q-21 -35 -24 -86q-2 -21 -2.5 -62.5t-0.5 -85.5v-115q0 -5 -5.5 -8.5t-35.5 -3.5h-6
q-30 0 -36.5 3t-6.5 9v341q0 25 -0.5 50.5t-0.5 47t-0.5 39t-0.5 26.5q0 6 6 9t35 3h5zM284 732q28 0 35.5 -4.5t2.5 -9.5l-93 -128q-2 -4 -10 -6.5t-26 -2.5h-8q-24 0 -28.5 3.5t-1.5 8.5l73 128q3 5 13 8t31 3h12z" />
    <glyph glyph-name="Rcommaaccent" unicode="&#x156;" horiz-adv-x="574" 
d="M249 720q57 0 106.5 -9t86 -32t57.5 -62.5t21 -100.5q0 -78 -37.5 -129.5t-109.5 -78.5l48 -93q27 -54 55 -101t65 -98q1 -2 1 -3q0 -4 -8 -8q-11 -5 -33 -5h-19q-23 0 -35.5 6t-17.5 13q-29 41 -48 77l-42 80l-61 119h-103v-284q0 -11 -41 -11h-11q-43 0 -43 11v709h169
zM175 371h91q42 0 71.5 10.5t48.5 29.5t27.5 45t8.5 57q0 45 -15.5 70.5t-39 39t-51.5 17t-52 3.5h-89v-272zM239 -283q-11 12 -1 22q17 17 32 38t15 43q0 12 -5.5 19.5t-12.5 14.5t-12.5 16t-5.5 24q0 21 16 34t36 12q27 0 43 -18t16 -45q0 -48 -24 -94t-65 -78
q-7 -5 -11.5 -4.5t-11.5 6.5z" />
    <glyph glyph-name="rcommaaccent" unicode="&#x157;" horiz-adv-x="359" 
d="M121 528q27 0 34 -2.5t7 -9.5l2 -103q29 63 67.5 92t78.5 29q11 0 21 -2q7 -2 8.5 -6.5t1.5 -21.5v-15q0 -22 -1.5 -29.5t-9.5 -7.5q-27 0 -47.5 -7.5t-36.5 -20.5t-28.5 -29t-23.5 -34q-21 -35 -24 -86q-2 -21 -2.5 -62.5t-0.5 -85.5v-115q0 -5 -5.5 -8.5t-35.5 -3.5h-6
q-30 0 -36.5 3t-6.5 9v341q0 25 -0.5 50.5t-0.5 47t-0.5 39t-0.5 26.5q0 6 6 9t35 3h5zM63 -283q-11 12 -1 22q17 17 32 38t15 43q0 12 -5.5 19.5t-12.5 14.5t-12.5 16t-5.5 24q0 21 16 34t36 12q27 0 43 -18t16 -45q0 -48 -24 -94t-65 -78q-7 -5 -11.5 -4.5t-11.5 6.5z" />
    <glyph glyph-name="Rcaron" unicode="&#x158;" horiz-adv-x="574" 
d="M249 720q57 0 106.5 -9t86 -32t57.5 -62.5t21 -100.5q0 -78 -37.5 -129.5t-109.5 -78.5l48 -93q27 -54 55 -101t65 -98q1 -2 1 -3q0 -4 -8 -8q-11 -5 -33 -5h-19q-23 0 -35.5 6t-17.5 13q-29 41 -48 77l-42 80l-61 119h-103v-284q0 -11 -41 -11h-11q-43 0 -43 11v709h169
zM175 371h91q42 0 71.5 10.5t48.5 29.5t27.5 45t8.5 57q0 45 -15.5 70.5t-39 39t-51.5 17t-52 3.5h-89v-272zM166 912q7 8 15.5 13t12.5 0l112 -98l109 95q9 7 25 -11l6 -7q17 -18 9 -27l-91 -97q-5 -6 -14.5 -9.5t-29.5 -3.5h-38q-21 0 -30.5 4.5t-14.5 9.5l-89 94
q-5 5 -1.5 12.5t11.5 15.5z" />
    <glyph glyph-name="rcaron" unicode="&#x159;" horiz-adv-x="359" 
d="M121 528q27 0 34 -2.5t7 -9.5l2 -103q29 63 67.5 92t78.5 29q11 0 21 -2q7 -2 8.5 -6.5t1.5 -21.5v-15q0 -22 -1.5 -29.5t-9.5 -7.5q-27 0 -47.5 -7.5t-36.5 -20.5t-28.5 -29t-23.5 -34q-21 -35 -24 -86q-2 -21 -2.5 -62.5t-0.5 -85.5v-115q0 -5 -5.5 -8.5t-35.5 -3.5h-6
q-30 0 -36.5 3t-6.5 9v341q0 25 -0.5 50.5t-0.5 47t-0.5 39t-0.5 26.5q0 6 6 9t35 3h5zM84 720q7 8 15.5 13t12.5 0l112 -98l109 95q9 7 25 -11l6 -7q17 -18 9 -27l-91 -97q-5 -6 -14.5 -9.5t-29.5 -3.5h-38q-21 0 -30.5 4.5t-14.5 9.5l-89 94q-5 5 -1.5 12.5t11.5 15.5z
" />
    <glyph glyph-name="Sacute" unicode="&#x15a;" horiz-adv-x="519" 
d="M436 635q-8 -15 -15.5 -19t-12.5 -1q-24 16 -55.5 25.5t-69.5 9.5q-32 0 -55 -9t-38 -24t-22 -34t-7 -39q0 -36 23.5 -60.5t59.5 -44.5t77 -39.5t77 -46t59.5 -64t23.5 -93.5q0 -46 -14.5 -84t-43.5 -65t-72 -42t-100 -15q-63 0 -116 15.5t-86 41.5q-5 4 -5 11
q0 11 11 30l7 12q8 12 15.5 17t12.5 2q34 -23 76 -36t74 -13q31 0 57.5 7.5t46.5 22t31.5 35.5t11.5 49q0 43 -23.5 70.5t-59 48.5t-77 39t-77 42.5t-59 59t-23.5 87.5q0 47 16.5 84t45 62.5t66.5 39t80 13.5q22 0 45.5 -3.5t46.5 -10t43.5 -16t35.5 -21.5q5 -4 2.5 -14
t-8.5 -21zM336 914q28 0 35.5 -4.5t3.5 -9.5l-94 -128q-4 -5 -11 -7t-25 -2h-8q-24 0 -28.5 3.5t-1.5 8.5l73 128q3 5 13 8t31 3h12z" />
    <glyph glyph-name="sacute" unicode="&#x15b;" horiz-adv-x="458" 
d="M387 437q-7 -10 -11.5 -15t-7.5 -7t-5.5 -1t-5.5 3q-28 20 -55.5 32t-60.5 12q-15 0 -32.5 -3.5t-32.5 -11.5t-25 -21.5t-10 -34.5q0 -20 9.5 -33.5t24.5 -22.5t33.5 -14.5t36.5 -9.5q31 -8 61 -18.5t54 -28t39 -43.5t15 -65q0 -40 -16 -71t-43 -52t-63.5 -31.5
t-77.5 -10.5q-48 0 -91.5 15t-72.5 35q-6 4 -6 9t10 27l5 11q10 21 15 24t15 -3q29 -17 63 -28.5t67 -11.5q17 0 36.5 4.5t36 14t27 25t10.5 37.5q0 20 -11 34t-27.5 23.5t-37 15.5t-39.5 10q-40 9 -69.5 20.5t-49.5 30.5q-19 17 -29.5 42.5t-10.5 54.5q0 37 15 66t40 49.5
t58.5 31.5t71.5 11q48 0 89 -15t69 -40q6 -5 6.5 -13t-10.5 -23zM297 732q28 0 35.5 -4.5t2.5 -9.5l-93 -128q-2 -4 -10 -6.5t-26 -2.5h-8q-24 0 -28.5 3.5t-1.5 8.5l73 128q3 5 13 8t31 3h12z" />
    <glyph glyph-name="Scircumflex" unicode="&#x15c;" horiz-adv-x="519" 
d="M436 635q-8 -15 -15.5 -19t-12.5 -1q-24 16 -55.5 25.5t-69.5 9.5q-32 0 -55 -9t-38 -24t-22 -34t-7 -39q0 -36 23.5 -60.5t59.5 -44.5t77 -39.5t77 -46t59.5 -64t23.5 -93.5q0 -46 -14.5 -84t-43.5 -65t-72 -42t-100 -15q-63 0 -116 15.5t-86 41.5q-5 4 -5 11
q0 11 11 30l7 12q8 12 15.5 17t12.5 2q34 -23 76 -36t74 -13q31 0 57.5 7.5t46.5 22t31.5 35.5t11.5 49q0 43 -23.5 70.5t-59 48.5t-77 39t-77 42.5t-59 59t-23.5 87.5q0 47 16.5 84t45 62.5t66.5 39t80 13.5q22 0 45.5 -3.5t46.5 -10t43.5 -16t35.5 -21.5q5 -4 2.5 -14
t-8.5 -21zM218 896q5 6 14.5 9.5t29.5 4.5h38q21 0 30.5 -5t14.5 -10l89 -94q9 -9 -10 -29l-8 -9q-7 -8 -14.5 -11.5t-11.5 0.5l-110 96l-112 -95q-7 -7 -24 11l-7 8q-17 19 -10 27z" />
    <glyph glyph-name="scircumflex" unicode="&#x15d;" horiz-adv-x="458" 
d="M387 437q-7 -10 -11.5 -15t-7.5 -7t-5.5 -1t-5.5 3q-28 20 -55.5 32t-60.5 12q-15 0 -32.5 -3.5t-32.5 -11.5t-25 -21.5t-10 -34.5q0 -20 9.5 -33.5t24.5 -22.5t33.5 -14.5t36.5 -9.5q31 -8 61 -18.5t54 -28t39 -43.5t15 -65q0 -40 -16 -71t-43 -52t-63.5 -31.5
t-77.5 -10.5q-48 0 -91.5 15t-72.5 35q-6 4 -6 9t10 27l5 11q10 21 15 24t15 -3q29 -17 63 -28.5t67 -11.5q17 0 36.5 4.5t36 14t27 25t10.5 37.5q0 20 -11 34t-27.5 23.5t-37 15.5t-39.5 10q-40 9 -69.5 20.5t-49.5 30.5q-19 17 -29.5 42.5t-10.5 54.5q0 37 15 66t40 49.5
t58.5 31.5t71.5 11q48 0 89 -15t69 -40q6 -5 6.5 -13t-10.5 -23zM178 724q5 6 14.5 9.5t29.5 4.5h38q21 0 30.5 -5t14.5 -10l89 -94q9 -9 -10 -29l-8 -9q-7 -8 -14.5 -11.5t-11.5 0.5l-110 96l-112 -95q-7 -7 -24 11l-7 8q-17 19 -10 27z" />
    <glyph glyph-name="Scedilla" unicode="&#x15e;" horiz-adv-x="519" 
d="M436 635q-8 -15 -15.5 -19t-12.5 -1q-24 16 -55.5 25.5t-69.5 9.5q-32 0 -55 -9t-38 -24t-22 -34t-7 -39q0 -36 23.5 -60.5t59.5 -44.5t77 -39.5t77 -46t59.5 -64t23.5 -93.5q0 -87 -51.5 -142.5t-151.5 -62.5l-2 -32q6 1 10 1h7q38 0 64.5 -21t26.5 -63q0 -18 -7 -36
t-21 -31.5t-36.5 -22t-53.5 -8.5q-21 0 -42 3.5t-34 8.5q-4 2 -5.5 7t1.5 16l4 16q5 21 14 18q13 -4 28 -6t26 -2q20 0 32.5 8t12.5 25t-12 23t-38 6q-14 0 -30.5 -0.5t-28.5 -2.5l12 94q-49 5 -89.5 19.5t-67.5 35.5q-12 10 6 41l7 12q8 12 15.5 17t12.5 2q34 -23 76 -36
t74 -13q31 0 57.5 7.5t46.5 22t31.5 35.5t11.5 49q0 43 -23.5 70.5t-59 48.5t-77 39t-77 42.5t-59 59t-23.5 87.5q0 47 16.5 84t45 62.5t66.5 39t80 13.5q22 0 45.5 -3.5t46.5 -10t43.5 -16t35.5 -21.5q5 -4 2.5 -14t-8.5 -21z" />
    <glyph glyph-name="scedilla" unicode="&#x15f;" horiz-adv-x="458" 
d="M387 437q-7 -10 -11.5 -15t-7.5 -7t-5.5 -1t-5.5 3q-28 20 -55.5 32t-60.5 12q-15 0 -32.5 -3.5t-32.5 -11.5t-25 -21.5t-10 -34.5q0 -20 9.5 -33.5t24.5 -22.5t33.5 -14.5t36.5 -9.5q31 -8 61 -18.5t54 -28t39 -43.5t15 -65q0 -36 -13 -65t-36 -49.5t-53.5 -33
t-66.5 -15.5l-2 -33q5 1 9 1h8q38 0 64.5 -21t26.5 -63q0 -18 -7 -36t-21 -31.5t-36.5 -22t-53.5 -8.5q-21 0 -42 3.5t-34 8.5q-4 2 -5.5 7t1.5 16l4 16q5 21 14 18q13 -4 28 -6t26 -2q20 0 32.5 8t12.5 25t-12 23t-38 6q-14 0 -30.5 -0.5t-28.5 -2.5l12 95q-37 5 -68.5 18
t-54.5 29q-8 5 -6 12t10 24l5 11q10 21 15 24t15 -3q29 -17 63 -28.5t67 -11.5q17 0 36.5 4.5t36 14t27 25t10.5 37.5q0 20 -11 34t-27.5 23.5t-37 15.5t-39.5 10q-40 9 -69.5 20.5t-49.5 30.5q-19 17 -29.5 42.5t-10.5 54.5q0 37 15 66t40 49.5t58.5 31.5t71.5 11
q48 0 89 -15t69 -40q6 -5 6.5 -13t-10.5 -23z" />
    <glyph glyph-name="Scaron" unicode="&#x160;" horiz-adv-x="519" 
d="M436 635q-8 -15 -15.5 -19t-12.5 -1q-24 16 -55.5 25.5t-69.5 9.5q-32 0 -55 -9t-38 -24t-22 -34t-7 -39q0 -36 23.5 -60.5t59.5 -44.5t77 -39.5t77 -46t59.5 -64t23.5 -93.5q0 -46 -14.5 -84t-43.5 -65t-72 -42t-100 -15q-63 0 -116 15.5t-86 41.5q-5 4 -5 11
q0 11 11 30l7 12q8 12 15.5 17t12.5 2q34 -23 76 -36t74 -13q31 0 57.5 7.5t46.5 22t31.5 35.5t11.5 49q0 43 -23.5 70.5t-59 48.5t-77 39t-77 42.5t-59 59t-23.5 87.5q0 47 16.5 84t45 62.5t66.5 39t80 13.5q22 0 45.5 -3.5t46.5 -10t43.5 -16t35.5 -21.5q5 -4 2.5 -14
t-8.5 -21zM137 903q7 8 15.5 13t12.5 0l112 -98l109 95q9 7 25 -11l6 -7q17 -18 9 -27l-91 -97q-5 -6 -14.5 -9.5t-29.5 -3.5h-38q-21 0 -30.5 4.5t-14.5 9.5l-89 94q-5 5 -1.5 12.5t11.5 15.5z" />
    <glyph glyph-name="scaron" unicode="&#x161;" horiz-adv-x="458" 
d="M387 437q-7 -10 -11.5 -15t-7.5 -7t-5.5 -1t-5.5 3q-28 20 -55.5 32t-60.5 12q-15 0 -32.5 -3.5t-32.5 -11.5t-25 -21.5t-10 -34.5q0 -20 9.5 -33.5t24.5 -22.5t33.5 -14.5t36.5 -9.5q31 -8 61 -18.5t54 -28t39 -43.5t15 -65q0 -40 -16 -71t-43 -52t-63.5 -31.5
t-77.5 -10.5q-48 0 -91.5 15t-72.5 35q-6 4 -6 9t10 27l5 11q10 21 15 24t15 -3q29 -17 63 -28.5t67 -11.5q17 0 36.5 4.5t36 14t27 25t10.5 37.5q0 20 -11 34t-27.5 23.5t-37 15.5t-39.5 10q-40 9 -69.5 20.5t-49.5 30.5q-19 17 -29.5 42.5t-10.5 54.5q0 37 15 66t40 49.5
t58.5 31.5t71.5 11q48 0 89 -15t69 -40q6 -5 6.5 -13t-10.5 -23zM102 720q7 8 15.5 13t12.5 0l112 -98l109 95q9 7 25 -11l6 -7q17 -18 9 -27l-91 -97q-5 -6 -14.5 -9.5t-29.5 -3.5h-38q-21 0 -30.5 4.5t-14.5 9.5l-89 94q-5 5 -1.5 12.5t11.5 15.5z" />
    <glyph glyph-name="Tcommaaccent" unicode="&#x162;" horiz-adv-x="512" 
d="M489 720q9 0 9 -33v-12q0 -34 -9 -34h-186v-630q0 -11 -43 -11h-11q-41 0 -41 11v630h-185q-9 0 -9 34v12q0 33 9 33h466zM193 -283q-11 12 -1 22q17 17 32 38t15 43q0 12 -5.5 19.5t-12.5 14.5t-12.5 16t-5.5 24q0 21 16 34t36 12q27 0 43 -18t16 -45q0 -48 -24 -94
t-65 -78q-7 -5 -11.5 -4.5t-11.5 6.5z" />
    <glyph glyph-name="tcommaaccent" unicode="&#x163;" horiz-adv-x="368" 
d="M146 676q30 0 35.5 -3.5t5.5 -8.5v-136h126q5 0 7 -5.5t2 -25.5v-8q0 -20 -2 -26t-7 -6h-126v-295q0 -29 3 -47.5t13 -29.5q16 -18 51 -18q17 0 35 4t33 9q8 2 11 -2t7 -18l3 -13q4 -14 4 -21t-7 -11q-19 -12 -48 -18.5t-57 -6.5q-65 0 -100 33q-22 20 -30 50.5t-8 81.5
v302h-63q-5 0 -7 6t-2 26v8q0 20 2 25.5t7 5.5h63v136q0 6 6.5 9t36.5 3h6zM162 -283q-11 12 -1 22q17 17 32 38t15 43q0 12 -5.5 19.5t-12.5 14.5t-12.5 16t-5.5 24q0 21 16 34t36 12q27 0 43 -18t16 -45q0 -48 -24 -94t-65 -78q-7 -5 -11.5 -4.5t-11.5 6.5z" />
    <glyph glyph-name="Tcaron" unicode="&#x164;" horiz-adv-x="512" 
d="M489 720q9 0 9 -33v-12q0 -34 -9 -34h-186v-630q0 -11 -43 -11h-11q-41 0 -41 11v630h-185q-9 0 -9 34v12q0 33 9 33h466zM121 912q7 8 15.5 13t12.5 0l112 -98l109 95q9 7 25 -11l6 -7q17 -18 9 -27l-91 -97q-5 -6 -14.5 -9.5t-29.5 -3.5h-38q-21 0 -30.5 4.5t-14.5 9.5
l-89 94q-5 5 -1.5 12.5t11.5 15.5z" />
    <glyph glyph-name="tcaron" unicode="&#x165;" horiz-adv-x="368" 
d="M146 676q30 0 35.5 -3.5t5.5 -8.5v-136h126q5 0 7 -5.5t2 -25.5v-8q0 -20 -2 -26t-7 -6h-126v-295q0 -29 3 -47.5t13 -29.5q16 -18 51 -18q17 0 35 4t33 9q8 2 11 -2t7 -18l3 -13q4 -14 4 -21t-7 -11q-19 -12 -48 -18.5t-57 -6.5q-65 0 -100 33q-22 20 -30 50.5t-8 81.5
v302h-63q-5 0 -7 6t-2 26v8q0 20 2 25.5t7 5.5h63v136q0 6 6.5 9t36.5 3h6zM247 607q-11 12 -1 22q17 17 32 38t15 43q0 12 -5.5 19.5t-12.5 14.5t-12.5 16t-5.5 24q0 21 16 34t36 12q27 0 43 -18t16 -45q0 -48 -24 -94t-65 -78q-7 -5 -11.5 -4.5t-11.5 6.5z" />
    <glyph glyph-name="Tbar" unicode="&#x166;" horiz-adv-x="512" 
d="M208 398v243h-185q-9 0 -9 34v12q0 33 9 33h466q9 0 9 -33v-12q0 -34 -9 -34h-186v-243h110q10 0 10 -29v-7q0 -32 -10 -32h-110v-319q0 -11 -43 -11h-11q-41 0 -41 11v319h-110q-10 0 -10 32v7q0 29 10 29h110z" />
    <glyph glyph-name="tbar" unicode="&#x167;" horiz-adv-x="368" 
d="M146 676q30 0 35.5 -3.5t5.5 -8.5v-136h126q5 0 7 -5.5t2 -25.5v-8q0 -20 -2 -26t-7 -6h-126v-153h106q9 0 9 -32t-9 -32h-106v-78q0 -29 3 -47.5t13 -29.5q16 -18 51 -18q17 0 35 4t33 9q8 2 11 -2t7 -18l3 -13q4 -16 3.5 -22t-6.5 -10q-19 -12 -48 -18.5t-57 -6.5
q-65 0 -100 33q-22 20 -30 50.5t-8 81.5v85h-60q-9 0 -9 32t9 32h60v153h-63q-5 0 -7 6t-2 26v8q0 20 2 25.5t7 5.5h63v136q0 6 6.5 9t36.5 3h6z" />
    <glyph glyph-name="Utilde" unicode="&#x168;" horiz-adv-x="678" 
d="M125 720q43 0 43 -11v-440q0 -106 43.5 -152.5t127.5 -46.5q82 0 126.5 49.5t44.5 148.5v441q0 11 41 11h11q43 0 43 -11v-429q0 -149 -67 -219.5t-203 -70.5q-130 0 -196 64.5t-66 207.5v447q0 11 41 11h11zM194 808q-14 19 -8 27q16 19 40.5 33t55.5 14q22 0 37 -6
q16 -6 28 -12l24 -13q12 -6 30 -6q16 0 29 8.5t22 18.5q4 4 11 -0.5t15 -14.5l6 -8q6 -8 8.5 -15.5t-0.5 -11.5q-14 -20 -38.5 -36t-54.5 -16q-19 0 -33 6q-13 6 -27 12l-28 13q-14 6 -31 6q-16 0 -29.5 -8t-23.5 -19q-4 -4 -11 1.5t-15 16.5z" />
    <glyph glyph-name="utilde" unicode="&#x169;" horiz-adv-x="581" 
d="M117 528q29 0 35.5 -3t6.5 -9v-262q0 -59 4 -93t21 -54q28 -34 89 -34q29 0 60 9.5t49 26.5q8 7 14 17.5t10 28.5t6 45.5t2 68.5v247q0 5 7 8.5t33 3.5h9q26 0 33.5 -3t7.5 -9v-341q0 -26 0.5 -51t0.5 -46.5t0.5 -39t0.5 -26.5q0 -6 -6 -9t-35 -3h-4q-26 0 -33.5 3
t-7.5 9l-2 43h-1q-28 -31 -69 -48t-97 -17q-83 0 -133 53q-26 28 -37.5 68.5t-11.5 101.5v303q0 3 1 5t5 3.5t12 2.5t22 1h8zM146 646q-14 19 -8 27q16 19 40.5 33t55.5 14q22 0 37 -6q16 -6 28 -12l24 -13q12 -6 30 -6q16 0 29 8.5t22 18.5q4 4 11 -0.5t15 -14.5l6 -8
q6 -8 8.5 -15.5t-0.5 -11.5q-14 -20 -38.5 -36t-54.5 -16q-19 0 -33 6q-13 6 -27 12l-28 13q-14 6 -31 6q-16 0 -29.5 -8t-23.5 -19q-4 -4 -11 1.5t-15 16.5z" />
    <glyph glyph-name="Umacron" unicode="&#x16a;" horiz-adv-x="678" 
d="M125 720q43 0 43 -11v-440q0 -106 43.5 -152.5t127.5 -46.5q82 0 126.5 49.5t44.5 148.5v441q0 11 41 11h11q43 0 43 -11v-429q0 -149 -67 -219.5t-203 -70.5q-130 0 -196 64.5t-66 207.5v447q0 11 41 11h11zM476 874q10 0 10 -29v-12q0 -32 -10 -32h-275q-10 0 -10 32
v12q0 29 10 29h275z" />
    <glyph glyph-name="umacron" unicode="&#x16b;" horiz-adv-x="581" 
d="M117 528q29 0 35.5 -3t6.5 -9v-262q0 -59 4 -93t21 -54q28 -34 89 -34q29 0 60 9.5t49 26.5q8 7 14 17.5t10 28.5t6 45.5t2 68.5v247q0 5 7 8.5t33 3.5h9q26 0 33.5 -3t7.5 -9v-341q0 -26 0.5 -51t0.5 -46.5t0.5 -39t0.5 -26.5q0 -6 -6 -9t-35 -3h-4q-26 0 -33.5 3
t-7.5 9l-2 43h-1q-28 -31 -69 -48t-97 -17q-83 0 -133 53q-26 28 -37.5 68.5t-11.5 101.5v303q0 3 1 5t5 3.5t12 2.5t22 1h8zM428 693q10 0 10 -29v-12q0 -32 -10 -32h-275q-10 0 -10 32v12q0 29 10 29h275z" />
    <glyph glyph-name="Ubreve" unicode="&#x16c;" horiz-adv-x="678" 
d="M125 720q43 0 43 -11v-440q0 -106 43.5 -152.5t127.5 -46.5q82 0 126.5 49.5t44.5 148.5v441q0 11 41 11h11q43 0 43 -11v-429q0 -149 -67 -219.5t-203 -70.5q-130 0 -196 64.5t-66 207.5v447q0 11 41 11h11zM234 912q17 0 23 -2.5t7 -7.5q3 -29 22.5 -44t51.5 -15
t51 15.5t23 43.5q1 5 7 7.5t23 2.5h13q32 0 32 -10q-4 -61 -45.5 -90t-105.5 -29q-62 0 -102 28t-44 91q0 10 32 10h12z" />
    <glyph glyph-name="ubreve" unicode="&#x16d;" horiz-adv-x="581" 
d="M117 528q29 0 35.5 -3t6.5 -9v-262q0 -59 4 -93t21 -54q28 -34 89 -34q29 0 60 9.5t49 26.5q8 7 14 17.5t10 28.5t6 45.5t2 68.5v247q0 5 7 8.5t33 3.5h9q26 0 33.5 -3t7.5 -9v-341q0 -26 0.5 -51t0.5 -46.5t0.5 -39t0.5 -26.5q0 -6 -6 -9t-35 -3h-4q-26 0 -33.5 3
t-7.5 9l-2 43h-1q-28 -31 -69 -48t-97 -17q-83 0 -133 53q-26 28 -37.5 68.5t-11.5 101.5v303q0 3 1 5t5 3.5t12 2.5t22 1h8zM186 722q17 0 23 -2.5t7 -7.5q3 -29 22.5 -44t51.5 -15t51 15.5t23 43.5q1 5 7 7.5t23 2.5h13q32 0 32 -10q-4 -61 -45.5 -90t-105.5 -29
q-62 0 -102 28t-44 91q0 10 32 10h12z" />
    <glyph glyph-name="Uring" unicode="&#x16e;" horiz-adv-x="678" 
d="M125 720q43 0 43 -11v-440q0 -106 43.5 -152.5t127.5 -46.5q82 0 126.5 49.5t44.5 148.5v441q0 11 41 11h11q43 0 43 -11v-429q0 -149 -67 -219.5t-203 -70.5q-130 0 -196 64.5t-66 207.5v447q0 11 41 11h11zM245 832q0 19 7.5 35.5t20.5 28.5t30 19t36 7t36 -7t30 -19
t20.5 -28.5t7.5 -35.5t-7.5 -35.5t-20.5 -28.5t-30 -19t-36 -7t-36 7t-30 19t-20.5 28.5t-7.5 35.5zM297 832q0 -19 12.5 -30.5t29.5 -11.5q18 0 29.5 12.5t11.5 29.5t-11.5 29.5t-29.5 12.5q-17 0 -29.5 -11.5t-12.5 -30.5z" />
    <glyph glyph-name="uring" unicode="&#x16f;" horiz-adv-x="581" 
d="M117 528q29 0 35.5 -3t6.5 -9v-262q0 -59 4 -93t21 -54q28 -34 89 -34q29 0 60 9.5t49 26.5q8 7 14 17.5t10 28.5t6 45.5t2 68.5v247q0 5 7 8.5t33 3.5h9q26 0 33.5 -3t7.5 -9v-341q0 -26 0.5 -51t0.5 -46.5t0.5 -39t0.5 -26.5q0 -6 -6 -9t-35 -3h-4q-26 0 -33.5 3
t-7.5 9l-2 43h-1q-28 -31 -69 -48t-97 -17q-83 0 -133 53q-26 28 -37.5 68.5t-11.5 101.5v303q0 3 1 5t5 3.5t12 2.5t22 1h8zM196 668q0 19 7.5 35.5t20.5 28.5t30 19t36 7t36 -7t30 -19t20.5 -28.5t7.5 -35.5t-7.5 -35.5t-20.5 -28.5t-30 -19t-36 -7t-36 7t-30 19
t-20.5 28.5t-7.5 35.5zM248 668q0 -19 12.5 -30.5t29.5 -11.5q18 0 29.5 12.5t11.5 29.5t-11.5 29.5t-29.5 12.5q-17 0 -29.5 -11.5t-12.5 -30.5z" />
    <glyph glyph-name="Uhungarumlaut" unicode="&#x170;" horiz-adv-x="678" 
d="M125 720q43 0 43 -11v-440q0 -106 43.5 -152.5t127.5 -46.5q82 0 126.5 49.5t44.5 148.5v441q0 11 41 11h11q43 0 43 -11v-429q0 -149 -67 -219.5t-203 -70.5q-130 0 -196 64.5t-66 207.5v447q0 11 41 11h11zM293 914q28 0 35 -4t3 -10l-84 -128q-3 -5 -10.5 -7.5
t-23.5 -2.5h-8q-23 0 -27 3.5t-1 9.5l64 128q2 5 11.5 8t30.5 3h10zM461 914q28 0 35 -4t3 -10l-84 -128q-3 -5 -10.5 -7.5t-23.5 -2.5h-8q-23 0 -27 3.5t-1 9.5l64 128q2 5 11.5 8t30.5 3h10z" />
    <glyph glyph-name="uhungarumlaut" unicode="&#x171;" horiz-adv-x="581" 
d="M117 528q29 0 35.5 -3t6.5 -9v-262q0 -59 4 -93t21 -54q28 -34 89 -34q29 0 60 9.5t49 26.5q8 7 14 17.5t10 28.5t6 45.5t2 68.5v247q0 5 7 8.5t33 3.5h9q26 0 33.5 -3t7.5 -9v-341q0 -26 0.5 -51t0.5 -46.5t0.5 -39t0.5 -26.5q0 -6 -6 -9t-35 -3h-4q-26 0 -33.5 3
t-7.5 9l-2 43h-1q-28 -31 -69 -48t-97 -17q-83 0 -133 53q-26 28 -37.5 68.5t-11.5 101.5v303q0 3 1 5t5 3.5t12 2.5t22 1h8zM255 732q28 0 35 -4t3 -10l-84 -128q-3 -5 -10.5 -7.5t-23.5 -2.5h-8q-23 0 -27 3.5t-1 9.5l64 128q2 5 11.5 8t30.5 3h10zM423 732q28 0 35 -4
t3 -10l-84 -128q-3 -5 -10.5 -7.5t-23.5 -2.5h-8q-23 0 -27 3.5t-1 9.5l64 128q2 5 11.5 8t30.5 3h10z" />
    <glyph glyph-name="Uogonek" unicode="&#x172;" horiz-adv-x="678" 
d="M125 720q43 0 43 -11v-440q0 -106 43.5 -152.5t127.5 -46.5q82 0 126.5 49.5t44.5 148.5v441q0 11 41 11h11q43 0 43 -11v-431q0 -45 -6 -78.5t-17.5 -60t-29.5 -47.5t-42 -41q-25 -21 -50 -38t-51 -43q-15 -15 -24.5 -31t-9.5 -37q0 -23 14 -35t36 -12q8 0 19.5 2
t20.5 4q5 1 7.5 -2.5t6.5 -19.5l2 -9q3 -14 2.5 -19.5t-4.5 -7.5q-14 -6 -33 -10t-39 -4q-53 0 -82 25t-29 67q0 30 15.5 58.5t42.5 50.5h-18q-129 0 -196 65.5t-67 206.5v447q0 11 41 11h11z" />
    <glyph glyph-name="uogonek" unicode="&#x173;" horiz-adv-x="581" 
d="M320 -119q0 37 22 72t78 62l-2 40h-1q-28 -31 -69 -48t-97 -17q-83 0 -133 53q-26 28 -37.5 68.5t-11.5 101.5v303q0 3 1 5t5 3.5t12 2.5t22 1h8q29 0 35.5 -3t6.5 -9v-262q0 -59 4 -93t21 -54q28 -34 89 -34q29 0 60 9.5t49 26.5q8 7 14 17.5t10 28.5t6 45.5t2 68.5v247
q0 5 7 8.5t33 3.5h9q26 0 33.5 -3t7.5 -9v-341q0 -51 1 -96.5t1 -64.5q0 -5 -2 -8t-10 -5q-18 -3 -35 -12.5t-30.5 -23t-21.5 -31t-8 -36.5q0 -26 15 -34.5t34 -8.5q8 0 19 1t22 5q8 2 14 -22l2 -9q3 -14 2.5 -19.5t-4.5 -7.5q-14 -6 -33 -10t-39 -4q-28 0 -49 8t-34.5 20.5
t-20.5 29t-7 34.5z" />
    <glyph glyph-name="Wcircumflex" unicode="&#x174;" horiz-adv-x="953" 
d="M86 720q20 0 32.5 -3t14.5 -9l148 -613l146 614q3 11 45 11h23q42 0 45 -11l150 -614l144 613q3 12 42 12h11q43 0 40 -12l-179 -698q-2 -6 -14.5 -8.5t-32.5 -2.5h-30q-43 0 -46 11l-144 590l-139 -588q-2 -6 -14.5 -9.5t-32.5 -3.5h-31q-43 0 -46 13l-190 696
q-2 6 10.5 9t33.5 3h14zM413 916q5 6 14.5 9.5t29.5 4.5h38q21 0 30.5 -5t14.5 -10l89 -94q9 -9 -10 -29l-8 -9q-7 -8 -14.5 -11.5t-11.5 0.5l-110 96l-112 -95q-7 -7 -24 11l-7 8q-17 19 -10 27z" />
    <glyph glyph-name="wcircumflex" unicode="&#x175;" horiz-adv-x="777" 
d="M228 104l106 410q2 8 10 11t35 3h21q24 0 31.5 -3t9.5 -11l110 -411q33 104 61 203.5t47 209.5q1 6 8.5 9t36.5 3q27 0 36 -3q6 -2 6 -10q0 -3 -1 -7q-17 -77 -34.5 -144t-35.5 -127t-37 -115l-37 -107q-3 -8 -14 -11.5t-35 -3.5h-15q-23 0 -33.5 3t-12.5 11l-63 235
q-11 42 -22.5 90.5t-19.5 89.5q-8 -39 -19.5 -87.5t-23.5 -93.5l-62 -235q-2 -8 -12 -10.5t-37 -2.5h-9q-31 0 -41 2.5t-12 10.5l-149 501q-2 9 6.5 11.5t33.5 2.5q31 0 41.5 -2.5t12.5 -8.5zM325 724q5 6 14.5 9.5t29.5 4.5h38q21 0 30.5 -5t14.5 -10l89 -94q9 -9 -10 -29
l-8 -9q-7 -8 -14.5 -11.5t-11.5 0.5l-110 96l-112 -95q-7 -7 -24 11l-7 8q-17 19 -10 27z" />
    <glyph glyph-name="Ycircumflex" unicode="&#x176;" horiz-adv-x="543" 
d="M69 720q20 0 32.5 -2.5t15.5 -8.5l159 -338l156 338q3 6 15 8.5t31 2.5h11q20 0 33 -3q10 -2 10 -7q0 -1 -1 -2l-214 -429v-268q0 -11 -43 -11h-11q-41 0 -41 11v268l-212 429q-1 1 -1 2q0 5 11 7q13 3 34 3h15zM215 916q5 6 14.5 9.5t29.5 4.5h38q21 0 30.5 -5t14.5 -10
l89 -94q9 -9 -10 -29l-8 -9q-7 -8 -14.5 -11.5t-11.5 0.5l-110 96l-112 -95q-7 -7 -24 11l-7 8q-17 19 -10 27z" />
    <glyph glyph-name="ycircumflex" unicode="&#x177;" horiz-adv-x="507" 
d="M210 268q20 -54 32 -92t23 -79q8 35 22 77l29 87l89 256q2 7 12 9t33 2q29 0 39 -3q8 -2 8 -8q0 -1 -1 -3l-189 -526q-40 -112 -85 -160q-31 -33 -68 -47t-81 -14q-20 0 -42 5t-38 13q-8 5 -8 11.5t5 20.5l4 12q6 18 10 22.5t12 2.5q14 -4 26.5 -6.5t27.5 -2.5
q25 0 45 7.5t37.5 24.5t33 46t31.5 71l-199 520q-4 9 6.5 11.5t40.5 2.5q27 0 38 -2.5t13 -8.5zM202 724q5 6 14.5 9.5t29.5 4.5h38q21 0 30.5 -5t14.5 -10l89 -94q9 -9 -10 -29l-8 -9q-7 -8 -14.5 -11.5t-11.5 0.5l-110 96l-112 -95q-7 -7 -24 11l-7 8q-17 19 -10 27z" />
    <glyph glyph-name="Ydieresis" unicode="&#x178;" horiz-adv-x="543" 
d="M69 720q20 0 32.5 -2.5t15.5 -8.5l159 -338l156 338q3 6 15 8.5t31 2.5h11q20 0 33 -3q10 -2 10 -7q0 -1 -1 -2l-214 -429v-268q0 -11 -43 -11h-11q-41 0 -41 11v268l-212 429q-1 1 -1 2q0 5 11 7q13 3 34 3h15zM102 812q0 24 16.5 40.5t40.5 16.5t40.5 -16.5t16.5 -40.5
t-16.5 -40.5t-40.5 -16.5t-40.5 16.5t-16.5 40.5zM335 812q0 24 16.5 40.5t40.5 16.5t40.5 -16.5t16.5 -40.5t-16.5 -40.5t-40.5 -16.5t-40.5 16.5t-16.5 40.5z" />
    <glyph glyph-name="Zacute" unicode="&#x179;" horiz-adv-x="547" 
d="M468 720q20 0 27.5 -3t7.5 -11v-43q0 -12 -6.5 -25t-14.5 -25l-333 -533h353q9 0 9 -33v-12q0 -35 -9 -35h-426q-20 0 -27.5 3t-7.5 11v43q0 14 4.5 25.5t13.5 25.5l334 533h-323q-5 0 -7 7.5t-2 29.5v7q0 35 9 35h398zM338 914q28 0 35.5 -4.5t3.5 -9.5l-94 -128
q-4 -5 -11 -7t-25 -2h-8q-24 0 -28.5 3.5t-1.5 8.5l73 128q3 5 13 8t31 3h12z" />
    <glyph glyph-name="zacute" unicode="&#x17a;" horiz-adv-x="455" 
d="M402 528q5 0 7 -6t2 -22v-7q0 -14 -1.5 -20.5t-6.5 -13.5l-249 -382h254q5 0 7 -6t2 -26v-14q0 -20 -2 -25.5t-7 -5.5h-359q-5 0 -7 6t-2 22v9q0 12 1.5 18t6.5 14l249 382h-236q-5 0 -7 6t-2 26v14q0 20 2 25.5t7 5.5h341zM292 732q28 0 35.5 -4.5t2.5 -9.5l-93 -128
q-2 -4 -10 -6.5t-26 -2.5h-8q-24 0 -28.5 3.5t-1.5 8.5l73 128q3 5 13 8t31 3h12z" />
    <glyph glyph-name="Zdotaccent" unicode="&#x17b;" horiz-adv-x="547" 
d="M468 720q20 0 27.5 -3t7.5 -11v-43q0 -12 -6.5 -25t-14.5 -25l-333 -533h353q9 0 9 -33v-12q0 -35 -9 -35h-426q-20 0 -27.5 3t-7.5 11v43q0 14 4.5 25.5t13.5 25.5l334 533h-323q-5 0 -7 7.5t-2 29.5v7q0 35 9 35h398zM238 842q0 23 17 39.5t40 16.5t39.5 -16.5
t16.5 -39.5t-16.5 -40t-39.5 -17t-40 17t-17 40z" />
    <glyph glyph-name="zdotaccent" unicode="&#x17c;" horiz-adv-x="455" 
d="M402 528q5 0 7 -6t2 -22v-7q0 -14 -1.5 -20.5t-6.5 -13.5l-249 -382h254q5 0 7 -6t2 -26v-14q0 -20 -2 -25.5t-7 -5.5h-359q-5 0 -7 6t-2 22v9q0 12 1.5 18t6.5 14l249 382h-236q-5 0 -7 6t-2 26v14q0 20 2 25.5t7 5.5h341zM182 662q0 23 17 39.5t40 16.5t39.5 -16.5
t16.5 -39.5t-16.5 -40t-39.5 -17t-40 17t-17 40z" />
    <glyph glyph-name="Zcaron" unicode="&#x17d;" horiz-adv-x="547" 
d="M468 720q20 0 27.5 -3t7.5 -11v-43q0 -12 -6.5 -25t-14.5 -25l-333 -533h353q9 0 9 -33v-12q0 -35 -9 -35h-426q-20 0 -27.5 3t-7.5 11v43q0 14 4.5 25.5t13.5 25.5l334 533h-323q-5 0 -7 7.5t-2 29.5v7q0 35 9 35h398zM148 903q7 8 15.5 13t12.5 0l112 -98l109 95
q9 7 25 -11l6 -7q17 -18 9 -27l-91 -97q-5 -6 -14.5 -9.5t-29.5 -3.5h-38q-21 0 -30.5 4.5t-14.5 9.5l-89 94q-5 5 -1.5 12.5t11.5 15.5z" />
    <glyph glyph-name="zcaron" unicode="&#x17e;" horiz-adv-x="455" 
d="M402 528q5 0 7 -6t2 -22v-7q0 -14 -1.5 -20.5t-6.5 -13.5l-249 -382h254q5 0 7 -6t2 -26v-14q0 -20 -2 -25.5t-7 -5.5h-359q-5 0 -7 6t-2 22v9q0 12 1.5 18t6.5 14l249 382h-236q-5 0 -7 6t-2 26v14q0 20 2 25.5t7 5.5h341zM101 720q7 8 15.5 13t12.5 0l112 -98l109 95
q9 7 25 -11l6 -7q17 -18 9 -27l-91 -97q-5 -6 -14.5 -9.5t-29.5 -3.5h-38q-21 0 -30.5 4.5t-14.5 9.5l-89 94q-5 5 -1.5 12.5t11.5 15.5z" />
    <glyph glyph-name="longs" unicode="&#x17f;" horiz-adv-x="300" 
d="M192 12q0 -5 -5.5 -8.5t-35.5 -3.5h-6q-30 0 -36.5 3t-6.5 9v445h-63q-5 0 -7 5.5t-2 25.5v8q0 20 2 26t7 6h63v24q0 106 44.5 162t137.5 56q53 0 101 -22q5 -2 5 -8.5t-5 -26.5l-1 -4q-5 -19 -8.5 -25t-9.5 -4q-19 7 -39 11t-40 4q-57 0 -76 -37.5t-19 -104.5v-541z" />
    <glyph glyph-name="florin" unicode="&#x192;" 
d="M243 438l6 50q6 45 18 88t35.5 77.5t59.5 55.5t89 21q23 0 41.5 -4.5t33.5 -11.5q5 -2 5 -11.5t-4 -22.5l-3 -10q-4 -14 -9 -22.5t-10 -6.5q-25 10 -52 10q-53 0 -77.5 -42.5t-33.5 -114.5l-7 -56h124q5 0 7 -6t2 -22v-13q0 -17 -2 -23t-7 -6h-133l-27 -222
q-7 -56 -19.5 -103t-35 -81t-56.5 -53t-84 -19q-27 0 -49.5 5t-39.5 13q-5 2 -5 12t5 23l4 11q5 13 9.5 20.5t9.5 5.5q27 -11 59 -11q53 0 76 42.5t33 124.5l28 232h-100q-5 0 -7 6t-2 23v13q0 16 2 22t7 6h109z" />
    <glyph glyph-name="Aringacute" unicode="&#x1fa;" horiz-adv-x="648" 
d="M625 11q2 -6 -10 -8.5t-33 -2.5h-15q-20 0 -32 2.5t-14 8.5l-59 176h-282l-59 -176q-4 -11 -44 -11h-13q-21 0 -32 2.5t-9 8.5l243 696q-17 12 -26.5 30.5t-9.5 40.5q0 19 7.5 35.5t20.5 28.5t30 19t36 7t36 -7t30 -19t20.5 -28.5t7.5 -35.5q0 -23 -11 -42.5t-29 -31.5z
M203 266h235l-118 354zM282 778q0 -19 12.5 -30.5t29.5 -11.5q18 0 29.5 12.5t11.5 29.5t-11.5 29.5t-29.5 12.5q-17 0 -29.5 -11.5t-12.5 -30.5zM371 1040q28 0 35.5 -4.5t3.5 -9.5l-94 -128q-2 -4 -10 -6.5t-26 -2.5h-8q-24 0 -28.5 3.5t-1.5 8.5l73 128q3 5 13 8t31 3h12
z" />
    <glyph glyph-name="aringacute" unicode="&#x1fb;" horiz-adv-x="567" 
d="M453 528q28 0 33.5 -3t5.5 -9q0 -18 -1 -61t-1 -91v-140q0 -69 2 -120l5 -92q0 -6 -6.5 -9t-29.5 -3h-4q-23 0 -30 2.5t-8 9.5l-6 46q-24 -29 -64.5 -48.5t-89.5 -19.5q-55 0 -95 21t-66.5 57.5t-39.5 84.5t-13 102q0 64 17.5 116.5t48 89.5t72.5 57t92 20
q45 0 79.5 -18.5t55.5 -45.5l5 42q1 9 7 10.5t29 1.5h2zM400 389q-17 27 -48.5 47.5t-66.5 20.5q-69 0 -107.5 -53t-38.5 -144q0 -35 7 -69t22.5 -61t41.5 -43.5t65 -16.5q25 0 52.5 8.5t47.5 30.5q8 9 13 19t7.5 26t3.5 38t1 55v142zM328 921q28 0 35.5 -4.5t2.5 -9.5
l-93 -128q-2 -4 -10 -6.5t-26 -2.5h-8q-24 0 -28.5 3.5t-1.5 8.5l73 128q3 5 13 8t31 3h12zM186 659q0 19 7.5 35.5t20.5 28.5t30 19t36 7t36 -7t30 -19t20.5 -28.5t7.5 -35.5t-7.5 -35.5t-20.5 -28.5t-30 -19t-36 -7t-36 7t-30 19t-20.5 28.5t-7.5 35.5zM238 659
q0 -19 12.5 -30.5t29.5 -11.5q18 0 29.5 12.5t11.5 29.5t-11.5 29.5t-29.5 12.5q-17 0 -29.5 -11.5t-12.5 -30.5z" />
    <glyph glyph-name="AEacute" unicode="&#x1fc;" horiz-adv-x="892" 
d="M828 720q9 0 9 -33v-12q0 -34 -9 -34h-295v-237h249q9 0 9 -33v-12q0 -34 -9 -34h-249v-245h299q9 0 9 -33v-13q0 -34 -9 -34h-394v192h-229l-100 -181q-6 -11 -46 -11h-14q-21 0 -34.5 3t-10.5 8l397 694q5 8 14.5 11.5t33.5 3.5h379zM253 271h185v333zM665 914
q28 0 35.5 -4.5t3.5 -9.5l-94 -128q-4 -5 -11 -7t-25 -2h-8q-24 0 -28.5 3.5t-1.5 8.5l73 128q3 5 13 8t31 3h12z" />
    <glyph glyph-name="aeacute" unicode="&#x1fd;" horiz-adv-x="857" 
d="M80 468q-5 13 -5.5 22t5.5 12q35 18 82.5 27t89.5 9q69 0 110.5 -21.5t64.5 -60.5q30 39 73.5 60.5t99.5 21.5q66 0 110 -30t69 -80q17 -35 24.5 -75t7.5 -85q0 -23 -2 -29.5t-8 -6.5h-342q2 -42 13.5 -73t34.5 -51q39 -36 114 -36q31 0 62.5 6.5t66.5 22.5q7 3 12 1.5
t13 -20.5l5 -12q8 -20 8 -26.5t-6 -10.5q-38 -22 -83 -32.5t-95 -10.5q-65 0 -112 21t-77 61q-15 -15 -33 -29.5t-41 -26.5t-52 -19t-66 -7q-35 0 -67.5 10.5t-58 31t-40.5 51.5t-15 72q0 83 55.5 130t155.5 47q31 0 61 -6t53 -15v16q0 71 -28.5 101t-94.5 30
q-29 0 -64.5 -6t-72.5 -20q-5 -2 -11 2.5t-12 20.5zM385 129q-9 25 -14 52t-6 59q-21 8 -49.5 13.5t-60.5 5.5q-53 0 -87.5 -23.5t-34.5 -73.5q0 -45 31 -69t79 -24q50 0 86.5 19t55.5 41zM719 306q0 28 -7.5 55t-22 48t-36.5 34t-52 13q-54 0 -91.5 -36t-47.5 -114h257z
M523 732q28 0 35.5 -4.5t2.5 -9.5l-93 -128q-2 -4 -10 -6.5t-26 -2.5h-8q-24 0 -28.5 3.5t-1.5 8.5l73 128q3 5 13 8t31 3h12z" />
    <glyph glyph-name="Oslashacute" unicode="&#x1fe;" horiz-adv-x="717" 
d="M583 754q3 5 11.5 4.5t21.5 -10.5l24 -17q11 -8 14 -15t0 -11l-59 -82q33 -45 51 -108t18 -144q0 -88 -22.5 -158.5t-63.5 -120t-99 -76t-130 -26.5q-50 0 -92.5 13t-77.5 39l-55 -76q-3 -5 -12 -4t-21 10l-23 17q-9 7 -13.5 14.5t-0.5 12.5l65 90q-30 45 -46 105.5
t-16 138.5q0 88 22.5 158t63.5 119.5t99 76t130 26.5q94 0 162 -47zM228 119q48 -48 125 -48q99 0 156 77.5t57 218.5q0 54 -8.5 98t-24.5 78zM485 608q-47 41 -117 41q-99 0 -156 -76.5t-57 -218.5q0 -99 28 -167zM433 914q28 0 35.5 -4.5t3.5 -9.5l-94 -128q-4 -5 -11 -7
t-25 -2h-8q-24 0 -28.5 3.5t-1.5 8.5l73 128q3 5 13 8t31 3h12z" />
    <glyph glyph-name="oslashacute" unicode="&#x1ff;" horiz-adv-x="583" 
d="M444 565q7 11 30 -6l24 -17q21 -15 14 -24l-38 -53q27 -34 42 -81.5t15 -107.5q0 -71 -18 -124.5t-50.5 -89.5t-78.5 -54t-102 -18q-38 0 -69.5 7.5t-57.5 24.5l-36 -49q-7 -11 -30 6l-21 17q-21 15 -14 24l43 60q-44 67 -44 172q0 71 18 124.5t50.5 89.5t78.5 54t102 18
q63 0 108 -22zM203 98q33 -27 83 -27q30 0 57.5 11t48 34.5t33 61t12.5 91.5q0 31 -5 62t-19 57zM362 442q-27 15 -64 15q-30 0 -57.5 -11t-48 -34.5t-33 -61t-12.5 -91.5q0 -25 3 -49.5t11 -47.5zM356 732q28 0 35.5 -4.5t2.5 -9.5l-93 -128q-2 -4 -10 -6.5t-26 -2.5h-8
q-24 0 -28.5 3.5t-1.5 8.5l73 128q3 5 13 8t31 3h12z" />
    <glyph glyph-name="Scommaaccent" unicode="&#x218;" horiz-adv-x="519" 
d="M436 635q-8 -15 -15.5 -19t-12.5 -1q-24 16 -55.5 25.5t-69.5 9.5q-32 0 -55 -9t-38 -24t-22 -34t-7 -39q0 -36 23.5 -60.5t59.5 -44.5t77 -39.5t77 -46t59.5 -64t23.5 -93.5q0 -46 -14.5 -84t-43.5 -65t-72 -42t-100 -15q-63 0 -116 15.5t-86 41.5q-5 4 -5 11
q0 11 11 30l7 12q8 12 15.5 17t12.5 2q34 -23 76 -36t74 -13q31 0 57.5 7.5t46.5 22t31.5 35.5t11.5 49q0 43 -23.5 70.5t-59 48.5t-77 39t-77 42.5t-59 59t-23.5 87.5q0 47 16.5 84t45 62.5t66.5 39t80 13.5q22 0 45.5 -3.5t46.5 -10t43.5 -16t35.5 -21.5q5 -4 2.5 -14
t-8.5 -21zM198 -283q-11 12 -1 22q17 17 32 38t15 43q0 12 -5.5 19.5t-12.5 14.5t-12.5 16t-5.5 24q0 21 16 34t36 12q27 0 43 -18t16 -45q0 -48 -24 -94t-65 -78q-7 -5 -11.5 -4.5t-11.5 6.5z" />
    <glyph glyph-name="scommaaccent" unicode="&#x219;" horiz-adv-x="458" 
d="M387 437q-7 -10 -11.5 -15t-7.5 -7t-5.5 -1t-5.5 3q-28 20 -55.5 32t-60.5 12q-15 0 -32.5 -3.5t-32.5 -11.5t-25 -21.5t-10 -34.5q0 -20 9.5 -33.5t24.5 -22.5t33.5 -14.5t36.5 -9.5q31 -8 61 -18.5t54 -28t39 -43.5t15 -65q0 -40 -16 -71t-43 -52t-63.5 -31.5
t-77.5 -10.5q-48 0 -91.5 15t-72.5 35q-6 4 -6 9t10 27l5 11q10 21 15 24t15 -3q29 -17 63 -28.5t67 -11.5q17 0 36.5 4.5t36 14t27 25t10.5 37.5q0 20 -11 34t-27.5 23.5t-37 15.5t-39.5 10q-40 9 -69.5 20.5t-49.5 30.5q-19 17 -29.5 42.5t-10.5 54.5q0 37 15 66t40 49.5
t58.5 31.5t71.5 11q48 0 89 -15t69 -40q6 -5 6.5 -13t-10.5 -23zM166 -283q-11 12 -1 22q17 17 32 38t15 43q0 12 -5.5 19.5t-12.5 14.5t-12.5 16t-5.5 24q0 21 16 34t36 12q27 0 43 -18t16 -45q0 -48 -24 -94t-65 -78q-7 -5 -11.5 -4.5t-11.5 6.5z" />
    <glyph glyph-name="uni021A" unicode="&#x21a;" horiz-adv-x="512" 
d="M489 720q9 0 9 -33v-12q0 -34 -9 -34h-186v-630q0 -11 -43 -11h-11q-41 0 -41 11v630h-185q-9 0 -9 34v12q0 33 9 33h466zM193 -283q-11 12 -1 22q17 17 32 38t15 43q0 12 -5.5 19.5t-12.5 14.5t-12.5 16t-5.5 24q0 21 16 34t36 12q27 0 43 -18t16 -45q0 -48 -24 -94
t-65 -78q-7 -5 -11.5 -4.5t-11.5 6.5z" />
    <glyph glyph-name="uni021B" unicode="&#x21b;" horiz-adv-x="368" 
d="M146 676q30 0 35.5 -3.5t5.5 -8.5v-136h126q5 0 7 -5.5t2 -25.5v-8q0 -20 -2 -26t-7 -6h-126v-295q0 -29 3 -47.5t13 -29.5q16 -18 51 -18q17 0 35 4t33 9q8 2 11 -2t7 -18l3 -13q4 -14 4 -21t-7 -11q-19 -12 -48 -18.5t-57 -6.5q-65 0 -100 33q-22 20 -30 50.5t-8 81.5
v302h-63q-5 0 -7 6t-2 26v8q0 20 2 25.5t7 5.5h63v136q0 6 6.5 9t36.5 3h6zM162 -283q-11 12 -1 22q17 17 32 38t15 43q0 12 -5.5 19.5t-12.5 14.5t-12.5 16t-5.5 24q0 21 16 34t36 12q27 0 43 -18t16 -45q0 -48 -24 -94t-65 -78q-7 -5 -11.5 -4.5t-11.5 6.5z" />
    <glyph glyph-name="circumflex" unicode="&#x2c6;" horiz-adv-x="350" 
d="M113 724q5 6 14.5 9.5t29.5 4.5h38q21 0 30.5 -5t14.5 -10l89 -94q9 -9 -10 -29l-8 -9q-7 -8 -14.5 -11.5t-11.5 0.5l-110 96l-112 -95q-7 -7 -24 11l-7 8q-17 19 -10 27z" />
    <glyph glyph-name="caron" unicode="&#x2c7;" horiz-adv-x="350" 
d="M39 720q7 8 15.5 13t12.5 0l112 -98l109 95q9 7 25 -11l6 -7q17 -18 9 -27l-91 -97q-5 -6 -14.5 -9.5t-29.5 -3.5h-38q-21 0 -30.5 4.5t-14.5 9.5l-89 94q-5 5 -1.5 12.5t11.5 15.5z" />
    <glyph glyph-name="breve" unicode="&#x2d8;" horiz-adv-x="350" 
d="M70 722q17 0 23 -2.5t7 -7.5q3 -29 22.5 -44t51.5 -15t51 15.5t23 43.5q1 5 7 7.5t23 2.5h13q32 0 32 -10q-4 -61 -45.5 -90t-105.5 -29q-62 0 -102 28t-44 91q0 10 32 10h12z" />
    <glyph glyph-name="dotaccent" unicode="&#x2d9;" horiz-adv-x="350" 
d="M118 662q0 23 17 39.5t40 16.5t39.5 -16.5t16.5 -39.5t-16.5 -40t-39.5 -17t-40 17t-17 40z" />
    <glyph glyph-name="ring" unicode="&#x2da;" horiz-adv-x="350" 
d="M81 668q0 19 7.5 35.5t20.5 28.5t30 19t36 7t36 -7t30 -19t20.5 -28.5t7.5 -35.5t-7.5 -35.5t-20.5 -28.5t-30 -19t-36 -7t-36 7t-30 19t-20.5 28.5t-7.5 35.5zM133 668q0 -19 12.5 -30.5t29.5 -11.5q18 0 29.5 12.5t11.5 29.5t-11.5 29.5t-29.5 12.5q-17 0 -29.5 -11.5
t-12.5 -30.5z" />
    <glyph glyph-name="ogonek" unicode="&#x2db;" horiz-adv-x="350" 
d="M216 15q18 0 21 -5t-1 -7q-42 -29 -60 -57.5t-18 -53.5q0 -22 14.5 -29.5t34.5 -7.5q8 0 19 1t22 5q8 2 14 -22l2 -9q3 -14 2.5 -19.5t-4.5 -7.5q-14 -6 -33 -10t-39 -4q-28 0 -49 8t-34.5 20.5t-20.5 29t-7 34.5q0 39 23.5 72t60.5 54q5 3 12.5 5.5t21.5 2.5h19z" />
    <glyph glyph-name="tilde" unicode="&#x2dc;" horiz-adv-x="350" 
d="M29 646q-14 19 -8 27q16 19 40.5 33t55.5 14q22 0 37 -6q16 -6 28 -12l24 -13q12 -6 30 -6q16 0 29 8.5t22 18.5q4 4 11 -0.5t15 -14.5l6 -8q6 -8 8.5 -15.5t-0.5 -11.5q-14 -20 -38.5 -36t-54.5 -16q-19 0 -33 6q-13 6 -27 12l-28 13q-14 6 -31 6q-16 0 -29.5 -8
t-23.5 -19q-4 -4 -11 1.5t-15 16.5z" />
    <glyph glyph-name="hungarumlaut" unicode="&#x2dd;" horiz-adv-x="350" 
d="M135 732q28 0 35 -4t3 -10l-84 -128q-3 -5 -10.5 -7.5t-23.5 -2.5h-8q-23 0 -27 3.5t-1 9.5l64 128q2 5 11.5 8t30.5 3h10zM303 732q28 0 35 -4t3 -10l-84 -128q-3 -5 -10.5 -7.5t-23.5 -2.5h-8q-23 0 -27 3.5t-1 9.5l64 128q2 5 11.5 8t30.5 3h10z" />
    <glyph glyph-name="uni0326" unicode="&#x326;" horiz-adv-x="350" 
d="M119 -283q-11 12 -1 22q17 17 32 38t15 43q0 12 -5.5 19.5t-12.5 14.5t-12.5 16t-5.5 24q0 21 16 34t36 12q27 0 43 -18t16 -45q0 -48 -24 -94t-65 -78q-7 -5 -11.5 -4.5t-11.5 6.5z" />
    <glyph glyph-name="uni2206" unicode="&#x394;" horiz-adv-x="601" 
d="M312 720q23 0 33 -2t12 -8l204 -602q4 -11 6.5 -24.5t2.5 -25.5v-44q0 -8 -7.5 -11t-27.5 -3h-469q-20 0 -27.5 3t-7.5 11v44q0 12 2.5 25.5t6.5 24.5l209 602q2 6 11.5 8t34.5 2h17zM127 79h340l-167 541z" />
    <glyph glyph-name="uni2206" unicode="&#x2206;" horiz-adv-x="601" 
d="M312 720q23 0 33 -2t12 -8l204 -602q4 -11 6.5 -24.5t2.5 -25.5v-44q0 -8 -7.5 -11t-27.5 -3h-469q-20 0 -27.5 3t-7.5 11v44q0 12 2.5 25.5t6.5 24.5l209 602q2 6 11.5 8t34.5 2h17zM127 79h340l-167 541z" />
    <glyph glyph-name="uni2126" unicode="&#x3a9;" horiz-adv-x="748" 
d="M181 74q-52 43 -80.5 114t-28.5 169q0 88 22.5 157.5t63.5 117.5t98 73t126 25q70 0 125.5 -26t94 -74t58.5 -115t20 -148q0 -106 -32 -178t-86 -115h126q9 0 9 -30v-12q0 -32 -9 -32h-259q-9 0 -9 29v16q0 14 2 19.5t7 7.5q39 11 67.5 37.5t47 64.5t27 85.5t8.5 100.5
q0 145 -53.5 217t-145.5 72q-48 0 -86.5 -19t-66 -56t-42.5 -93t-15 -129q0 -54 8 -100t26 -82.5t46.5 -61.5t68.5 -37q5 -2 7 -7.5t2 -19.5v-15q0 -29 -9 -29h-259q-9 0 -9 32v12q0 30 9 30h121z" />
    <glyph glyph-name="uni2126" unicode="&#x2126;" horiz-adv-x="748" 
d="M181 74q-52 43 -80.5 114t-28.5 169q0 88 22.5 157.5t63.5 117.5t98 73t126 25q70 0 125.5 -26t94 -74t58.5 -115t20 -148q0 -106 -32 -178t-86 -115h126q9 0 9 -30v-12q0 -32 -9 -32h-259q-9 0 -9 29v16q0 14 2 19.5t7 7.5q39 11 67.5 37.5t47 64.5t27 85.5t8.5 100.5
q0 145 -53.5 217t-145.5 72q-48 0 -86.5 -19t-66 -56t-42.5 -93t-15 -129q0 -54 8 -100t26 -82.5t46.5 -61.5t68.5 -37q5 -2 7 -7.5t2 -19.5v-15q0 -29 -9 -29h-259q-9 0 -9 32v12q0 30 9 30h121z" />
    <glyph glyph-name="pi" unicode="&#x3c0;" horiz-adv-x="648" 
d="M595 528q5 0 7 -5.5t2 -25.5v-8q0 -20 -2 -26t-7 -6h-116v-281q0 -53 7 -79t42 -26q15 0 30 4.5t27 12.5q5 3 10 -2t13 -20l4 -8q8 -17 9 -23.5t-4 -9.5q-22 -15 -49 -25t-63 -10q-38 0 -61 12.5t-35 36t-16 56t-4 71.5v291h-181v-445q0 -5 -5.5 -8.5t-35.5 -3.5h-6
q-30 0 -36.5 3t-6.5 9v445h-88q-5 0 -7 6t-2 26v8q0 20 2 25.5t7 5.5h565z" />
    <glyph glyph-name="Wgrave" unicode="&#x1e80;" horiz-adv-x="953" 
d="M86 720q20 0 32.5 -3t14.5 -9l148 -613l146 614q3 11 45 11h23q42 0 45 -11l150 -614l144 613q3 12 42 12h11q43 0 40 -12l-179 -698q-2 -6 -14.5 -8.5t-32.5 -2.5h-30q-43 0 -46 11l-144 590l-139 -588q-2 -6 -14.5 -9.5t-32.5 -3.5h-31q-43 0 -46 13l-190 696
q-2 6 10.5 9t33.5 3h14zM444 924q40 0 46 -11l73 -128q2 -5 -3 -8.5t-29 -3.5h-9q-18 0 -26 2.5t-11 6.5l-94 128q-4 5 4 9.5t36 4.5h13z" />
    <glyph glyph-name="wgrave" unicode="&#x1e81;" horiz-adv-x="777" 
d="M228 104l106 410q2 8 10 11t35 3h21q24 0 31.5 -3t9.5 -11l110 -411q33 104 61 203.5t47 209.5q1 6 8.5 9t36.5 3q27 0 36 -3q6 -2 6 -10q0 -3 -1 -7q-17 -77 -34.5 -144t-35.5 -127t-37 -115l-37 -107q-3 -8 -14 -11.5t-35 -3.5h-15q-23 0 -33.5 3t-12.5 11l-63 235
q-11 42 -22.5 90.5t-19.5 89.5q-8 -39 -19.5 -87.5t-23.5 -93.5l-62 -235q-2 -8 -12 -10.5t-37 -2.5h-9q-31 0 -41 2.5t-12 10.5l-149 501q-2 9 6.5 11.5t33.5 2.5q31 0 41.5 -2.5t12.5 -8.5zM348 732q40 0 46 -11l73 -128q2 -5 -3 -8.5t-29 -3.5h-9q-18 0 -26 2.5t-11 6.5
l-94 128q-4 5 4 9.5t36 4.5h13z" />
    <glyph glyph-name="Wacute" unicode="&#x1e82;" horiz-adv-x="953" 
d="M86 720q20 0 32.5 -3t14.5 -9l148 -613l146 614q3 11 45 11h23q42 0 45 -11l150 -614l144 613q3 12 42 12h11q43 0 40 -12l-179 -698q-2 -6 -14.5 -8.5t-32.5 -2.5h-30q-43 0 -46 11l-144 590l-139 -588q-2 -6 -14.5 -9.5t-32.5 -3.5h-31q-43 0 -46 13l-190 696
q-2 6 10.5 9t33.5 3h14zM537 924q28 0 35.5 -4.5t3.5 -9.5l-94 -128q-4 -5 -11 -7t-25 -2h-8q-24 0 -28.5 3.5t-1.5 8.5l73 128q3 5 13 8t31 3h12z" />
    <glyph glyph-name="wacute" unicode="&#x1e83;" horiz-adv-x="777" 
d="M228 104l106 410q2 8 10 11t35 3h21q24 0 31.5 -3t9.5 -11l110 -411q33 104 61 203.5t47 209.5q1 6 8.5 9t36.5 3q27 0 36 -3q6 -2 6 -10q0 -3 -1 -7q-17 -77 -34.5 -144t-35.5 -127t-37 -115l-37 -107q-3 -8 -14 -11.5t-35 -3.5h-15q-23 0 -33.5 3t-12.5 11l-63 235
q-11 42 -22.5 90.5t-19.5 89.5q-8 -39 -19.5 -87.5t-23.5 -93.5l-62 -235q-2 -8 -12 -10.5t-37 -2.5h-9q-31 0 -41 2.5t-12 10.5l-149 501q-2 9 6.5 11.5t33.5 2.5q31 0 41.5 -2.5t12.5 -8.5zM445 732q28 0 35.5 -4.5t2.5 -9.5l-93 -128q-2 -4 -10 -6.5t-26 -2.5h-8
q-24 0 -28.5 3.5t-1.5 8.5l73 128q3 5 13 8t31 3h12z" />
    <glyph glyph-name="Wdieresis" unicode="&#x1e84;" horiz-adv-x="953" 
d="M86 720q20 0 32.5 -3t14.5 -9l148 -613l146 614q3 11 45 11h23q42 0 45 -11l150 -614l144 613q3 12 42 12h11q43 0 40 -12l-179 -698q-2 -6 -14.5 -8.5t-32.5 -2.5h-30q-43 0 -46 11l-144 590l-139 -588q-2 -6 -14.5 -9.5t-32.5 -3.5h-31q-43 0 -46 13l-190 696
q-2 6 10.5 9t33.5 3h14zM303 847q0 24 16.5 40.5t40.5 16.5t40.5 -16.5t16.5 -40.5t-16.5 -40.5t-40.5 -16.5t-40.5 16.5t-16.5 40.5zM536 847q0 24 16.5 40.5t40.5 16.5t40.5 -16.5t16.5 -40.5t-16.5 -40.5t-40.5 -16.5t-40.5 16.5t-16.5 40.5z" />
    <glyph glyph-name="wdieresis" unicode="&#x1e85;" horiz-adv-x="777" 
d="M228 104l106 410q2 8 10 11t35 3h21q24 0 31.5 -3t9.5 -11l110 -411q33 104 61 203.5t47 209.5q1 6 8.5 9t36.5 3q27 0 36 -3q6 -2 6 -10q0 -3 -1 -7q-17 -77 -34.5 -144t-35.5 -127t-37 -115l-37 -107q-3 -8 -14 -11.5t-35 -3.5h-15q-23 0 -33.5 3t-12.5 11l-63 235
q-11 42 -22.5 90.5t-19.5 89.5q-8 -39 -19.5 -87.5t-23.5 -93.5l-62 -235q-2 -8 -12 -10.5t-37 -2.5h-9q-31 0 -41 2.5t-12 10.5l-149 501q-2 9 6.5 11.5t33.5 2.5q31 0 41.5 -2.5t12.5 -8.5zM215 655q0 24 16.5 40.5t40.5 16.5t40.5 -16.5t16.5 -40.5t-16.5 -40.5
t-40.5 -16.5t-40.5 16.5t-16.5 40.5zM448 655q0 24 16.5 40.5t40.5 16.5t40.5 -16.5t16.5 -40.5t-16.5 -40.5t-40.5 -16.5t-40.5 16.5t-16.5 40.5z" />
    <glyph glyph-name="Ygrave" unicode="&#x1ef2;" horiz-adv-x="543" 
d="M69 720q20 0 32.5 -2.5t15.5 -8.5l159 -338l156 338q3 6 15 8.5t31 2.5h11q20 0 33 -3q10 -2 10 -7q0 -1 -1 -2l-214 -429v-268q0 -11 -43 -11h-11q-41 0 -41 11v268l-212 429q-1 1 -1 2q0 5 11 7q13 3 34 3h15zM215 924q40 0 46 -11l73 -128q2 -5 -3 -8.5t-29 -3.5h-9
q-18 0 -26 2.5t-11 6.5l-94 128q-4 5 4 9.5t36 4.5h13z" />
    <glyph glyph-name="ygrave" unicode="&#x1ef3;" horiz-adv-x="507" 
d="M210 268q20 -54 32 -92t23 -79q8 35 22 77l29 87l89 256q2 7 12 9t33 2q29 0 39 -3q8 -2 8 -8q0 -1 -1 -3l-189 -526q-40 -112 -85 -160q-31 -33 -68 -47t-81 -14q-20 0 -42 5t-38 13q-8 5 -8 11.5t5 20.5l4 12q6 18 10 22.5t12 2.5q14 -4 26.5 -6.5t27.5 -2.5
q25 0 45 7.5t37.5 24.5t33 46t31.5 71l-199 520q-4 9 6.5 11.5t40.5 2.5q27 0 38 -2.5t13 -8.5zM201 732q40 0 46 -11l73 -128q2 -5 -3 -8.5t-29 -3.5h-9q-18 0 -26 2.5t-11 6.5l-94 128q-4 5 4 9.5t36 4.5h13z" />
    <glyph glyph-name="uni2000" unicode="&#x2000;" horiz-adv-x="520" 
 />
    <glyph glyph-name="uni2001" unicode="&#x2001;" horiz-adv-x="1040" 
 />
    <glyph glyph-name="uni2002" unicode="&#x2002;" horiz-adv-x="520" 
 />
    <glyph glyph-name="uni2003" unicode="&#x2003;" horiz-adv-x="1040" 
 />
    <glyph glyph-name="uni2004" unicode="&#x2004;" horiz-adv-x="346" 
 />
    <glyph glyph-name="uni2005" unicode="&#x2005;" horiz-adv-x="260" 
 />
    <glyph glyph-name="uni2006" unicode="&#x2006;" horiz-adv-x="173" 
 />
    <glyph glyph-name="uni2007" unicode="&#x2007;" horiz-adv-x="173" 
 />
    <glyph glyph-name="uni2008" unicode="&#x2008;" horiz-adv-x="130" 
 />
    <glyph glyph-name="uni2009" unicode="&#x2009;" horiz-adv-x="208" 
 />
    <glyph glyph-name="uni200A" unicode="&#x200a;" horiz-adv-x="57" 
 />
    <glyph glyph-name="uni2010" unicode="&#x2010;" horiz-adv-x="378" 
d="M326 339q9 0 9 -31v-9q0 -32 -9 -32h-274q-9 0 -9 32v9q0 31 9 31h274z" />
    <glyph glyph-name="uni2011" unicode="&#x2011;" horiz-adv-x="378" 
d="M326 339q9 0 9 -31v-9q0 -32 -9 -32h-274q-9 0 -9 32v9q0 31 9 31h274z" />
    <glyph glyph-name="figuredash" unicode="&#x2012;" horiz-adv-x="378" 
d="M326 339q9 0 9 -31v-9q0 -32 -9 -32h-274q-9 0 -9 32v9q0 31 9 31h274z" />
    <glyph glyph-name="endash" unicode="&#x2013;" horiz-adv-x="500" 
d="M452 316q5 0 7 -6t2 -22v-8q0 -31 -9 -31h-404q-9 0 -9 31v8q0 16 2 22t7 6h404z" />
    <glyph glyph-name="emdash" unicode="&#x2014;" horiz-adv-x="1000" 
d="M952 316q5 0 7 -6t2 -22v-8q0 -31 -9 -31h-904q-9 0 -9 31v8q0 16 2 22t7 6h904z" />
    <glyph glyph-name="quoteleft" unicode="&#x2018;" horiz-adv-x="235" 
d="M181 718q4 -4 7 -11.5t-5 -15.5q-21 -21 -37.5 -46.5t-16.5 -51.5q0 -15 6.5 -23.5t15 -16.5t15 -19t6.5 -31q0 -26 -17 -41t-42 -15q-34 0 -53 22t-19 54q0 58 28 113.5t74 93.5q6 5 14 5.5t15 -7.5z" />
    <glyph glyph-name="quoteright" unicode="&#x2019;" horiz-adv-x="235" 
d="M54 459q-4 4 -7 11.5t5 15.5q21 21 37.5 46.5t16.5 51.5q0 15 -6.5 23.5t-15 16.5t-15 19t-6.5 31q0 26 17 41t42 15q34 0 53 -22t19 -54q0 -58 -28 -113.5t-74 -93.5q-6 -5 -14 -5.5t-15 7.5z" />
    <glyph glyph-name="quotesinglbase" unicode="&#x201a;" horiz-adv-x="241" 
d="M54 -150q-5 5 -7.5 12t5.5 15q22 21 40 47.5t18 52.5q0 15 -7 23.5t-15 16t-15 18.5t-7 32q0 26 18 41.5t43 15.5q35 0 54 -22.5t19 -54.5q0 -59 -29.5 -115.5t-77.5 -94.5q-6 -5 -13.5 -5.5t-15.5 7.5z" />
    <glyph glyph-name="quotedblleft" unicode="&#x201c;" horiz-adv-x="432" 
d="M378 717q4 -4 7 -11.5t-5 -15.5q-21 -21 -37.5 -46.5t-16.5 -51.5q0 -15 6.5 -23.5t15 -16.5t15 -19t6.5 -31q0 -26 -17 -41t-42 -15q-34 0 -53 22t-19 54q0 58 28 113.5t74 93.5q6 5 14 5t15 -7zM181 717q4 -4 7 -11.5t-5 -15.5q-21 -21 -37.5 -46.5t-16.5 -51.5
q0 -15 6.5 -23.5t15 -16.5t15 -19t6.5 -31q0 -26 -17 -41t-42 -15q-34 0 -53 22t-19 54q0 58 28 113.5t74 93.5q6 5 14 5t15 -7z" />
    <glyph glyph-name="quotedblright" unicode="&#x201d;" horiz-adv-x="432" 
d="M54 459q-4 4 -7 11.5t5 15.5q21 21 37.5 46.5t16.5 51.5q0 15 -6.5 23.5t-15 16.5t-15 19t-6.5 31q0 26 17 41t42 15q34 0 53 -22t19 -54q0 -58 -28 -113.5t-74 -93.5q-6 -5 -14 -5.5t-15 7.5zM251 459q-4 4 -7 11.5t5 15.5q21 21 37.5 46.5t16.5 51.5q0 15 -6.5 23.5
t-15 16.5t-15 19t-6.5 31q0 26 17 41t42 15q34 0 53 -22t19 -54q0 -58 -28 -113.5t-74 -93.5q-6 -5 -14 -5.5t-15 7.5z" />
    <glyph glyph-name="quotedblbase" unicode="&#x201e;" horiz-adv-x="438" 
d="M54 -150q-5 5 -7.5 12t5.5 15q22 21 40 47.5t18 52.5q0 15 -7 23.5t-15 16t-15 18.5t-7 32q0 26 18 41.5t43 15.5q35 0 54 -22.5t19 -54.5q0 -59 -29.5 -115.5t-77.5 -94.5q-6 -5 -13.5 -5.5t-15.5 7.5zM251 -150q-5 5 -7.5 12t5.5 15q22 21 40 47.5t18 52.5
q0 15 -7 23.5t-15 16t-15 18.5t-7 32q0 26 18 41.5t43 15.5q35 0 54 -22.5t19 -54.5q0 -59 -29.5 -115.5t-77.5 -94.5q-6 -5 -13.5 -5.5t-15.5 7.5z" />
    <glyph glyph-name="dagger" unicode="&#x2020;" horiz-adv-x="469" 
d="M237 720q39 0 39 -10v-231h168q5 0 7 -6t2 -26v-10q0 -20 -2 -25.5t-7 -5.5h-168v-533q0 -10 -38 -10h-9q-39 0 -39 10v533h-165q-5 0 -7 5.5t-2 25.5v10q0 20 2 26t7 6h165v231q0 10 38 10h9z" />
    <glyph glyph-name="daggerdbl" unicode="&#x2021;" horiz-adv-x="483" 
d="M244 720q39 0 39 -10v-211h168q5 0 7 -6t2 -26v-10q0 -20 -2 -25.5t-7 -5.5h-168v-269h168q5 0 7 -6t2 -26v-10q0 -20 -2 -25.5t-7 -5.5h-168v-211q0 -10 -38 -10h-9q-39 0 -39 10v211h-165q-5 0 -7 5.5t-2 25.5v10q0 20 2 26t7 6h165v269h-165q-5 0 -7 5.5t-2 25.5v10
q0 20 2 26t7 6h165v211q0 10 38 10h9z" />
    <glyph glyph-name="bullet" unicode="&#x2022;" horiz-adv-x="335" 
d="M166 472q26 0 48.5 -9.5t39.5 -26.5t26.5 -39.5t9.5 -48.5q0 -25 -9.5 -47t-26.5 -38.5t-39.5 -26t-48.5 -9.5q-25 0 -47 9.5t-38.5 26t-26 38.5t-9.5 47q0 26 9.5 48.5t26 39.5t38.5 26.5t47 9.5z" />
    <glyph glyph-name="ellipsis" unicode="&#x2026;" horiz-adv-x="723" 
d="M124 125q29 0 48.5 -19.5t19.5 -48.5q0 -28 -19.5 -47.5t-48.5 -19.5q-28 0 -47.5 19.5t-19.5 47.5q0 29 19.5 48.5t47.5 19.5zM365 125q29 0 48.5 -19.5t19.5 -48.5q0 -28 -19.5 -47.5t-48.5 -19.5q-28 0 -47.5 19.5t-19.5 47.5q0 29 19.5 48.5t47.5 19.5zM606 125
q29 0 48.5 -19.5t19.5 -48.5q0 -28 -19.5 -47.5t-48.5 -19.5q-28 0 -47.5 19.5t-19.5 47.5q0 29 19.5 48.5t47.5 19.5z" />
    <glyph glyph-name="uni202F" unicode="&#x202f;" horiz-adv-x="208" 
 />
    <glyph glyph-name="perthousand" unicode="&#x2030;" horiz-adv-x="1271" 
d="M616 737q34 0 29 -11l-336 -734q-2 -5 -9.5 -7t-23.5 -2h-18q-34 0 -29 11l337 734q4 9 33 9h17zM675 330q-37 0 -58.5 -35t-21.5 -104q0 -63 18.5 -96.5t56.5 -33.5q39 0 60 36t21 105q0 128 -76 128zM678 401q74 0 118.5 -48t44.5 -149q0 -103 -46 -158.5t-127 -55.5
q-75 0 -119 48.5t-44 148.5q0 105 46 159.5t127 54.5zM210 659q-37 0 -58.5 -35t-21.5 -104q0 -63 18.5 -96.5t56.5 -33.5q39 0 60 36t21 105q0 128 -76 128zM213 730q74 0 118.5 -48t44.5 -149q0 -103 -46 -158.5t-127 -55.5q-75 0 -119 48.5t-44 148.5q0 105 46 159.5
t127 54.5zM1065 330q-37 0 -58.5 -35t-21.5 -104q0 -63 18.5 -96.5t56.5 -33.5q39 0 60 36t21 105q0 128 -76 128zM1068 401q74 0 118.5 -48t44.5 -149q0 -103 -46 -158.5t-127 -55.5q-75 0 -119 48.5t-44 148.5q0 105 46 159.5t127 54.5z" />
    <glyph glyph-name="guilsinglleft" unicode="&#x2039;" horiz-adv-x="303" 
d="M224 515q30 -12 24 -21l-116 -188l120 -194q6 -9 -22 -23l-8 -4q-29 -15 -37 -4l-132 191q-3 5 -5 10.5t-2 15.5v9q0 11 2 15.5t5 9.5l129 188q6 8 34 -2z" />
    <glyph glyph-name="guilsinglright" unicode="&#x203a;" horiz-adv-x="303" 
d="M81 515q29 15 37 4l132 -186q3 -5 5 -10.5t2 -15.5v-9q0 -11 -2 -15.5t-5 -9.5l-129 -193q-6 -8 -34 2l-8 3q-30 12 -24 21l116 193l-120 189q-6 9 22 23z" />
    <glyph glyph-name="fraction" unicode="&#x2044;" horiz-adv-x="386" 
d="M370 737q34 0 29 -11l-336 -734q-2 -5 -9.5 -7t-23.5 -2h-18q-34 0 -29 11l337 734q4 9 33 9h17z" />
    <glyph glyph-name="uni205F" unicode="&#x205f;" horiz-adv-x="260" 
 />
    <glyph glyph-name="Euro" unicode="&#x20ac;" 
d="M107 462q9 56 30 105t55 85t82.5 57t113.5 21q50 0 94 -12.5t79 -37.5q5 -3 3.5 -13t-6.5 -21l-6 -12q-6 -12 -12.5 -18.5t-11.5 -4.5q-65 38 -129 38q-69 0 -121.5 -45t-72.5 -142h239q9 0 9 -27v-13q0 -28 -9 -28h-247q-1 -8 -1 -18v-20v-20q0 -10 1 -18h234q9 0 9 -27
v-13q0 -28 -9 -28h-225q7 -37 21.5 -69t37 -56t54.5 -38t75 -14q67 0 129 33q5 2 11.5 -3t12.5 -19l6 -13q5 -11 6.5 -21t-3.5 -13q-79 -47 -180 -47q-60 0 -106.5 18.5t-80 52.5t-54.5 82t-30 107h-78q-9 0 -9 28v13q0 27 9 27h71v32v22q0 11 1 22h-59q-9 0 -9 28v13
q0 27 9 27h67z" />
    <glyph glyph-name="afii61289" unicode="&#x2113;" horiz-adv-x="256" 
d="M115 760q24 0 31.5 -2.5t9.5 -10.5q2 -11 3 -37.5t2 -65.5t1 -88v-105v-332q0 -28 6.5 -39t31.5 -11h10q4 0 5 -5t1 -22v-3q0 -20 -0.5 -25t-5.5 -7q-22 -8 -47 -8q-21 0 -40.5 7t-33.5 27q-10 14 -13.5 39.5t-3.5 65.5v335v81q0 43 -1 81t-2 67q0 11 -1.5 26t-1.5 21
t8 9q9 2 35 2h6z" />
    <glyph glyph-name="afii61352" unicode="&#x2116;" horiz-adv-x="1073" 
d="M1033 468q0 -106 -51.5 -161.5t-138.5 -55.5q-43 0 -75.5 15t-54.5 41.5t-33 63t-11 80.5q0 106 51.5 161.5t138.5 55.5q43 0 75.5 -15t54.5 -41.5t33 -63t11 -80.5zM950 463q0 23 -4 46.5t-14.5 42t-29 30t-46.5 11.5q-21 0 -40 -7.5t-33 -24t-22.5 -42.5t-8.5 -63
q0 -23 4 -46.5t14.5 -42t29 -30t46.5 -11.5q21 0 40 7.5t33 24t22.5 42.5t8.5 63zM128 720q32 0 41 -2.5t14 -10.5l333 -554v556q0 11 38 11h8q40 0 40 -11v-698q0 -7 -9.5 -9t-37.5 -2h-3q-32 0 -41 2.5t-14 10.5l-335 553v-555q0 -11 -38 -11h-8q-40 0 -40 11v698
q0 7 9.5 9t37.5 2h5z" />
    <glyph glyph-name="trademark" unicode="&#x2122;" horiz-adv-x="887" 
d="M356 720q9 0 9 -26v-6q0 -15 -2 -21t-7 -6h-120v-333q0 -5 -6.5 -7.5t-23.5 -2.5h-11q-18 0 -25 2.5t-7 7.5v333h-120q-5 0 -7 6t-2 21v6q0 26 9 26h313zM480 720q17 0 22.5 -2.5t7.5 -7.5l103 -237l100 237q2 5 7.5 7.5t22.5 2.5h21q18 0 24.5 -3t7.5 -10l25 -379
q0 -5 -7 -7.5t-25 -2.5h-9q-17 0 -23.5 2.5t-6.5 7.5l-17 270l-84 -203q-2 -5 -7.5 -7.5t-22.5 -2.5h-14q-18 0 -24 2.5t-8 7.5l-85 196l-17 -263q0 -5 -6.5 -7.5t-23.5 -2.5h-8q-18 0 -25 2.5t-7 7.5l26 379q1 7 7.5 10t24.5 3h21z" />
    <glyph glyph-name="estimated" unicode="&#x212e;" horiz-adv-x="922" 
d="M206 352q-5 0 -5 -6v-202q0 -12 9 -24q48 -48 113 -78t140 -30q80 0 148 32.5t116 89.5h60q-57 -66 -141 -105t-184 -39q-85 0 -160 29t-131 79.5t-88.5 117.5t-32.5 144t32.5 144.5t88.5 117.5t131 79t160 29t159.5 -29t130 -79t88 -117.5t32.5 -144.5v-8h-666zM721 580
q0 13 -10 25q-48 48 -112 75.5t-136 27.5q-75 0 -139 -29t-113 -77q-10 -10 -10 -26v-199q0 -6 5 -6h510q5 0 5 6v203z" />
    <glyph glyph-name="partialdiff" unicode="&#x2202;" horiz-adv-x="547" 
d="M85 664q-7 14 -6 21.5t5 9.5q64 35 140 35q82 0 134 -38.5t81.5 -97.5t40 -129t10.5 -132q0 -77 -13 -140t-41 -108t-72 -70t-106 -25q-50 0 -90 16.5t-68 46.5t-42.5 71.5t-14.5 92.5q0 54 16 96.5t44.5 71.5t67 44t82.5 15q32 0 67.5 -8.5t70.5 -34.5q-1 51 -11 96.5
t-31 80t-54 54.5t-79 20q-50 0 -103 -26q-4 -2 -9 2.5t-12 19.5zM395 314q-56 51 -128 51q-33 0 -57.5 -12.5t-40.5 -33t-24 -47t-8 -55.5q0 -27 7 -53.5t22 -47.5t38.5 -33.5t55.5 -12.5q42 0 68.5 21t41 55.5t20 78.5t5.5 89z" />
    <glyph glyph-name="product" unicode="&#x220f;" horiz-adv-x="694" 
d="M663 720q9 0 9 -33v-12q0 -34 -9 -34h-89v-797q0 -11 -41 -11h-11q-43 0 -43 11v797h-269v-797q0 -11 -41 -11h-11q-43 0 -43 11v797h-84q-9 0 -9 34v12q0 33 9 33h632z" />
    <glyph glyph-name="summation" unicode="&#x2211;" horiz-adv-x="563" 
d="M533 720q9 0 9 -33v-12q0 -34 -9 -34h-382l261 -314q8 -8 8 -31v-19q0 -24 -9 -34l-266 -331h395q9 0 9 -33v-12q0 -34 -9 -34h-484q-20 0 -27.5 3t-7.5 11v33q0 13 5 22.5t15 21.5l290 355l-290 350q-10 11 -15 21t-5 23v33q0 8 7.5 11t27.5 3h477z" />
    <glyph glyph-name="minus" unicode="&#x2212;" 
d="M527 398q9 0 9 -29v-9q0 -17 -2 -23.5t-7 -6.5h-484q-5 0 -7 6.5t-2 23.5v9q0 29 9 29h484z" />
    <glyph glyph-name="radical" unicode="&#x221a;" horiz-adv-x="640" 
d="M143 484q9 0 14.5 -6t11.5 -26l137 -422l237 780q3 12 39 12h21q39 0 35 -12l-282 -880q-4 -10 -34 -10h-35q-17 0 -25 2t-10 8l-168 476h-68q-10 0 -10 31v17q0 30 10 30h127z" />
    <glyph glyph-name="infinity" unicode="&#x221e;" horiz-adv-x="819" 
d="M411 379q41 47 86 77t108 30q36 0 66 -10.5t52 -31t34.5 -50t12.5 -67.5q0 -40 -13.5 -70t-37 -50t-54 -30t-63.5 -10q-52 0 -96.5 25.5t-95.5 80.5q-38 -46 -88 -77t-110 -31q-33 0 -62.5 10.5t-52 31t-35.5 50t-13 68.5q0 36 12 66t33.5 51.5t52 33.5t67.5 12
q58 0 105 -28t92 -81zM463 328q20 -23 36 -39t30.5 -26.5t29 -15.5t32.5 -5q45 0 71.5 25t26.5 63q0 20 -8 35.5t-21.5 26t-30.5 16t-36 5.5q-43 0 -73 -25t-57 -60zM358 328q-31 36 -62.5 61.5t-75.5 25.5q-42 0 -67 -23.5t-25 -63.5q0 -42 27 -64t66 -22q44 0 76.5 25
t60.5 61z" />
    <glyph glyph-name="integral" unicode="&#x222b;" horiz-adv-x="360" 
d="M335 676q-4 -17 -7.5 -25t-9.5 -6q-20 6 -39 6q-28 0 -45 -9t-26.5 -25t-12.5 -38t-3 -47q0 -64 12 -123t26 -117t26 -117.5t12 -125.5q0 -43 -10.5 -79t-32.5 -62t-56 -40.5t-80 -14.5q-16 0 -32 2t-33 7q-5 2 -5 11.5t2 23.5l1 8q6 37 16 33t22.5 -5.5t23.5 -1.5
q26 0 43 9t26.5 25t13.5 37.5t4 46.5q0 59 -11.5 115t-25.5 113.5t-25.5 118t-11.5 129.5q0 45 9.5 83t30.5 65t54.5 42t81.5 15q16 0 31.5 -1.5t29.5 -6.5q10 -3 4 -33z" />
    <glyph glyph-name="approxequal" unicode="&#x2248;" 
d="M54 408q-17 4 -20.5 7.5t-3.5 7.5q11 57 51.5 86t99.5 29q39 0 66.5 -11.5t52 -26t49 -26t57.5 -11.5q29 0 46 13.5t22 35.5q0 11 29 6l11 -2q17 -3 21.5 -6t4.5 -8q-5 -30 -19 -51t-34 -34t-44.5 -18.5t-51.5 -5.5q-45 0 -72.5 11.5t-49.5 25.5t-43.5 25.5t-54.5 11.5
q-31 0 -50.5 -15.5t-24.5 -42.5q-1 -10 -29 -4zM54 204q-17 4 -21 7.5t-3 7.5q14 58 53 87t98 29q39 0 66.5 -12t52 -26t49 -26t57.5 -12q29 0 47.5 13t20.5 36q2 11 29 6l11 -2q17 -3 22 -6t4 -8q-3 -31 -16.5 -52t-34 -34t-46 -18.5t-52.5 -5.5q-45 0 -72.5 11.5t-49.5 26
t-43.5 26t-54.5 11.5q-31 0 -50.5 -15.5t-24.5 -42.5q-1 -10 -29 -4z" />
    <glyph glyph-name="notequal" unicode="&#x2260;" 
d="M324 500l47 85q3 5 9 7.5t22 2.5h15q34 0 27 -12l-46 -83h129q9 0 9 -29v-9q0 -17 -2 -23.5t-7 -6.5h-164l-74 -136h238q9 0 9 -29v-9q0 -17 -2 -23.5t-7 -6.5h-275l-57 -105q-2 -5 -8.5 -7.5t-22.5 -2.5h-16q-34 0 -27 12l56 103h-134q-5 0 -7 6.5t-2 23.5v9q0 29 9 29
h172l74 136h-246q-5 0 -7 6.5t-2 23.5v9q0 29 9 29h281z" />
    <glyph glyph-name="lessequal" unicode="&#x2264;" 
d="M515 68q9 0 9 -29v-9q0 -17 -2 -23.5t-7 -6.5h-464q-5 0 -7 6.5t-2 23.5v9q0 29 9 29h464zM476 691q5 2 10 -2.5t13 -19.5l5 -9q16 -29 6 -34l-379 -182l384 -189q5 -2 2 -12.5t-8 -19.5l-6 -10q-6 -10 -12.5 -16.5t-11.5 -4.5l-425 211q-4 2 -6 9.5t-2 23.5v11
q0 15 2 22.5t6 9.5z" />
    <glyph glyph-name="greaterequal" unicode="&#x2265;" 
d="M519 68q9 0 9 -29v-9q0 -17 -2 -23.5t-7 -6.5h-464q-5 0 -7 6.5t-2 23.5v9q0 29 9 29h464zM517 485q4 -2 6 -9.5t2 -23.5v-11q0 -15 -2 -22.5t-6 -9.5l-425 -214q-5 -2 -10 2.5t-13 19.5l-5 9q-16 29 -6 34l382 184l-381 187q-5 2 -2 12.5t8 19.5l6 10q6 10 12.5 16.5
t11.5 4.5z" />
    <glyph glyph-name="lozenge" unicode="&#x25ca;" horiz-adv-x="541" 
d="M119 363l154 -272l152 275l-152 272zM281 752q28 0 33 -9l186 -330q3 -5 6 -14.5t3 -23.5v-13q0 -16 -2.5 -24.5t-6.5 -15.5l-191 -335q-5 -9 -32 -9h-16q-29 0 -34 9l-186 329q-4 7 -6.5 15.5t-2.5 24.5v14q0 14 3 23.5t6 14.5l193 335q5 9 33 9h14z" />
    <glyph glyph-name="uniE000" unicode="&#xe000;" horiz-adv-x="530" 
d="M0 530h530v-530h-530v530z" />
    <glyph glyph-name="grave.cap" horiz-adv-x="350" 
d="M128 914q40 0 46 -11l73 -128q2 -5 -3 -8.5t-29 -3.5h-9q-18 0 -26 2.5t-11 6.5l-94 128q-4 5 4 9.5t36 4.5h13z" />
    <glyph glyph-name="acute.cap" horiz-adv-x="350" 
d="M233 914q28 0 35.5 -4.5t3.5 -9.5l-94 -128q-4 -5 -11 -7t-25 -2h-8q-24 0 -28.5 3.5t-1.5 8.5l73 128q3 5 13 8t31 3h12z" />
    <glyph glyph-name="dieresis.cap" horiz-adv-x="350" 
d="M1 812q0 24 16.5 40.5t40.5 16.5t40.5 -16.5t16.5 -40.5t-16.5 -40.5t-40.5 -16.5t-40.5 16.5t-16.5 40.5zM234 812q0 24 16.5 40.5t40.5 16.5t40.5 -16.5t16.5 -40.5t-16.5 -40.5t-40.5 -16.5t-40.5 16.5t-16.5 40.5z" />
    <glyph glyph-name="circumflex.cap" horiz-adv-x="350" 
d="M113 896q5 6 14.5 9.5t29.5 4.5h38q21 0 30.5 -5t14.5 -10l89 -94q9 -9 -10 -29l-8 -9q-7 -8 -14.5 -11.5t-11.5 0.5l-110 96l-112 -95q-7 -7 -24 11l-7 8q-17 19 -10 27z" />
    <glyph glyph-name="tilde.cap" horiz-adv-x="350" 
d="M29 808q-14 19 -8 27q16 19 40.5 33t55.5 14q22 0 37 -6q16 -6 28 -12l24 -13q12 -6 30 -6q16 0 29 8.5t22 18.5q4 4 11 -0.5t15 -14.5l6 -8q6 -8 8.5 -15.5t-0.5 -11.5q-14 -20 -38.5 -36t-54.5 -16q-19 0 -33 6q-13 6 -27 12l-28 13q-14 6 -31 6q-16 0 -29.5 -8
t-23.5 -19q-4 -4 -11 1.5t-15 16.5z" />
    <glyph glyph-name="macron.cap" horiz-adv-x="350" 
d="M312 874q10 0 10 -29v-12q0 -32 -10 -32h-275q-10 0 -10 32v12q0 29 10 29h275z" />
    <glyph glyph-name="breve.cap" horiz-adv-x="350" 
d="M70 912q17 0 23 -2.5t7 -7.5q3 -29 22.5 -44t51.5 -15t51 15.5t23 43.5q1 5 7 7.5t23 2.5h13q32 0 32 -10q-4 -61 -45.5 -90t-105.5 -29q-62 0 -102 28t-44 91q0 10 32 10h12z" />
    <glyph glyph-name="dotaccent.cap" horiz-adv-x="350" 
d="M118 842q0 23 17 39.5t40 16.5t39.5 -16.5t16.5 -39.5t-16.5 -40t-39.5 -17t-40 17t-17 40z" />
    <glyph glyph-name="ring.cap" horiz-adv-x="350" 
d="M81 832q0 19 7.5 35.5t20.5 28.5t30 19t36 7t36 -7t30 -19t20.5 -28.5t7.5 -35.5t-7.5 -35.5t-20.5 -28.5t-30 -19t-36 -7t-36 7t-30 19t-20.5 28.5t-7.5 35.5zM133 832q0 -19 12.5 -30.5t29.5 -11.5q18 0 29.5 12.5t11.5 29.5t-11.5 29.5t-29.5 12.5q-17 0 -29.5 -11.5
t-12.5 -30.5z" />
    <glyph glyph-name="hungarumlaut.cap" horiz-adv-x="350" 
d="M135 914q28 0 35 -4t3 -10l-84 -128q-3 -5 -10.5 -7.5t-23.5 -2.5h-8q-23 0 -27 3.5t-1 9.5l64 128q2 5 11.5 8t30.5 3h10zM303 914q28 0 35 -4t3 -10l-84 -128q-3 -5 -10.5 -7.5t-23.5 -2.5h-8q-23 0 -27 3.5t-1 9.5l64 128q2 5 11.5 8t30.5 3h10z" />
    <glyph glyph-name="caron.cap" horiz-adv-x="350" 
d="M39 912q7 8 15.5 13t12.5 0l112 -98l109 95q9 7 25 -11l6 -7q17 -18 9 -27l-91 -97q-5 -6 -14.5 -9.5t-29.5 -3.5h-38q-21 0 -30.5 4.5t-14.5 9.5l-89 94q-5 5 -1.5 12.5t11.5 15.5z" />
    <glyph glyph-name="apple" horiz-adv-x="521" 
d="M465 542v-66h-201v-66h201v-202h-269v66h202v69h-202v199h269zM465 676v-66h-334v-543h74v-67h-141v676h401z" />
    </font>
</defs>
</svg>
